sourcesanspro-thin.sfdir
StartChar: exclam
Encoding: 33 33 1146
Width: 248
Flags: MW
HStem: -12 21G<115 133> -12 78<115 133> 650 20G<108 140 140 140>
VStem: 88 72<14 39> 108 32<608 670 608 670>
LayerCount: 2
Fore
SplineSet
112 172 m 1xa8
 108 608 l 1
 108 670 l 1
 140 670 l 1
 140 608 l 1
 136 172 l 1
 112 172 l 1xa8
124 -12 m 0xb0
 106 -12 88 2 88 26 c 0
 88 52 106 66 124 66 c 0x70
 142 66 160 52 160 26 c 0
 160 2 142 -12 124 -12 c 0xb0
EndSplineSet
Substitution2: "'c2sc' Capitals to Small Capitals lookup 19 subtable" exclam.sc
Substitution2: "'aalt' Access All Alternates lookup 0 subtable" exclam.sc
PairPos2: "'kern' Horizontal Kerning lookup 10 per glyph data 8" uni02BE dx=0 dy=0 dh=-16 dv=0 dx=0 dy=0 dh=0 dv=0
PairPos2: "'kern' Horizontal Kerning lookup 10 per glyph data 8" uni02BC dx=0 dy=0 dh=-16 dv=0 dx=0 dy=0 dh=0 dv=0
PairPos2: "'kern' Horizontal Kerning lookup 10 per glyph data 8" quotedblright dx=0 dy=0 dh=-16 dv=0 dx=0 dy=0 dh=0 dv=0
PairPos2: "'kern' Horizontal Kerning lookup 10 per glyph data 8" quoteright dx=0 dy=0 dh=-16 dv=0 dx=0 dy=0 dh=0 dv=0
EndChar
StartChar: numbersign
Encoding: 35 35 1215
Width: 472
Flags: MW
HStem: 0 21G<94 94 94 122 278 278 278 306> 218 28<36 120 36 124 36 148 152 304 336 422> 424 28<56 146 56 148 56 174 176 330 360 442> 630 20G<174 202 202 202 358 386 386 386>
VStem: 36 406<218 452 246 452>
LayerCount: 2
Fore
SplineSet
94 0 m 1
 120 218 l 1
 36 218 l 1
 36 246 l 1
 124 246 l 1
 146 424 l 1
 56 424 l 1
 56 452 l 1
 148 452 l 1
 174 650 l 1
 202 650 l 1
 176 452 l 1
 332 452 l 1
 358 650 l 1
 386 650 l 1
 360 452 l 1
 442 452 l 1
 442 424 l 1
 358 424 l 1
 336 246 l 1
 422 246 l 1
 422 218 l 1
 332 218 l 1
 306 0 l 1
 278 0 l 1
 304 218 l 1
 148 218 l 1
 122 0 l 1
 94 0 l 1
152 246 m 1
 308 246 l 1
 330 424 l 1
 174 424 l 1
 152 246 l 1
EndSplineSet
EndChar
StartChar: dollar
Encoding: 36 36 1702
Width: 472
Flags: MW
HStem: -12 28<258 258> -11 27<228 228> 624 27<228 228 228 274> 624 28<258 258 258 274>
VStem: 88 32<409 536 409 541.5> 228 30<-110 -12 -110 -11 -110 -11 652 750> 380 32<108 251>
LayerCount: 2
Fore
SplineSet
228 -110 m 1x9e
 228 -11 l 1
 157 -6 99 31 62 66 c 1
 80 88 l 1
 116 54 172 16 244 16 c 0
 332 16 380 70 380 146 c 0
 380 356 88 294 88 500 c 0
 88 583 148 644 228 651 c 1
 228 750 l 1
 258 750 l 1x6e
 258 652 l 1
 323 648 360 618 394 582 c 1
 374 562 l 1
 336 600 306 624 242 624 c 0
 170 624 120 570 120 502 c 0
 120 316 412 382 412 148 c 0
 412 53 344 -6 258 -12 c 1
 258 -110 l 1
 228 -110 l 1x9e
EndSplineSet
PairPos2: "'kern' Horizontal Kerning lookup 10 per glyph data 0" seven.onum dx=0 dy=0 dh=-34 dv=0 dx=0 dy=0 dh=0 dv=0
PairPos2: "'kern' Horizontal Kerning lookup 10 per glyph data 0" five.onum dx=0 dy=0 dh=-10 dv=0 dx=0 dy=0 dh=0 dv=0
PairPos2: "'kern' Horizontal Kerning lookup 10 per glyph data 0" three.onum dx=0 dy=0 dh=-10 dv=0 dx=0 dy=0 dh=0 dv=0
PairPos2: "'kern' Horizontal Kerning lookup 10 per glyph data 0" two.onum dx=0 dy=0 dh=-10 dv=0 dx=0 dy=0 dh=0 dv=0
PairPos2: "'kern' Horizontal Kerning lookup 10 per glyph data 0" one.onum dx=0 dy=0 dh=-20 dv=0 dx=0 dy=0 dh=0 dv=0
PairPos2: "'kern' Horizontal Kerning lookup 10 per glyph data 0" nine.pnum dx=0 dy=0 dh=-10 dv=0 dx=0 dy=0 dh=0 dv=0
PairPos2: "'kern' Horizontal Kerning lookup 10 per glyph data 0" seven.pnum dx=0 dy=0 dh=-34 dv=0 dx=0 dy=0 dh=0 dv=0
PairPos2: "'kern' Horizontal Kerning lookup 10 per glyph data 0" two.pnum dx=0 dy=0 dh=-10 dv=0 dx=0 dy=0 dh=0 dv=0
PairPos2: "'kern' Horizontal Kerning lookup 10 per glyph data 0" one.pnum dx=0 dy=0 dh=-20 dv=0 dx=0 dy=0 dh=0 dv=0
EndChar
StartChar: parenleft
Encoding: 40 40 1175
Width: 270
Flags: MW
HStem: -174 904<222 222>
VStem: 90 28<198 358 198 366>
LayerCount: 2
Fore
SplineSet
222 -174 m 1
 140 -42 90 102 90 278 c 0
 90 454 140 598 222 730 c 1
 240 718 l 1
 160 592 118 438 118 278 c 0
 118 118 160 -36 240 -162 c 1
 222 -174 l 1
EndSplineSet
Substitution2: "'subs' Subscript lookup 30 subtable" parenleft.subs
Substitution2: "'sups' Superscript lookup 28 subtable" parenleft.sups
Substitution2: "'dnom' Denominators lookup 23 subtable" parenleft.dnom
Substitution2: "'numr' Numerators lookup 22 subtable" parenleft.numr
Substitution2: "'c2sc' Capitals to Small Capitals lookup 19 subtable" parenleft.sc
AlternateSubs2: "'aalt' Access All Alternates lookup 1 subtable" parenleft.sc parenleft.numr parenleft.dnom parenleft.sups parenleft.subs
PairPos2: "'kern' Horizontal Kerning lookup 10 per glyph data 8" Jcircumflex dx=0 dy=0 dh=-20 dv=0 dx=0 dy=0 dh=0 dv=0
PairPos2: "'kern' Horizontal Kerning lookup 10 per glyph data 8" J dx=0 dy=0 dh=-20 dv=0 dx=0 dy=0 dh=0 dv=0
PairPos2: "'kern' Horizontal Kerning lookup 10 per glyph data 8" uni0284 dx=0 dy=0 dh=80 dv=0 dx=0 dy=0 dh=0 dv=0
PairPos2: "'kern' Horizontal Kerning lookup 10 per glyph data 8" uni0283 dx=0 dy=0 dh=80 dv=0 dx=0 dy=0 dh=0 dv=0
PairPos2: "'kern' Horizontal Kerning lookup 10 per glyph data 8" uni0272 dx=0 dy=0 dh=80 dv=0 dx=0 dy=0 dh=0 dv=0
PairPos2: "'kern' Horizontal Kerning lookup 10 per glyph data 8" uni025F dx=0 dy=0 dh=80 dv=0 dx=0 dy=0 dh=0 dv=0
PairPos2: "'kern' Horizontal Kerning lookup 10 per glyph data 8" uni0237 dx=0 dy=0 dh=80 dv=0 dx=0 dy=0 dh=0 dv=0
PairPos2: "'kern' Horizontal Kerning lookup 10 per glyph data 8" jcircumflex dx=0 dy=0 dh=80 dv=0 dx=0 dy=0 dh=0 dv=0
PairPos2: "'kern' Horizontal Kerning lookup 10 per glyph data 8" j dx=0 dy=0 dh=80 dv=0 dx=0 dy=0 dh=0 dv=0
PairPos2: "'kern' Horizontal Kerning lookup 10 per glyph data 8" uni04C1 dx=0 dy=0 dh=20 dv=0 dx=0 dy=0 dh=0 dv=0
PairPos2: "'kern' Horizontal Kerning lookup 10 per glyph data 8" uni0496 dx=0 dy=0 dh=20 dv=0 dx=0 dy=0 dh=0 dv=0
PairPos2: "'kern' Horizontal Kerning lookup 10 per glyph data 8" uni0416 dx=0 dy=0 dh=20 dv=0 dx=0 dy=0 dh=0 dv=0
PairPos2: "'kern' Horizontal Kerning lookup 10 per glyph data 8" uni0463 dx=0 dy=0 dh=-20 dv=0 dx=0 dy=0 dh=0 dv=0
PairPos2: "'kern' Horizontal Kerning lookup 10 per glyph data 8" uni04F2 dx=0 dy=0 dh=20 dv=0 dx=0 dy=0 dh=0 dv=0
PairPos2: "'kern' Horizontal Kerning lookup 10 per glyph data 8" uni04EE dx=0 dy=0 dh=20 dv=0 dx=0 dy=0 dh=0 dv=0
PairPos2: "'kern' Horizontal Kerning lookup 10 per glyph data 8" uni040E dx=0 dy=0 dh=20 dv=0 dx=0 dy=0 dh=0 dv=0
PairPos2: "'kern' Horizontal Kerning lookup 10 per glyph data 8" uni0423 dx=0 dy=0 dh=20 dv=0 dx=0 dy=0 dh=0 dv=0
PairPos2: "'kern' Horizontal Kerning lookup 10 per glyph data 8" uni0408 dx=0 dy=0 dh=-20 dv=0 dx=0 dy=0 dh=0 dv=0
PairPos2: "'kern' Horizontal Kerning lookup 10 per glyph data 8" uni0458 dx=0 dy=0 dh=80 dv=0 dx=0 dy=0 dh=0 dv=0
PairPos2: "'kern' Horizontal Kerning lookup 10 per glyph data 8" uni0414 dx=0 dy=0 dh=20 dv=0 dx=0 dy=0 dh=0 dv=0
PairPos2: "'kern' Horizontal Kerning lookup 10 per glyph data 8" uni0414.sc dx=0 dy=0 dh=20 dv=0 dx=0 dy=0 dh=0 dv=0
PairPos2: "'kern' Horizontal Kerning lookup 10 per glyph data 8" uni0434 dx=0 dy=0 dh=20 dv=0 dx=0 dy=0 dh=0 dv=0
EndChar
StartChar: asterisk
Encoding: 42 42 1185
Width: 386
Flags: MW
HStem: 478 234<130 206 180 256>
VStem: 177 32
LayerCount: 2
Fore
SplineSet
130 478 m 1
 108 494 l 1
 162 580 l 1
 74 614 l 1
 82 638 l 1
 174 612 l 1
 180 712 l 1
 206 712 l 1
 212 614 l 1
 304 638 l 1
 312 614 l 1
 224 580 l 1
 278 494 l 1
 256 478 l 1
 194 560 l 1
 130 478 l 1
EndSplineSet
EndChar
StartChar: zero
Encoding: 48 48 1087
Width: 472
Flags: MW
HStem: -12 28<189 283 189 296> 624 28<189 283>
VStem: 50 32<223 421 223 428> 390 32<223 421>
LayerCount: 2
Fore
SplineSet
236 -12 m 0
 116 -12 50 110 50 322 c 0
 50 534 116 652 236 652 c 0
 356 652 422 534 422 322 c 0
 422 110 356 -12 236 -12 c 0
236 16 m 0
 330 16 390 124 390 322 c 0
 390 520 330 624 236 624 c 0
 142 624 82 520 82 322 c 0
 82 124 142 16 236 16 c 0
EndSplineSet
Substitution2: "'zero' Slashed Zero lookup 34 subtable" zero.0
Substitution2: "'ss05' Style Set 5 lookup 33 subtable" zero.0s
Substitution2: "'onum' Oldstyle Figures lookup 32 subtable" zero.tnum
Substitution2: "'pnum' Proportional Numbers lookup 31 subtable" zero.pnum
Substitution2: "'subs' Subscript lookup 30 subtable" zero.subs
Substitution2: "'sups' Superscript lookup 28 subtable" zero.sups
Substitution2: "'dnom' Denominators lookup 23 subtable" zero.dnom
Substitution2: "'numr' Numerators lookup 22 subtable" zero.numr
Substitution2: "'smcp' Lowercase to Small Capitals lookup 18 subtable" zero.sc
AlternateSubs2: "'aalt' Access All Alternates lookup 1 subtable" zero.sc zero.numr zero.dnom zero.sups zero.subs zero.pnum zero.tnum zero.0s zero.0
EndChar
StartChar: one
Encoding: 49 49 1088
Width: 472
Flags: MW
HStem: 0 28<86 238 86 238 268 410> 580 22<124 238 124 124> 580 60<124 268>
VStem: 238 30<28 580 580 580>
LayerCount: 2
Fore
SplineSet
86 0 m 1xb0
 86 28 l 1
 238 28 l 1
 238 580 l 1
 124 580 l 1xb0
 124 602 l 1xd0
 174 610 214 624 242 640 c 1
 268 640 l 1
 268 28 l 1
 410 28 l 1
 410 0 l 1
 86 0 l 1xb0
EndSplineSet
Substitution2: "'onum' Oldstyle Figures lookup 32 subtable" one.tnum
Substitution2: "'pnum' Proportional Numbers lookup 31 subtable" one.pnum
Substitution2: "'subs' Subscript lookup 30 subtable" one.subs
Substitution2: "'sups' Superscript lookup 28 subtable" one.sups
Substitution2: "'dnom' Denominators lookup 23 subtable" one.dnom
Substitution2: "'numr' Numerators lookup 22 subtable" one.numr
Substitution2: "'smcp' Lowercase to Small Capitals lookup 18 subtable" one.sc
AlternateSubs2: "'aalt' Access All Alternates lookup 1 subtable" one.sc one.numr one.dnom one.sups one.subs one.pnum one.tnum
EndChar
StartChar: two
Encoding: 50 50 1089
Width: 472
Flags: MW
HStem: 0 28<196 426 196 426> 624 28<186 267>
VStem: 362 32<419 517>
LayerCount: 2
Fore
SplineSet
42 0 m 1
 42 20 l 1
 258 242 362 362 362 476 c 0
 362 558 318 624 216 624 c 0
 156 624 102 588 62 538 c 1
 40 558 l 1
 86 610 142 652 218 652 c 0
 330 652 394 582 394 476 c 0
 394 346 276 223 88 24 c 1
 124 26 160 28 196 28 c 2
 426 28 l 1
 426 0 l 1
 42 0 l 1
EndSplineSet
Substitution2: "'onum' Oldstyle Figures lookup 32 subtable" two.tnum
Substitution2: "'pnum' Proportional Numbers lookup 31 subtable" two.pnum
Substitution2: "'subs' Subscript lookup 30 subtable" two.subs
Substitution2: "'sups' Superscript lookup 28 subtable" two.sups
Substitution2: "'dnom' Denominators lookup 23 subtable" two.dnom
Substitution2: "'numr' Numerators lookup 22 subtable" two.numr
Substitution2: "'smcp' Lowercase to Small Capitals lookup 18 subtable" two.sc
AlternateSubs2: "'aalt' Access All Alternates lookup 1 subtable" two.sc two.numr two.dnom two.sups two.subs two.pnum two.tnum
EndChar
StartChar: four
Encoding: 52 52 1091
Width: 472
Flags: MW
HStem: 0 21G<312 312 312 342> 196 28<58 312 58 312 342 440> 582 58<312 342 312 342> 620 20G<322 342 342 342>
VStem: 312 30<0 196 0 196 224 476 476 490 582 582>
LayerCount: 2
Fore
SplineSet
312 0 m 1xd8
 312 196 l 1
 16 196 l 1
 16 212 l 1
 322 640 l 1
 342 640 l 1
 342 224 l 1
 440 224 l 1
 440 196 l 1
 342 196 l 1
 342 0 l 1
 312 0 l 1xd8
58 224 m 1
 312 224 l 1
 312 476 l 2
 312 504 314 554 316 582 c 1
 312 582 l 1
 296 556 278 534 260 506 c 1xe8
 58 224 l 1
EndSplineSet
Substitution2: "'onum' Oldstyle Figures lookup 32 subtable" four.tnum
Substitution2: "'pnum' Proportional Numbers lookup 31 subtable" four.pnum
Substitution2: "'subs' Subscript lookup 30 subtable" four.subs
Substitution2: "'sups' Superscript lookup 28 subtable" four.sups
Substitution2: "'dnom' Denominators lookup 23 subtable" four.dnom
Substitution2: "'numr' Numerators lookup 22 subtable" four.numr
Substitution2: "'smcp' Lowercase to Small Capitals lookup 18 subtable" four.sc
AlternateSubs2: "'aalt' Access All Alternates lookup 1 subtable" four.sc four.numr four.dnom four.sups four.subs four.pnum four.tnum
EndChar
StartChar: five
Encoding: 53 53 1092
Width: 472
Flags: MW
HStem: -12 28<180 270 180 274> 372 30<205 278> 612 28<132 390 132 132>
VStem: 392 32<144 252>
LayerCount: 2
Fore
SplineSet
224 -12 m 0
 122 -12 66 34 26 74 c 1
 46 96 l 1
 84 56 134 16 226 16 c 0
 314 16 392 90 392 198 c 0
 392 306 328 372 228 372 c 0
 178 372 144 354 106 328 c 1
 80 344 l 1
 104 640 l 1
 390 640 l 1
 390 612 l 1
 132 612 l 1
 110 366 l 1
 144 387 180 402 230 402 c 0
 338 402 424 340 424 200 c 0
 424 64 324 -12 224 -12 c 0
EndSplineSet
Substitution2: "'onum' Oldstyle Figures lookup 32 subtable" five.tnum
Substitution2: "'pnum' Proportional Numbers lookup 31 subtable" five.pnum
Substitution2: "'subs' Subscript lookup 30 subtable" five.subs
Substitution2: "'sups' Superscript lookup 28 subtable" five.sups
Substitution2: "'dnom' Denominators lookup 23 subtable" five.dnom
Substitution2: "'numr' Numerators lookup 22 subtable" five.numr
Substitution2: "'smcp' Lowercase to Small Capitals lookup 18 subtable" five.sc
AlternateSubs2: "'aalt' Access All Alternates lookup 1 subtable" five.sc five.numr five.dnom five.sups five.subs five.pnum five.tnum
EndChar
StartChar: six
Encoding: 54 54 1093
Width: 472
Flags: MW
HStem: -12 28<203.5 299 203.5 304> 356 28<226.5 302> 624 28<231 305>
VStem: 54 32<293 415.5 293 424> 396 32<139 234>
LayerCount: 2
Fore
SplineSet
258 -12 m 0
 130 -12 54 98 54 288 c 0
 54 560 164 652 286 652 c 0
 342 652 382 628 414 592 c 1
 394 570 l 1
 365 606 326 624 284 624 c 0
 178 624 86 538 86 293 c 1
 131 348 190 384 252 384 c 0
 364 384 428 314 428 186 c 0
 428 72 350 -12 258 -12 c 0
260 16 m 0
 338 16 396 92 396 186 c 0
 396 282 354 356 250 356 c 0
 203 356 142 328 87 255 c 1
 94 116 147 16 260 16 c 0
EndSplineSet
Substitution2: "'onum' Oldstyle Figures lookup 32 subtable" six.tnum
Substitution2: "'pnum' Proportional Numbers lookup 31 subtable" six.pnum
Substitution2: "'subs' Subscript lookup 30 subtable" six.subs
Substitution2: "'sups' Superscript lookup 28 subtable" six.sups
Substitution2: "'dnom' Denominators lookup 23 subtable" six.dnom
Substitution2: "'numr' Numerators lookup 22 subtable" six.numr
Substitution2: "'smcp' Lowercase to Small Capitals lookup 18 subtable" six.sc
AlternateSubs2: "'aalt' Access All Alternates lookup 1 subtable" six.sc six.numr six.dnom six.sups six.subs six.pnum six.tnum
EndChar
StartChar: eight
Encoding: 56 56 1095
Width: 472
Flags: MW
HStem: -12 28<191 288 191 297> 624 28<202 284>
VStem: 40 32<123 201 123 208> 78 32<464 534 450 543> 378 32<457 523> 398 32<116 197 108 206>
LayerCount: 2
Fore
SplineSet
240 -12 m 0xe4
 124 -12 40 64 40 164 c 0xe4
 40 252 110 316 170 348 c 1
 170 352 l 1
 124 382 78 430 78 498 c 0
 78 588 150 652 240 652 c 0
 348 652 410 580 410 486 c 0xd8
 410 414 354 350 318 320 c 1
 318 316 l 1
 372 282 430 240 430 154 c 0
 430 62 354 -12 240 -12 c 0xe4
288 330 m 1xd8
 346 376 378 428 378 486 c 0
 378 560 328 624 240 624 c 0
 164 624 110 570 110 498 c 0
 110 402 202 364 288 330 c 1xd8
240 16 m 0xe4
 336 16 398 78 398 154 c 0
 398 258 296 294 194 334 c 1
 124 294 72 238 72 164 c 0
 72 82 142 16 240 16 c 0xe4
EndSplineSet
Substitution2: "'onum' Oldstyle Figures lookup 32 subtable" eight.tnum
Substitution2: "'pnum' Proportional Numbers lookup 31 subtable" eight.pnum
Substitution2: "'subs' Subscript lookup 30 subtable" eight.subs
Substitution2: "'sups' Superscript lookup 28 subtable" eight.sups
Substitution2: "'dnom' Denominators lookup 23 subtable" eight.dnom
Substitution2: "'numr' Numerators lookup 22 subtable" eight.numr
Substitution2: "'smcp' Lowercase to Small Capitals lookup 18 subtable" eight.sc
AlternateSubs2: "'aalt' Access All Alternates lookup 1 subtable" eight.sc eight.numr eight.dnom eight.sups eight.subs eight.pnum eight.tnum
EndChar
StartChar: nine
Encoding: 57 57 1096
Width: 472
Flags: MW
HStem: -12 28<167 241 167 247> 256 28<170 245.5 170 251> 624 28<173 268.5>
VStem: 44 32<406 501 406 511> 386 32<224.5 347>
LayerCount: 2
Fore
SplineSet
222 284 m 0
 269 284 330 312 385 385 c 1
 378 524 325 624 212 624 c 0
 134 624 76 548 76 454 c 0
 76 358 118 284 222 284 c 0
186 -12 m 0
 130 -12 89 12 58 48 c 1
 78 70 l 1
 107 34 146 16 188 16 c 0
 294 16 386 102 386 347 c 1
 341 292 282 256 220 256 c 0
 108 256 44 326 44 454 c 0
 44 568 122 652 214 652 c 0
 342 652 418 542 418 352 c 0
 418 80 308 -12 186 -12 c 0
EndSplineSet
Substitution2: "'onum' Oldstyle Figures lookup 32 subtable" nine.tnum
Substitution2: "'pnum' Proportional Numbers lookup 31 subtable" nine.pnum
Substitution2: "'subs' Subscript lookup 30 subtable" nine.subs
Substitution2: "'sups' Superscript lookup 28 subtable" nine.sups
Substitution2: "'dnom' Denominators lookup 23 subtable" nine.dnom
Substitution2: "'numr' Numerators lookup 22 subtable" nine.numr
Substitution2: "'smcp' Lowercase to Small Capitals lookup 18 subtable" nine.sc
AlternateSubs2: "'aalt' Access All Alternates lookup 1 subtable" nine.sc nine.numr nine.dnom nine.sups nine.subs nine.pnum nine.tnum
EndChar
StartChar: less
Encoding: 60 60 1754
Width: 472
Flags: MW
HStem: 152 360<438 438>
VStem: 34 32<330 334 330 350 330 350>
LayerCount: 2
Fore
SplineSet
438 152 m 1
 34 314 l 1
 34 350 l 1
 438 512 l 1
 438 480 l 1
 198 386 l 1
 66 334 l 1
 66 330 l 1
 198 278 l 1
 438 184 l 1
 438 152 l 1
EndSplineSet
EndChar
StartChar: at
Encoding: 64 64 1213
Width: 802
Flags: MW
HStem: -142 28<293 416> 58 28<546 606 542 612> 64 28<333 373 333 377> 392 28<377 440> 600 28<348 525>
VStem: 52 30<107 324 107 331> 242 30<160 244 160 245> 478 25 720 30<241 402>
LayerCount: 2
Fore
SplineSet
382 -142 m 0xdf80
 190 -142 52 -14 52 202 c 0
 52 460 236 628 442 628 c 0
 632 628 750 504 750 316 c 0
 750 148 652 58 572 58 c 0xdf80
 520 58 482 82 478 134 c 1
 476 134 l 1
 440 96 400 64 354 64 c 0xbf80
 294 64 242 108 242 198 c 0
 242 292 308 420 426 420 c 0
 462 420 490 404 510 372 c 1
 512 372 l 1
 520 412 l 1
 546 412 l 1
 512 228 l 1
 488 132 510 86 574 86 c 0
 638 86 720 168 720 314 c 0
 720 490 610 600 440 600 c 0
 256 600 82 444 82 204 c 0
 82 10 202 -114 384 -114 c 0
 452 -114 506 -94 554 -64 c 1
 568 -88 l 1
 512 -124 450 -142 382 -142 c 0xdf80
356 92 m 0xbf80
 390 92 428 114 470 162 c 1
 502 340 l 1
 476 380 456 392 424 392 c 0
 330 392 272 288 272 200 c 0
 272 120 310 92 356 92 c 0xbf80
EndSplineSet
Substitution2: "'case' Case-Sensitive Forms lookup 35 subtable" at.case
Substitution2: "'aalt' Access All Alternates lookup 0 subtable" at.case
EndChar
StartChar: H
Encoding: 72 72 9
Width: 634
GlyphClass: 2
Flags: MW
HStem: 0 21G<100 100 100 132 502 502 502 534> 338 28<132 502 132 502> 640 20G<100 132 132 132 502 534 534 534>
VStem: 100 32<0 338 366 660> 502 32<0 338 338 338 366 660 0 660>
AnchorPoint: "Anchor-4" 316 -22 basechar 0
AnchorPoint: "Anchor-1" 316 682 basechar 0
LayerCount: 2
Fore
SplineSet
100 0 m 1
 100 660 l 1
 132 660 l 1
 132 366 l 1
 502 366 l 1
 502 660 l 1
 534 660 l 1
 534 0 l 1
 502 0 l 1
 502 338 l 1
 132 338 l 1
 132 0 l 1
 100 0 l 1
EndSplineSet
Substitution2: "'sups' Superscript lookup 27 subtable" H.sups
Substitution2: "'c2sc' Capitals to Small Capitals lookup 17 subtable" H.sc
AlternateSubs2: "'aalt' Access All Alternates lookup 1 subtable" H.sc H.sups
PairPos2: "'kern' Horizontal Kerning lookup 10 per glyph data 5" uni1E52.sc dx=0 dy=0 dh=24 dv=0 dx=0 dy=0 dh=0 dv=0
PairPos2: "'kern' Horizontal Kerning lookup 10 per glyph data 5" uni014E.sc dx=0 dy=0 dh=24 dv=0 dx=0 dy=0 dh=0 dv=0
PairPos2: "'kern' Horizontal Kerning lookup 10 per glyph data 5" uni01EA.sc dx=0 dy=0 dh=24 dv=0 dx=0 dy=0 dh=0 dv=0
PairPos2: "'kern' Horizontal Kerning lookup 10 per glyph data 5" uni1EE2.sc dx=0 dy=0 dh=24 dv=0 dx=0 dy=0 dh=0 dv=0
PairPos2: "'kern' Horizontal Kerning lookup 10 per glyph data 5" uni1EE0.sc dx=0 dy=0 dh=24 dv=0 dx=0 dy=0 dh=0 dv=0
PairPos2: "'kern' Horizontal Kerning lookup 10 per glyph data 5" uni1EDE.sc dx=0 dy=0 dh=24 dv=0 dx=0 dy=0 dh=0 dv=0
PairPos2: "'kern' Horizontal Kerning lookup 10 per glyph data 5" uni1EDC.sc dx=0 dy=0 dh=24 dv=0 dx=0 dy=0 dh=0 dv=0
PairPos2: "'kern' Horizontal Kerning lookup 10 per glyph data 5" uni1EDA.sc dx=0 dy=0 dh=24 dv=0 dx=0 dy=0 dh=0 dv=0
PairPos2: "'kern' Horizontal Kerning lookup 10 per glyph data 5" Ohorn.sc dx=0 dy=0 dh=24 dv=0 dx=0 dy=0 dh=0 dv=0
PairPos2: "'kern' Horizontal Kerning lookup 10 per glyph data 5" OE.sc dx=0 dy=0 dh=24 dv=0 dx=0 dy=0 dh=0 dv=0
PairPos2: "'kern' Horizontal Kerning lookup 10 per glyph data 5" Oslash.sc dx=0 dy=0 dh=24 dv=0 dx=0 dy=0 dh=0 dv=0
PairPos2: "'kern' Horizontal Kerning lookup 10 per glyph data 5" uni1ED8.sc dx=0 dy=0 dh=24 dv=0 dx=0 dy=0 dh=0 dv=0
PairPos2: "'kern' Horizontal Kerning lookup 10 per glyph data 5" uni1ED6.sc dx=0 dy=0 dh=24 dv=0 dx=0 dy=0 dh=0 dv=0
PairPos2: "'kern' Horizontal Kerning lookup 10 per glyph data 5" uni1ED4.sc dx=0 dy=0 dh=24 dv=0 dx=0 dy=0 dh=0 dv=0
PairPos2: "'kern' Horizontal Kerning lookup 10 per glyph data 5" uni1ED2.sc dx=0 dy=0 dh=24 dv=0 dx=0 dy=0 dh=0 dv=0
PairPos2: "'kern' Horizontal Kerning lookup 10 per glyph data 5" uni1ED0.sc dx=0 dy=0 dh=24 dv=0 dx=0 dy=0 dh=0 dv=0
PairPos2: "'kern' Horizontal Kerning lookup 10 per glyph data 5" uni1ECE.sc dx=0 dy=0 dh=24 dv=0 dx=0 dy=0 dh=0 dv=0
PairPos2: "'kern' Horizontal Kerning lookup 10 per glyph data 5" uni1ECC.sc dx=0 dy=0 dh=24 dv=0 dx=0 dy=0 dh=0 dv=0
PairPos2: "'kern' Horizontal Kerning lookup 10 per glyph data 5" uni01D1.sc dx=0 dy=0 dh=24 dv=0 dx=0 dy=0 dh=0 dv=0
PairPos2: "'kern' Horizontal Kerning lookup 10 per glyph data 5" Ohungarumlaut.sc dx=0 dy=0 dh=24 dv=0 dx=0 dy=0 dh=0 dv=0
PairPos2: "'kern' Horizontal Kerning lookup 10 per glyph data 5" Omacron.sc dx=0 dy=0 dh=24 dv=0 dx=0 dy=0 dh=0 dv=0
PairPos2: "'kern' Horizontal Kerning lookup 10 per glyph data 5" Odieresis.sc dx=0 dy=0 dh=24 dv=0 dx=0 dy=0 dh=0 dv=0
PairPos2: "'kern' Horizontal Kerning lookup 10 per glyph data 5" Otilde.sc dx=0 dy=0 dh=24 dv=0 dx=0 dy=0 dh=0 dv=0
PairPos2: "'kern' Horizontal Kerning lookup 10 per glyph data 5" Ocircumflex.sc dx=0 dy=0 dh=24 dv=0 dx=0 dy=0 dh=0 dv=0
PairPos2: "'kern' Horizontal Kerning lookup 10 per glyph data 5" Oacute.sc dx=0 dy=0 dh=24 dv=0 dx=0 dy=0 dh=0 dv=0
PairPos2: "'kern' Horizontal Kerning lookup 10 per glyph data 5" Ograve.sc dx=0 dy=0 dh=24 dv=0 dx=0 dy=0 dh=0 dv=0
PairPos2: "'kern' Horizontal Kerning lookup 10 per glyph data 5" uni0193.sc dx=0 dy=0 dh=24 dv=0 dx=0 dy=0 dh=0 dv=0
PairPos2: "'kern' Horizontal Kerning lookup 10 per glyph data 5" uni00470303.sc dx=0 dy=0 dh=24 dv=0 dx=0 dy=0 dh=0 dv=0
PairPos2: "'kern' Horizontal Kerning lookup 10 per glyph data 5" uni1E20.sc dx=0 dy=0 dh=24 dv=0 dx=0 dy=0 dh=0 dv=0
PairPos2: "'kern' Horizontal Kerning lookup 10 per glyph data 5" Gcaron.sc dx=0 dy=0 dh=24 dv=0 dx=0 dy=0 dh=0 dv=0
PairPos2: "'kern' Horizontal Kerning lookup 10 per glyph data 5" uni0122.sc dx=0 dy=0 dh=24 dv=0 dx=0 dy=0 dh=0 dv=0
PairPos2: "'kern' Horizontal Kerning lookup 10 per glyph data 5" Gdotaccent.sc dx=0 dy=0 dh=24 dv=0 dx=0 dy=0 dh=0 dv=0
PairPos2: "'kern' Horizontal Kerning lookup 10 per glyph data 5" Gbreve.sc dx=0 dy=0 dh=24 dv=0 dx=0 dy=0 dh=0 dv=0
PairPos2: "'kern' Horizontal Kerning lookup 10 per glyph data 5" Gcircumflex.sc dx=0 dy=0 dh=24 dv=0 dx=0 dy=0 dh=0 dv=0
PairPos2: "'kern' Horizontal Kerning lookup 10 per glyph data 5" uni01F4.sc dx=0 dy=0 dh=24 dv=0 dx=0 dy=0 dh=0 dv=0
PairPos2: "'kern' Horizontal Kerning lookup 10 per glyph data 5" Cdotaccent.sc dx=0 dy=0 dh=24 dv=0 dx=0 dy=0 dh=0 dv=0
PairPos2: "'kern' Horizontal Kerning lookup 10 per glyph data 5" Ccaron.sc dx=0 dy=0 dh=24 dv=0 dx=0 dy=0 dh=0 dv=0
PairPos2: "'kern' Horizontal Kerning lookup 10 per glyph data 5" Ccircumflex.sc dx=0 dy=0 dh=24 dv=0 dx=0 dy=0 dh=0 dv=0
PairPos2: "'kern' Horizontal Kerning lookup 10 per glyph data 5" Cacute.sc dx=0 dy=0 dh=24 dv=0 dx=0 dy=0 dh=0 dv=0
PairPos2: "'kern' Horizontal Kerning lookup 10 per glyph data 5" Ccedilla.sc dx=0 dy=0 dh=24 dv=0 dx=0 dy=0 dh=0 dv=0
PairPos2: "'kern' Horizontal Kerning lookup 10 per glyph data 5" Q.sc dx=0 dy=0 dh=24 dv=0 dx=0 dy=0 dh=0 dv=0
PairPos2: "'kern' Horizontal Kerning lookup 10 per glyph data 5" O.sc dx=0 dy=0 dh=24 dv=0 dx=0 dy=0 dh=0 dv=0
PairPos2: "'kern' Horizontal Kerning lookup 10 per glyph data 5" G.sc dx=0 dy=0 dh=24 dv=0 dx=0 dy=0 dh=0 dv=0
PairPos2: "'kern' Horizontal Kerning lookup 10 per glyph data 5" C.sc dx=0 dy=0 dh=24 dv=0 dx=0 dy=0 dh=0 dv=0
PairPos2: "'kern' Horizontal Kerning lookup 10 per glyph data 5" uni1E94.sc dx=0 dy=0 dh=15 dv=0 dx=0 dy=0 dh=0 dv=0
PairPos2: "'kern' Horizontal Kerning lookup 10 per glyph data 5" uni1E92.sc dx=0 dy=0 dh=15 dv=0 dx=0 dy=0 dh=0 dv=0
PairPos2: "'kern' Horizontal Kerning lookup 10 per glyph data 5" Zdotaccent.sc dx=0 dy=0 dh=15 dv=0 dx=0 dy=0 dh=0 dv=0
PairPos2: "'kern' Horizontal Kerning lookup 10 per glyph data 5" Zcaron.sc dx=0 dy=0 dh=15 dv=0 dx=0 dy=0 dh=0 dv=0
PairPos2: "'kern' Horizontal Kerning lookup 10 per glyph data 5" Zacute.sc dx=0 dy=0 dh=15 dv=0 dx=0 dy=0 dh=0 dv=0
PairPos2: "'kern' Horizontal Kerning lookup 10 per glyph data 5" Z.sc dx=0 dy=0 dh=15 dv=0 dx=0 dy=0 dh=0 dv=0
PairPos2: "'kern' Horizontal Kerning lookup 10 per glyph data 5" uni1EF8.sc dx=0 dy=0 dh=45 dv=0 dx=0 dy=0 dh=0 dv=0
PairPos2: "'kern' Horizontal Kerning lookup 10 per glyph data 5" uni1EF6.sc dx=0 dy=0 dh=45 dv=0 dx=0 dy=0 dh=0 dv=0
PairPos2: "'kern' Horizontal Kerning lookup 10 per glyph data 5" uni1EF4.sc dx=0 dy=0 dh=45 dv=0 dx=0 dy=0 dh=0 dv=0
PairPos2: "'kern' Horizontal Kerning lookup 10 per glyph data 5" uni1E8E.sc dx=0 dy=0 dh=45 dv=0 dx=0 dy=0 dh=0 dv=0
PairPos2: "'kern' Horizontal Kerning lookup 10 per glyph data 5" Ydieresis.sc dx=0 dy=0 dh=45 dv=0 dx=0 dy=0 dh=0 dv=0
PairPos2: "'kern' Horizontal Kerning lookup 10 per glyph data 5" Ycircumflex.sc dx=0 dy=0 dh=45 dv=0 dx=0 dy=0 dh=0 dv=0
PairPos2: "'kern' Horizontal Kerning lookup 10 per glyph data 5" Yacute.sc dx=0 dy=0 dh=45 dv=0 dx=0 dy=0 dh=0 dv=0
PairPos2: "'kern' Horizontal Kerning lookup 10 per glyph data 5" Ygrave.sc dx=0 dy=0 dh=45 dv=0 dx=0 dy=0 dh=0 dv=0
PairPos2: "'kern' Horizontal Kerning lookup 10 per glyph data 5" Y.sc dx=0 dy=0 dh=45 dv=0 dx=0 dy=0 dh=0 dv=0
PairPos2: "'kern' Horizontal Kerning lookup 10 per glyph data 5" X.sc dx=0 dy=0 dh=36 dv=0 dx=0 dy=0 dh=0 dv=0
PairPos2: "'kern' Horizontal Kerning lookup 10 per glyph data 5" Wdieresis.sc dx=0 dy=0 dh=20 dv=0 dx=0 dy=0 dh=0 dv=0
PairPos2: "'kern' Horizontal Kerning lookup 10 per glyph data 5" Wcircumflex.sc dx=0 dy=0 dh=20 dv=0 dx=0 dy=0 dh=0 dv=0
PairPos2: "'kern' Horizontal Kerning lookup 10 per glyph data 5" Wacute.sc dx=0 dy=0 dh=20 dv=0 dx=0 dy=0 dh=0 dv=0
PairPos2: "'kern' Horizontal Kerning lookup 10 per glyph data 5" Wgrave.sc dx=0 dy=0 dh=20 dv=0 dx=0 dy=0 dh=0 dv=0
PairPos2: "'kern' Horizontal Kerning lookup 10 per glyph data 5" W.sc dx=0 dy=0 dh=20 dv=0 dx=0 dy=0 dh=0 dv=0
PairPos2: "'kern' Horizontal Kerning lookup 10 per glyph data 5" V.sc dx=0 dy=0 dh=30 dv=0 dx=0 dy=0 dh=0 dv=0
PairPos2: "'kern' Horizontal Kerning lookup 10 per glyph data 5" uni1EF0.sc dx=0 dy=0 dh=20 dv=0 dx=0 dy=0 dh=0 dv=0
PairPos2: "'kern' Horizontal Kerning lookup 10 per glyph data 5" uni1EEE.sc dx=0 dy=0 dh=20 dv=0 dx=0 dy=0 dh=0 dv=0
PairPos2: "'kern' Horizontal Kerning lookup 10 per glyph data 5" uni1EEC.sc dx=0 dy=0 dh=20 dv=0 dx=0 dy=0 dh=0 dv=0
PairPos2: "'kern' Horizontal Kerning lookup 10 per glyph data 5" uni1EEA.sc dx=0 dy=0 dh=20 dv=0 dx=0 dy=0 dh=0 dv=0
PairPos2: "'kern' Horizontal Kerning lookup 10 per glyph data 5" uni1EE8.sc dx=0 dy=0 dh=20 dv=0 dx=0 dy=0 dh=0 dv=0
PairPos2: "'kern' Horizontal Kerning lookup 10 per glyph data 5" Uhorn.sc dx=0 dy=0 dh=20 dv=0 dx=0 dy=0 dh=0 dv=0
PairPos2: "'kern' Horizontal Kerning lookup 10 per glyph data 5" Uogonek.sc dx=0 dy=0 dh=20 dv=0 dx=0 dy=0 dh=0 dv=0
PairPos2: "'kern' Horizontal Kerning lookup 10 per glyph data 5" uni1EE6.sc dx=0 dy=0 dh=20 dv=0 dx=0 dy=0 dh=0 dv=0
PairPos2: "'kern' Horizontal Kerning lookup 10 per glyph data 5" uni1EE4.sc dx=0 dy=0 dh=20 dv=0 dx=0 dy=0 dh=0 dv=0
PairPos2: "'kern' Horizontal Kerning lookup 10 per glyph data 5" uni01DB.sc dx=0 dy=0 dh=20 dv=0 dx=0 dy=0 dh=0 dv=0
PairPos2: "'kern' Horizontal Kerning lookup 10 per glyph data 5" uni01D9.sc dx=0 dy=0 dh=20 dv=0 dx=0 dy=0 dh=0 dv=0
PairPos2: "'kern' Horizontal Kerning lookup 10 per glyph data 5" uni01D7.sc dx=0 dy=0 dh=20 dv=0 dx=0 dy=0 dh=0 dv=0
PairPos2: "'kern' Horizontal Kerning lookup 10 per glyph data 5" uni01D5.sc dx=0 dy=0 dh=20 dv=0 dx=0 dy=0 dh=0 dv=0
PairPos2: "'kern' Horizontal Kerning lookup 10 per glyph data 5" uni01D3.sc dx=0 dy=0 dh=20 dv=0 dx=0 dy=0 dh=0 dv=0
PairPos2: "'kern' Horizontal Kerning lookup 10 per glyph data 5" Uhungarumlaut.sc dx=0 dy=0 dh=20 dv=0 dx=0 dy=0 dh=0 dv=0
PairPos2: "'kern' Horizontal Kerning lookup 10 per glyph data 5" Uring.sc dx=0 dy=0 dh=20 dv=0 dx=0 dy=0 dh=0 dv=0
PairPos2: "'kern' Horizontal Kerning lookup 10 per glyph data 5" Ubreve.sc dx=0 dy=0 dh=20 dv=0 dx=0 dy=0 dh=0 dv=0
PairPos2: "'kern' Horizontal Kerning lookup 10 per glyph data 5" Umacron.sc dx=0 dy=0 dh=20 dv=0 dx=0 dy=0 dh=0 dv=0
PairPos2: "'kern' Horizontal Kerning lookup 10 per glyph data 5" Udieresis.sc dx=0 dy=0 dh=20 dv=0 dx=0 dy=0 dh=0 dv=0
PairPos2: "'kern' Horizontal Kerning lookup 10 per glyph data 5" Utilde.sc dx=0 dy=0 dh=20 dv=0 dx=0 dy=0 dh=0 dv=0
PairPos2: "'kern' Horizontal Kerning lookup 10 per glyph data 5" Ucircumflex.sc dx=0 dy=0 dh=20 dv=0 dx=0 dy=0 dh=0 dv=0
PairPos2: "'kern' Horizontal Kerning lookup 10 per glyph data 5" Uacute.sc dx=0 dy=0 dh=20 dv=0 dx=0 dy=0 dh=0 dv=0
PairPos2: "'kern' Horizontal Kerning lookup 10 per glyph data 5" Ugrave.sc dx=0 dy=0 dh=20 dv=0 dx=0 dy=0 dh=0 dv=0
PairPos2: "'kern' Horizontal Kerning lookup 10 per glyph data 5" U.sc dx=0 dy=0 dh=20 dv=0 dx=0 dy=0 dh=0 dv=0
PairPos2: "'kern' Horizontal Kerning lookup 10 per glyph data 5" uni0166.sc dx=0 dy=0 dh=20 dv=0 dx=0 dy=0 dh=0 dv=0
PairPos2: "'kern' Horizontal Kerning lookup 10 per glyph data 5" uni1E6E.sc dx=0 dy=0 dh=20 dv=0 dx=0 dy=0 dh=0 dv=0
PairPos2: "'kern' Horizontal Kerning lookup 10 per glyph data 5" uni1E6C.sc dx=0 dy=0 dh=20 dv=0 dx=0 dy=0 dh=0 dv=0
PairPos2: "'kern' Horizontal Kerning lookup 10 per glyph data 5" uni021A.sc dx=0 dy=0 dh=20 dv=0 dx=0 dy=0 dh=0 dv=0
PairPos2: "'kern' Horizontal Kerning lookup 10 per glyph data 5" uni0162.sc dx=0 dy=0 dh=20 dv=0 dx=0 dy=0 dh=0 dv=0
PairPos2: "'kern' Horizontal Kerning lookup 10 per glyph data 5" Tcaron.sc dx=0 dy=0 dh=20 dv=0 dx=0 dy=0 dh=0 dv=0
PairPos2: "'kern' Horizontal Kerning lookup 10 per glyph data 5" T.sc dx=0 dy=0 dh=20 dv=0 dx=0 dy=0 dh=0 dv=0
PairPos2: "'kern' Horizontal Kerning lookup 10 per glyph data 5" germandbls.sc dx=0 dy=0 dh=10 dv=0 dx=0 dy=0 dh=0 dv=0
PairPos2: "'kern' Horizontal Kerning lookup 10 per glyph data 5" uni1E62.sc dx=0 dy=0 dh=10 dv=0 dx=0 dy=0 dh=0 dv=0
PairPos2: "'kern' Horizontal Kerning lookup 10 per glyph data 5" uni1E60.sc dx=0 dy=0 dh=10 dv=0 dx=0 dy=0 dh=0 dv=0
PairPos2: "'kern' Horizontal Kerning lookup 10 per glyph data 5" uni0218.sc dx=0 dy=0 dh=10 dv=0 dx=0 dy=0 dh=0 dv=0
PairPos2: "'kern' Horizontal Kerning lookup 10 per glyph data 5" uni015E.sc dx=0 dy=0 dh=10 dv=0 dx=0 dy=0 dh=0 dv=0
PairPos2: "'kern' Horizontal Kerning lookup 10 per glyph data 5" Scaron.sc dx=0 dy=0 dh=10 dv=0 dx=0 dy=0 dh=0 dv=0
PairPos2: "'kern' Horizontal Kerning lookup 10 per glyph data 5" Scircumflex.sc dx=0 dy=0 dh=10 dv=0 dx=0 dy=0 dh=0 dv=0
PairPos2: "'kern' Horizontal Kerning lookup 10 per glyph data 5" Sacute.sc dx=0 dy=0 dh=10 dv=0 dx=0 dy=0 dh=0 dv=0
PairPos2: "'kern' Horizontal Kerning lookup 10 per glyph data 5" S.sc dx=0 dy=0 dh=10 dv=0 dx=0 dy=0 dh=0 dv=0
EndChar
StartChar: X
Encoding: 88 88 25
Width: 470
GlyphClass: 2
Flags: MW
HStem: 0 21G<18 18 18 50 418 418 418 452> 640 20G<32 66 66 66 406 438 438 438>
VStem: 18 434<0 0>
AnchorPoint: "Anchor-4" 234 -22 basechar 0
AnchorPoint: "Anchor-1" 236 682 basechar 0
LayerCount: 2
Fore
SplineSet
18 0 m 1
 218 342 l 1
 32 660 l 1
 66 660 l 1
 182 456 l 2
 200 426 214 404 236 368 c 1
 240 368 l 1
 260 404 272 426 290 456 c 2
 406 660 l 1
 438 660 l 1
 252 340 l 1
 452 0 l 1
 418 0 l 1
 296 212 l 2
 278 244 258 276 234 316 c 1
 230 316 l 1
 208 276 190 244 172 212 c 2
 50 0 l 1
 18 0 l 1
EndSplineSet
Substitution2: "'sups' Superscript lookup 27 subtable" X.sups
Substitution2: "'c2sc' Capitals to Small Capitals lookup 17 subtable" X.sc
AlternateSubs2: "'aalt' Access All Alternates lookup 1 subtable" X.sc X.sups
PairPos2: "'kern' Horizontal Kerning lookup 10 per glyph data 5" uni014A.sca dx=0 dy=0 dh=10 dv=0 dx=0 dy=0 dh=0 dv=0
PairPos2: "'kern' Horizontal Kerning lookup 10 per glyph data 5" uni0132.sc dx=0 dy=0 dh=10 dv=0 dx=0 dy=0 dh=0 dv=0
PairPos2: "'kern' Horizontal Kerning lookup 10 per glyph data 5" uni014A.sc dx=0 dy=0 dh=10 dv=0 dx=0 dy=0 dh=0 dv=0
PairPos2: "'kern' Horizontal Kerning lookup 10 per glyph data 5" Thorn.sc dx=0 dy=0 dh=10 dv=0 dx=0 dy=0 dh=0 dv=0
PairPos2: "'kern' Horizontal Kerning lookup 10 per glyph data 5" uni1E5E.sc dx=0 dy=0 dh=10 dv=0 dx=0 dy=0 dh=0 dv=0
PairPos2: "'kern' Horizontal Kerning lookup 10 per glyph data 5" uni1E5C.sc dx=0 dy=0 dh=10 dv=0 dx=0 dy=0 dh=0 dv=0
PairPos2: "'kern' Horizontal Kerning lookup 10 per glyph data 5" uni1E5A.sc dx=0 dy=0 dh=10 dv=0 dx=0 dy=0 dh=0 dv=0
PairPos2: "'kern' Horizontal Kerning lookup 10 per glyph data 5" uni0156.sc dx=0 dy=0 dh=10 dv=0 dx=0 dy=0 dh=0 dv=0
PairPos2: "'kern' Horizontal Kerning lookup 10 per glyph data 5" Rcaron.sc dx=0 dy=0 dh=10 dv=0 dx=0 dy=0 dh=0 dv=0
PairPos2: "'kern' Horizontal Kerning lookup 10 per glyph data 5" uni1E58.sc dx=0 dy=0 dh=10 dv=0 dx=0 dy=0 dh=0 dv=0
PairPos2: "'kern' Horizontal Kerning lookup 10 per glyph data 5" Racute.sc dx=0 dy=0 dh=10 dv=0 dx=0 dy=0 dh=0 dv=0
PairPos2: "'kern' Horizontal Kerning lookup 10 per glyph data 5" uni1E48.sc dx=0 dy=0 dh=10 dv=0 dx=0 dy=0 dh=0 dv=0
PairPos2: "'kern' Horizontal Kerning lookup 10 per glyph data 5" uni1E46.sc dx=0 dy=0 dh=10 dv=0 dx=0 dy=0 dh=0 dv=0
PairPos2: "'kern' Horizontal Kerning lookup 10 per glyph data 5" uni1E44.sc dx=0 dy=0 dh=10 dv=0 dx=0 dy=0 dh=0 dv=0
PairPos2: "'kern' Horizontal Kerning lookup 10 per glyph data 5" uni0145.sc dx=0 dy=0 dh=10 dv=0 dx=0 dy=0 dh=0 dv=0
PairPos2: "'kern' Horizontal Kerning lookup 10 per glyph data 5" Ntilde.sc dx=0 dy=0 dh=10 dv=0 dx=0 dy=0 dh=0 dv=0
PairPos2: "'kern' Horizontal Kerning lookup 10 per glyph data 5" Ncaron.sc dx=0 dy=0 dh=10 dv=0 dx=0 dy=0 dh=0 dv=0
PairPos2: "'kern' Horizontal Kerning lookup 10 per glyph data 5" uni01F8.sc dx=0 dy=0 dh=10 dv=0 dx=0 dy=0 dh=0 dv=0
PairPos2: "'kern' Horizontal Kerning lookup 10 per glyph data 5" Nacute.sc dx=0 dy=0 dh=10 dv=0 dx=0 dy=0 dh=0 dv=0
PairPos2: "'kern' Horizontal Kerning lookup 10 per glyph data 5" uni1E42.sc dx=0 dy=0 dh=10 dv=0 dx=0 dy=0 dh=0 dv=0
PairPos2: "'kern' Horizontal Kerning lookup 10 per glyph data 5" uni1E40.sc dx=0 dy=0 dh=10 dv=0 dx=0 dy=0 dh=0 dv=0
PairPos2: "'kern' Horizontal Kerning lookup 10 per glyph data 5" uni1E3E.sc dx=0 dy=0 dh=10 dv=0 dx=0 dy=0 dh=0 dv=0
PairPos2: "'kern' Horizontal Kerning lookup 10 per glyph data 5" uni1E3A.sc dx=0 dy=0 dh=10 dv=0 dx=0 dy=0 dh=0 dv=0
PairPos2: "'kern' Horizontal Kerning lookup 10 per glyph data 5" uni1E38.sc dx=0 dy=0 dh=10 dv=0 dx=0 dy=0 dh=0 dv=0
PairPos2: "'kern' Horizontal Kerning lookup 10 per glyph data 5" uni1E36.sc dx=0 dy=0 dh=10 dv=0 dx=0 dy=0 dh=0 dv=0
PairPos2: "'kern' Horizontal Kerning lookup 10 per glyph data 5" Ldot.sc dx=0 dy=0 dh=10 dv=0 dx=0 dy=0 dh=0 dv=0
PairPos2: "'kern' Horizontal Kerning lookup 10 per glyph data 5" uni013B.sc dx=0 dy=0 dh=10 dv=0 dx=0 dy=0 dh=0 dv=0
PairPos2: "'kern' Horizontal Kerning lookup 10 per glyph data 5" Lcaron.sc dx=0 dy=0 dh=10 dv=0 dx=0 dy=0 dh=0 dv=0
PairPos2: "'kern' Horizontal Kerning lookup 10 per glyph data 5" Lacute.sc dx=0 dy=0 dh=10 dv=0 dx=0 dy=0 dh=0 dv=0
PairPos2: "'kern' Horizontal Kerning lookup 10 per glyph data 5" uni1E34.sc dx=0 dy=0 dh=10 dv=0 dx=0 dy=0 dh=0 dv=0
PairPos2: "'kern' Horizontal Kerning lookup 10 per glyph data 5" uni1E32.sc dx=0 dy=0 dh=10 dv=0 dx=0 dy=0 dh=0 dv=0
PairPos2: "'kern' Horizontal Kerning lookup 10 per glyph data 5" uni0136.sc dx=0 dy=0 dh=10 dv=0 dx=0 dy=0 dh=0 dv=0
PairPos2: "'kern' Horizontal Kerning lookup 10 per glyph data 5" uni1E2A.sc dx=0 dy=0 dh=10 dv=0 dx=0 dy=0 dh=0 dv=0
PairPos2: "'kern' Horizontal Kerning lookup 10 per glyph data 5" uni1E24.sc dx=0 dy=0 dh=10 dv=0 dx=0 dy=0 dh=0 dv=0
PairPos2: "'kern' Horizontal Kerning lookup 10 per glyph data 5" Hcircumflex.sc dx=0 dy=0 dh=10 dv=0 dx=0 dy=0 dh=0 dv=0
PairPos2: "'kern' Horizontal Kerning lookup 10 per glyph data 5" uni1E16.sc dx=0 dy=0 dh=10 dv=0 dx=0 dy=0 dh=0 dv=0
PairPos2: "'kern' Horizontal Kerning lookup 10 per glyph data 5" Eogonek.sc dx=0 dy=0 dh=10 dv=0 dx=0 dy=0 dh=0 dv=0
PairPos2: "'kern' Horizontal Kerning lookup 10 per glyph data 5" uni1EC6.sc dx=0 dy=0 dh=10 dv=0 dx=0 dy=0 dh=0 dv=0
PairPos2: "'kern' Horizontal Kerning lookup 10 per glyph data 5" uni1EC4.sc dx=0 dy=0 dh=10 dv=0 dx=0 dy=0 dh=0 dv=0
PairPos2: "'kern' Horizontal Kerning lookup 10 per glyph data 5" uni1EC2.sc dx=0 dy=0 dh=10 dv=0 dx=0 dy=0 dh=0 dv=0
PairPos2: "'kern' Horizontal Kerning lookup 10 per glyph data 5" uni1EC0.sc dx=0 dy=0 dh=10 dv=0 dx=0 dy=0 dh=0 dv=0
PairPos2: "'kern' Horizontal Kerning lookup 10 per glyph data 5" uni1EBE.sc dx=0 dy=0 dh=10 dv=0 dx=0 dy=0 dh=0 dv=0
PairPos2: "'kern' Horizontal Kerning lookup 10 per glyph data 5" uni1EBC.sc dx=0 dy=0 dh=10 dv=0 dx=0 dy=0 dh=0 dv=0
PairPos2: "'kern' Horizontal Kerning lookup 10 per glyph data 5" uni1EBA.sc dx=0 dy=0 dh=10 dv=0 dx=0 dy=0 dh=0 dv=0
PairPos2: "'kern' Horizontal Kerning lookup 10 per glyph data 5" uni1EB8.sc dx=0 dy=0 dh=10 dv=0 dx=0 dy=0 dh=0 dv=0
PairPos2: "'kern' Horizontal Kerning lookup 10 per glyph data 5" Edotaccent.sc dx=0 dy=0 dh=10 dv=0 dx=0 dy=0 dh=0 dv=0
PairPos2: "'kern' Horizontal Kerning lookup 10 per glyph data 5" Ebreve.sc dx=0 dy=0 dh=10 dv=0 dx=0 dy=0 dh=0 dv=0
PairPos2: "'kern' Horizontal Kerning lookup 10 per glyph data 5" Emacron.sc dx=0 dy=0 dh=10 dv=0 dx=0 dy=0 dh=0 dv=0
PairPos2: "'kern' Horizontal Kerning lookup 10 per glyph data 5" Edieresis.sc dx=0 dy=0 dh=10 dv=0 dx=0 dy=0 dh=0 dv=0
PairPos2: "'kern' Horizontal Kerning lookup 10 per glyph data 5" Ecaron.sc dx=0 dy=0 dh=10 dv=0 dx=0 dy=0 dh=0 dv=0
PairPos2: "'kern' Horizontal Kerning lookup 10 per glyph data 5" Ecircumflex.sc dx=0 dy=0 dh=10 dv=0 dx=0 dy=0 dh=0 dv=0
PairPos2: "'kern' Horizontal Kerning lookup 10 per glyph data 5" Eacute.sc dx=0 dy=0 dh=10 dv=0 dx=0 dy=0 dh=0 dv=0
PairPos2: "'kern' Horizontal Kerning lookup 10 per glyph data 5" Egrave.sc dx=0 dy=0 dh=10 dv=0 dx=0 dy=0 dh=0 dv=0
PairPos2: "'kern' Horizontal Kerning lookup 10 per glyph data 5" uni1E0E.sc dx=0 dy=0 dh=10 dv=0 dx=0 dy=0 dh=0 dv=0
PairPos2: "'kern' Horizontal Kerning lookup 10 per glyph data 5" uni1E0C.sc dx=0 dy=0 dh=10 dv=0 dx=0 dy=0 dh=0 dv=0
PairPos2: "'kern' Horizontal Kerning lookup 10 per glyph data 5" Dcaron.sc dx=0 dy=0 dh=10 dv=0 dx=0 dy=0 dh=0 dv=0
PairPos2: "'kern' Horizontal Kerning lookup 10 per glyph data 5" uni1E06.sc dx=0 dy=0 dh=10 dv=0 dx=0 dy=0 dh=0 dv=0
PairPos2: "'kern' Horizontal Kerning lookup 10 per glyph data 5" R.sc dx=0 dy=0 dh=10 dv=0 dx=0 dy=0 dh=0 dv=0
PairPos2: "'kern' Horizontal Kerning lookup 10 per glyph data 5" P.sc dx=0 dy=0 dh=10 dv=0 dx=0 dy=0 dh=0 dv=0
PairPos2: "'kern' Horizontal Kerning lookup 10 per glyph data 5" N.sc dx=0 dy=0 dh=10 dv=0 dx=0 dy=0 dh=0 dv=0
PairPos2: "'kern' Horizontal Kerning lookup 10 per glyph data 5" M.sc dx=0 dy=0 dh=10 dv=0 dx=0 dy=0 dh=0 dv=0
PairPos2: "'kern' Horizontal Kerning lookup 10 per glyph data 5" L.sc dx=0 dy=0 dh=10 dv=0 dx=0 dy=0 dh=0 dv=0
PairPos2: "'kern' Horizontal Kerning lookup 10 per glyph data 5" K.sc dx=0 dy=0 dh=10 dv=0 dx=0 dy=0 dh=0 dv=0
PairPos2: "'kern' Horizontal Kerning lookup 10 per glyph data 5" H.sc dx=0 dy=0 dh=10 dv=0 dx=0 dy=0 dh=0 dv=0
PairPos2: "'kern' Horizontal Kerning lookup 10 per glyph data 5" F.sc dx=0 dy=0 dh=10 dv=0 dx=0 dy=0 dh=0 dv=0
PairPos2: "'kern' Horizontal Kerning lookup 10 per glyph data 5" E.sc dx=0 dy=0 dh=10 dv=0 dx=0 dy=0 dh=0 dv=0
PairPos2: "'kern' Horizontal Kerning lookup 10 per glyph data 5" D.sc dx=0 dy=0 dh=10 dv=0 dx=0 dy=0 dh=0 dv=0
PairPos2: "'kern' Horizontal Kerning lookup 10 per glyph data 5" B.sc dx=0 dy=0 dh=10 dv=0 dx=0 dy=0 dh=0 dv=0
PairPos2: "'kern' Horizontal Kerning lookup 10 per glyph data 5" guillemotright dx=0 dy=0 dh=-10 dv=0 dx=0 dy=0 dh=0 dv=0
PairPos2: "'kern' Horizontal Kerning lookup 10 per glyph data 5" guilsinglright dx=0 dy=0 dh=-10 dv=0 dx=0 dy=0 dh=0 dv=0
PairPos2: "'kern' Horizontal Kerning lookup 10 per glyph data 5" uni0291 dx=0 dy=0 dh=-10 dv=0 dx=0 dy=0 dh=0 dv=0
PairPos2: "'kern' Horizontal Kerning lookup 10 per glyph data 5" uni0290 dx=0 dy=0 dh=-10 dv=0 dx=0 dy=0 dh=0 dv=0
PairPos2: "'kern' Horizontal Kerning lookup 10 per glyph data 5" uni1E95 dx=0 dy=0 dh=-10 dv=0 dx=0 dy=0 dh=0 dv=0
PairPos2: "'kern' Horizontal Kerning lookup 10 per glyph data 5" uni1E93 dx=0 dy=0 dh=-10 dv=0 dx=0 dy=0 dh=0 dv=0
PairPos2: "'kern' Horizontal Kerning lookup 10 per glyph data 5" zdotaccent dx=0 dy=0 dh=-10 dv=0 dx=0 dy=0 dh=0 dv=0
PairPos2: "'kern' Horizontal Kerning lookup 10 per glyph data 5" zcaron dx=0 dy=0 dh=-10 dv=0 dx=0 dy=0 dh=0 dv=0
PairPos2: "'kern' Horizontal Kerning lookup 10 per glyph data 5" zacute dx=0 dy=0 dh=-10 dv=0 dx=0 dy=0 dh=0 dv=0
PairPos2: "'kern' Horizontal Kerning lookup 10 per glyph data 5" z dx=0 dy=0 dh=-10 dv=0 dx=0 dy=0 dh=0 dv=0
PairPos2: "'kern' Horizontal Kerning lookup 10 per glyph data 5" guillemotleft dx=0 dy=0 dh=-10 dv=0 dx=0 dy=0 dh=0 dv=0
PairPos2: "'kern' Horizontal Kerning lookup 10 per glyph data 5" guilsinglleft dx=0 dy=0 dh=-10 dv=0 dx=0 dy=0 dh=0 dv=0
PairPos2: "'kern' Horizontal Kerning lookup 10 per glyph data 5" uni2015 dx=0 dy=0 dh=-20 dv=0 dx=0 dy=0 dh=0 dv=0
PairPos2: "'kern' Horizontal Kerning lookup 10 per glyph data 5" figuredash dx=0 dy=0 dh=-20 dv=0 dx=0 dy=0 dh=0 dv=0
PairPos2: "'kern' Horizontal Kerning lookup 10 per glyph data 5" emdash dx=0 dy=0 dh=-20 dv=0 dx=0 dy=0 dh=0 dv=0
PairPos2: "'kern' Horizontal Kerning lookup 10 per glyph data 5" endash dx=0 dy=0 dh=-20 dv=0 dx=0 dy=0 dh=0 dv=0
PairPos2: "'kern' Horizontal Kerning lookup 10 per glyph data 5" uni00AD dx=0 dy=0 dh=-20 dv=0 dx=0 dy=0 dh=0 dv=0
PairPos2: "'kern' Horizontal Kerning lookup 10 per glyph data 5" hyphen dx=0 dy=0 dh=-20 dv=0 dx=0 dy=0 dh=0 dv=0
PairPos2: "'kern' Horizontal Kerning lookup 10 per glyph data 5" uni0263 dx=0 dy=0 dh=-8 dv=0 dx=0 dy=0 dh=0 dv=0
PairPos2: "'kern' Horizontal Kerning lookup 10 per glyph data 5" uni1EF9 dx=0 dy=0 dh=-8 dv=0 dx=0 dy=0 dh=0 dv=0
PairPos2: "'kern' Horizontal Kerning lookup 10 per glyph data 5" uni1EF7 dx=0 dy=0 dh=-8 dv=0 dx=0 dy=0 dh=0 dv=0
PairPos2: "'kern' Horizontal Kerning lookup 10 per glyph data 5" uni1EF5 dx=0 dy=0 dh=-8 dv=0 dx=0 dy=0 dh=0 dv=0
PairPos2: "'kern' Horizontal Kerning lookup 10 per glyph data 5" uni1E8F dx=0 dy=0 dh=-8 dv=0 dx=0 dy=0 dh=0 dv=0
PairPos2: "'kern' Horizontal Kerning lookup 10 per glyph data 5" ydieresis dx=0 dy=0 dh=-8 dv=0 dx=0 dy=0 dh=0 dv=0
PairPos2: "'kern' Horizontal Kerning lookup 10 per glyph data 5" ycircumflex dx=0 dy=0 dh=-8 dv=0 dx=0 dy=0 dh=0 dv=0
PairPos2: "'kern' Horizontal Kerning lookup 10 per glyph data 5" yacute dx=0 dy=0 dh=-8 dv=0 dx=0 dy=0 dh=0 dv=0
PairPos2: "'kern' Horizontal Kerning lookup 10 per glyph data 5" ygrave dx=0 dy=0 dh=-8 dv=0 dx=0 dy=0 dh=0 dv=0
PairPos2: "'kern' Horizontal Kerning lookup 10 per glyph data 5" y dx=0 dy=0 dh=-8 dv=0 dx=0 dy=0 dh=0 dv=0
PairPos2: "'kern' Horizontal Kerning lookup 10 per glyph data 5" x dx=0 dy=0 dh=-10 dv=0 dx=0 dy=0 dh=0 dv=0
PairPos2: "'kern' Horizontal Kerning lookup 10 per glyph data 5" wdieresis dx=0 dy=0 dh=-10 dv=0 dx=0 dy=0 dh=0 dv=0
PairPos2: "'kern' Horizontal Kerning lookup 10 per glyph data 5" wcircumflex dx=0 dy=0 dh=-10 dv=0 dx=0 dy=0 dh=0 dv=0
PairPos2: "'kern' Horizontal Kerning lookup 10 per glyph data 5" wacute dx=0 dy=0 dh=-10 dv=0 dx=0 dy=0 dh=0 dv=0
PairPos2: "'kern' Horizontal Kerning lookup 10 per glyph data 5" wgrave dx=0 dy=0 dh=-10 dv=0 dx=0 dy=0 dh=0 dv=0
PairPos2: "'kern' Horizontal Kerning lookup 10 per glyph data 5" w dx=0 dy=0 dh=-10 dv=0 dx=0 dy=0 dh=0 dv=0
PairPos2: "'kern' Horizontal Kerning lookup 10 per glyph data 5" v dx=0 dy=0 dh=-8 dv=0 dx=0 dy=0 dh=0 dv=0
PairPos2: "'kern' Horizontal Kerning lookup 10 per glyph data 5" uni1E62 dx=0 dy=0 dh=-10 dv=0 dx=0 dy=0 dh=0 dv=0
PairPos2: "'kern' Horizontal Kerning lookup 10 per glyph data 5" uni1E60 dx=0 dy=0 dh=-10 dv=0 dx=0 dy=0 dh=0 dv=0
PairPos2: "'kern' Horizontal Kerning lookup 10 per glyph data 5" uni0218 dx=0 dy=0 dh=-10 dv=0 dx=0 dy=0 dh=0 dv=0
PairPos2: "'kern' Horizontal Kerning lookup 10 per glyph data 5" uni015E dx=0 dy=0 dh=-10 dv=0 dx=0 dy=0 dh=0 dv=0
PairPos2: "'kern' Horizontal Kerning lookup 10 per glyph data 5" Scaron dx=0 dy=0 dh=-10 dv=0 dx=0 dy=0 dh=0 dv=0
PairPos2: "'kern' Horizontal Kerning lookup 10 per glyph data 5" Scircumflex dx=0 dy=0 dh=-10 dv=0 dx=0 dy=0 dh=0 dv=0
PairPos2: "'kern' Horizontal Kerning lookup 10 per glyph data 5" Sacute dx=0 dy=0 dh=-10 dv=0 dx=0 dy=0 dh=0 dv=0
PairPos2: "'kern' Horizontal Kerning lookup 10 per glyph data 5" S dx=0 dy=0 dh=-10 dv=0 dx=0 dy=0 dh=0 dv=0
PairPos2: "'kern' Horizontal Kerning lookup 10 per glyph data 5" Jcircumflex dx=0 dy=0 dh=10 dv=0 dx=0 dy=0 dh=0 dv=0
PairPos2: "'kern' Horizontal Kerning lookup 10 per glyph data 5" J dx=0 dy=0 dh=10 dv=0 dx=0 dy=0 dh=0 dv=0
PairPos2: "'kern' Horizontal Kerning lookup 10 per glyph data 5" Jcircumflex.sc dx=0 dy=0 dh=20 dv=0 dx=0 dy=0 dh=0 dv=0
PairPos2: "'kern' Horizontal Kerning lookup 10 per glyph data 5" J.sc dx=0 dy=0 dh=20 dv=0 dx=0 dy=0 dh=0 dv=0
PairPos2: "'kern' Horizontal Kerning lookup 10 per glyph data 5" trademark dx=0 dy=0 dh=22 dv=0 dx=0 dy=0 dh=0 dv=0
PairPos2: "'kern' Horizontal Kerning lookup 10 per glyph data 5" registered dx=0 dy=0 dh=24 dv=0 dx=0 dy=0 dh=0 dv=0
PairPos2: "'kern' Horizontal Kerning lookup 10 per glyph data 5" quotedbl dx=0 dy=0 dh=-10 dv=0 dx=0 dy=0 dh=0 dv=0
PairPos2: "'kern' Horizontal Kerning lookup 10 per glyph data 5" quotesingle dx=0 dy=0 dh=-10 dv=0 dx=0 dy=0 dh=0 dv=0
PairPos2: "'kern' Horizontal Kerning lookup 10 per glyph data 5" uni1EF0 dx=0 dy=0 dh=-10 dv=0 dx=0 dy=0 dh=0 dv=0
PairPos2: "'kern' Horizontal Kerning lookup 10 per glyph data 5" uni1EEE dx=0 dy=0 dh=-10 dv=0 dx=0 dy=0 dh=0 dv=0
PairPos2: "'kern' Horizontal Kerning lookup 10 per glyph data 5" uni1EEC dx=0 dy=0 dh=-10 dv=0 dx=0 dy=0 dh=0 dv=0
PairPos2: "'kern' Horizontal Kerning lookup 10 per glyph data 5" uni1EEA dx=0 dy=0 dh=-10 dv=0 dx=0 dy=0 dh=0 dv=0
PairPos2: "'kern' Horizontal Kerning lookup 10 per glyph data 5" uni1EE8 dx=0 dy=0 dh=-10 dv=0 dx=0 dy=0 dh=0 dv=0
PairPos2: "'kern' Horizontal Kerning lookup 10 per glyph data 5" Uhorn dx=0 dy=0 dh=-10 dv=0 dx=0 dy=0 dh=0 dv=0
PairPos2: "'kern' Horizontal Kerning lookup 10 per glyph data 5" Uogonek dx=0 dy=0 dh=-10 dv=0 dx=0 dy=0 dh=0 dv=0
PairPos2: "'kern' Horizontal Kerning lookup 10 per glyph data 5" uni1EE6 dx=0 dy=0 dh=-10 dv=0 dx=0 dy=0 dh=0 dv=0
PairPos2: "'kern' Horizontal Kerning lookup 10 per glyph data 5" uni1EE4 dx=0 dy=0 dh=-10 dv=0 dx=0 dy=0 dh=0 dv=0
PairPos2: "'kern' Horizontal Kerning lookup 10 per glyph data 5" uni01DB dx=0 dy=0 dh=-10 dv=0 dx=0 dy=0 dh=0 dv=0
PairPos2: "'kern' Horizontal Kerning lookup 10 per glyph data 5" uni01D9 dx=0 dy=0 dh=-10 dv=0 dx=0 dy=0 dh=0 dv=0
PairPos2: "'kern' Horizontal Kerning lookup 10 per glyph data 5" uni01D7 dx=0 dy=0 dh=-10 dv=0 dx=0 dy=0 dh=0 dv=0
PairPos2: "'kern' Horizontal Kerning lookup 10 per glyph data 5" uni01D5 dx=0 dy=0 dh=-10 dv=0 dx=0 dy=0 dh=0 dv=0
PairPos2: "'kern' Horizontal Kerning lookup 10 per glyph data 5" uni01D3 dx=0 dy=0 dh=-10 dv=0 dx=0 dy=0 dh=0 dv=0
PairPos2: "'kern' Horizontal Kerning lookup 10 per glyph data 5" Uhungarumlaut dx=0 dy=0 dh=-10 dv=0 dx=0 dy=0 dh=0 dv=0
PairPos2: "'kern' Horizontal Kerning lookup 10 per glyph data 5" Uring dx=0 dy=0 dh=-10 dv=0 dx=0 dy=0 dh=0 dv=0
PairPos2: "'kern' Horizontal Kerning lookup 10 per glyph data 5" Ubreve dx=0 dy=0 dh=-10 dv=0 dx=0 dy=0 dh=0 dv=0
PairPos2: "'kern' Horizontal Kerning lookup 10 per glyph data 5" Umacron dx=0 dy=0 dh=-10 dv=0 dx=0 dy=0 dh=0 dv=0
PairPos2: "'kern' Horizontal Kerning lookup 10 per glyph data 5" Udieresis dx=0 dy=0 dh=-10 dv=0 dx=0 dy=0 dh=0 dv=0
PairPos2: "'kern' Horizontal Kerning lookup 10 per glyph data 5" Utilde dx=0 dy=0 dh=-10 dv=0 dx=0 dy=0 dh=0 dv=0
PairPos2: "'kern' Horizontal Kerning lookup 10 per glyph data 5" Ucircumflex dx=0 dy=0 dh=-10 dv=0 dx=0 dy=0 dh=0 dv=0
PairPos2: "'kern' Horizontal Kerning lookup 10 per glyph data 5" Uacute dx=0 dy=0 dh=-10 dv=0 dx=0 dy=0 dh=0 dv=0
PairPos2: "'kern' Horizontal Kerning lookup 10 per glyph data 5" Ugrave dx=0 dy=0 dh=-10 dv=0 dx=0 dy=0 dh=0 dv=0
PairPos2: "'kern' Horizontal Kerning lookup 10 per glyph data 5" U dx=0 dy=0 dh=-10 dv=0 dx=0 dy=0 dh=0 dv=0
PairPos2: "'kern' Horizontal Kerning lookup 10 per glyph data 5" uni028B dx=0 dy=0 dh=-10 dv=0 dx=0 dy=0 dh=0 dv=0
PairPos2: "'kern' Horizontal Kerning lookup 10 per glyph data 5" uni0270 dx=0 dy=0 dh=-10 dv=0 dx=0 dy=0 dh=0 dv=0
PairPos2: "'kern' Horizontal Kerning lookup 10 per glyph data 5" uni026F dx=0 dy=0 dh=-10 dv=0 dx=0 dy=0 dh=0 dv=0
PairPos2: "'kern' Horizontal Kerning lookup 10 per glyph data 5" uni0265 dx=0 dy=0 dh=-10 dv=0 dx=0 dy=0 dh=0 dv=0
PairPos2: "'kern' Horizontal Kerning lookup 10 per glyph data 5" uni0250 dx=0 dy=0 dh=-10 dv=0 dx=0 dy=0 dh=0 dv=0
PairPos2: "'kern' Horizontal Kerning lookup 10 per glyph data 5" uni1EF1 dx=0 dy=0 dh=-10 dv=0 dx=0 dy=0 dh=0 dv=0
PairPos2: "'kern' Horizontal Kerning lookup 10 per glyph data 5" uni1EEF dx=0 dy=0 dh=-10 dv=0 dx=0 dy=0 dh=0 dv=0
PairPos2: "'kern' Horizontal Kerning lookup 10 per glyph data 5" uni1EED dx=0 dy=0 dh=-10 dv=0 dx=0 dy=0 dh=0 dv=0
PairPos2: "'kern' Horizontal Kerning lookup 10 per glyph data 5" uni1EEB dx=0 dy=0 dh=-10 dv=0 dx=0 dy=0 dh=0 dv=0
PairPos2: "'kern' Horizontal Kerning lookup 10 per glyph data 5" uni1EE9 dx=0 dy=0 dh=-10 dv=0 dx=0 dy=0 dh=0 dv=0
PairPos2: "'kern' Horizontal Kerning lookup 10 per glyph data 5" uhorn dx=0 dy=0 dh=-10 dv=0 dx=0 dy=0 dh=0 dv=0
PairPos2: "'kern' Horizontal Kerning lookup 10 per glyph data 5" uogonek dx=0 dy=0 dh=-10 dv=0 dx=0 dy=0 dh=0 dv=0
PairPos2: "'kern' Horizontal Kerning lookup 10 per glyph data 5" uni1EE7 dx=0 dy=0 dh=-10 dv=0 dx=0 dy=0 dh=0 dv=0
PairPos2: "'kern' Horizontal Kerning lookup 10 per glyph data 5" uni1EE5 dx=0 dy=0 dh=-10 dv=0 dx=0 dy=0 dh=0 dv=0
PairPos2: "'kern' Horizontal Kerning lookup 10 per glyph data 5" uni01DC dx=0 dy=0 dh=-10 dv=0 dx=0 dy=0 dh=0 dv=0
PairPos2: "'kern' Horizontal Kerning lookup 10 per glyph data 5" uni01DA dx=0 dy=0 dh=-10 dv=0 dx=0 dy=0 dh=0 dv=0
PairPos2: "'kern' Horizontal Kerning lookup 10 per glyph data 5" uni01D8 dx=0 dy=0 dh=-10 dv=0 dx=0 dy=0 dh=0 dv=0
PairPos2: "'kern' Horizontal Kerning lookup 10 per glyph data 5" uni01D6 dx=0 dy=0 dh=-10 dv=0 dx=0 dy=0 dh=0 dv=0
PairPos2: "'kern' Horizontal Kerning lookup 10 per glyph data 5" uni01D4 dx=0 dy=0 dh=-10 dv=0 dx=0 dy=0 dh=0 dv=0
PairPos2: "'kern' Horizontal Kerning lookup 10 per glyph data 5" uhungarumlaut dx=0 dy=0 dh=-10 dv=0 dx=0 dy=0 dh=0 dv=0
PairPos2: "'kern' Horizontal Kerning lookup 10 per glyph data 5" uring dx=0 dy=0 dh=-10 dv=0 dx=0 dy=0 dh=0 dv=0
PairPos2: "'kern' Horizontal Kerning lookup 10 per glyph data 5" ubreve dx=0 dy=0 dh=-10 dv=0 dx=0 dy=0 dh=0 dv=0
PairPos2: "'kern' Horizontal Kerning lookup 10 per glyph data 5" umacron dx=0 dy=0 dh=-10 dv=0 dx=0 dy=0 dh=0 dv=0
PairPos2: "'kern' Horizontal Kerning lookup 10 per glyph data 5" udieresis dx=0 dy=0 dh=-10 dv=0 dx=0 dy=0 dh=0 dv=0
PairPos2: "'kern' Horizontal Kerning lookup 10 per glyph data 5" utilde dx=0 dy=0 dh=-10 dv=0 dx=0 dy=0 dh=0 dv=0
PairPos2: "'kern' Horizontal Kerning lookup 10 per glyph data 5" ucircumflex dx=0 dy=0 dh=-10 dv=0 dx=0 dy=0 dh=0 dv=0
PairPos2: "'kern' Horizontal Kerning lookup 10 per glyph data 5" uacute dx=0 dy=0 dh=-10 dv=0 dx=0 dy=0 dh=0 dv=0
PairPos2: "'kern' Horizontal Kerning lookup 10 per glyph data 5" ugrave dx=0 dy=0 dh=-10 dv=0 dx=0 dy=0 dh=0 dv=0
PairPos2: "'kern' Horizontal Kerning lookup 10 per glyph data 5" u dx=0 dy=0 dh=-10 dv=0 dx=0 dy=0 dh=0 dv=0
PairPos2: "'kern' Horizontal Kerning lookup 10 per glyph data 5" uni01EA dx=0 dy=0 dh=-10 dv=0 dx=0 dy=0 dh=0 dv=0
PairPos2: "'kern' Horizontal Kerning lookup 10 per glyph data 5" uni1EE2 dx=0 dy=0 dh=-10 dv=0 dx=0 dy=0 dh=0 dv=0
PairPos2: "'kern' Horizontal Kerning lookup 10 per glyph data 5" uni1EE0 dx=0 dy=0 dh=-10 dv=0 dx=0 dy=0 dh=0 dv=0
PairPos2: "'kern' Horizontal Kerning lookup 10 per glyph data 5" uni1EDE dx=0 dy=0 dh=-10 dv=0 dx=0 dy=0 dh=0 dv=0
PairPos2: "'kern' Horizontal Kerning lookup 10 per glyph data 5" uni1EDC dx=0 dy=0 dh=-10 dv=0 dx=0 dy=0 dh=0 dv=0
PairPos2: "'kern' Horizontal Kerning lookup 10 per glyph data 5" uni1EDA dx=0 dy=0 dh=-10 dv=0 dx=0 dy=0 dh=0 dv=0
PairPos2: "'kern' Horizontal Kerning lookup 10 per glyph data 5" Ohorn dx=0 dy=0 dh=-10 dv=0 dx=0 dy=0 dh=0 dv=0
PairPos2: "'kern' Horizontal Kerning lookup 10 per glyph data 5" OE dx=0 dy=0 dh=-10 dv=0 dx=0 dy=0 dh=0 dv=0
PairPos2: "'kern' Horizontal Kerning lookup 10 per glyph data 5" Oslash dx=0 dy=0 dh=-10 dv=0 dx=0 dy=0 dh=0 dv=0
PairPos2: "'kern' Horizontal Kerning lookup 10 per glyph data 5" uni1E52 dx=0 dy=0 dh=-10 dv=0 dx=0 dy=0 dh=0 dv=0
PairPos2: "'kern' Horizontal Kerning lookup 10 per glyph data 5" uni014E dx=0 dy=0 dh=-10 dv=0 dx=0 dy=0 dh=0 dv=0
PairPos2: "'kern' Horizontal Kerning lookup 10 per glyph data 5" uni1ED8 dx=0 dy=0 dh=-10 dv=0 dx=0 dy=0 dh=0 dv=0
PairPos2: "'kern' Horizontal Kerning lookup 10 per glyph data 5" uni1ED6 dx=0 dy=0 dh=-10 dv=0 dx=0 dy=0 dh=0 dv=0
PairPos2: "'kern' Horizontal Kerning lookup 10 per glyph data 5" uni1ED4 dx=0 dy=0 dh=-10 dv=0 dx=0 dy=0 dh=0 dv=0
PairPos2: "'kern' Horizontal Kerning lookup 10 per glyph data 5" uni1ED2 dx=0 dy=0 dh=-10 dv=0 dx=0 dy=0 dh=0 dv=0
PairPos2: "'kern' Horizontal Kerning lookup 10 per glyph data 5" uni1ED0 dx=0 dy=0 dh=-10 dv=0 dx=0 dy=0 dh=0 dv=0
PairPos2: "'kern' Horizontal Kerning lookup 10 per glyph data 5" uni1ECE dx=0 dy=0 dh=-10 dv=0 dx=0 dy=0 dh=0 dv=0
PairPos2: "'kern' Horizontal Kerning lookup 10 per glyph data 5" uni1ECC dx=0 dy=0 dh=-10 dv=0 dx=0 dy=0 dh=0 dv=0
PairPos2: "'kern' Horizontal Kerning lookup 10 per glyph data 5" uni01D1 dx=0 dy=0 dh=-10 dv=0 dx=0 dy=0 dh=0 dv=0
PairPos2: "'kern' Horizontal Kerning lookup 10 per glyph data 5" Ohungarumlaut dx=0 dy=0 dh=-10 dv=0 dx=0 dy=0 dh=0 dv=0
PairPos2: "'kern' Horizontal Kerning lookup 10 per glyph data 5" Omacron dx=0 dy=0 dh=-10 dv=0 dx=0 dy=0 dh=0 dv=0
PairPos2: "'kern' Horizontal Kerning lookup 10 per glyph data 5" Odieresis dx=0 dy=0 dh=-10 dv=0 dx=0 dy=0 dh=0 dv=0
PairPos2: "'kern' Horizontal Kerning lookup 10 per glyph data 5" Otilde dx=0 dy=0 dh=-10 dv=0 dx=0 dy=0 dh=0 dv=0
PairPos2: "'kern' Horizontal Kerning lookup 10 per glyph data 5" Ocircumflex dx=0 dy=0 dh=-10 dv=0 dx=0 dy=0 dh=0 dv=0
PairPos2: "'kern' Horizontal Kerning lookup 10 per glyph data 5" Oacute dx=0 dy=0 dh=-10 dv=0 dx=0 dy=0 dh=0 dv=0
PairPos2: "'kern' Horizontal Kerning lookup 10 per glyph data 5" Ograve dx=0 dy=0 dh=-10 dv=0 dx=0 dy=0 dh=0 dv=0
PairPos2: "'kern' Horizontal Kerning lookup 10 per glyph data 5" uni0193 dx=0 dy=0 dh=-10 dv=0 dx=0 dy=0 dh=0 dv=0
PairPos2: "'kern' Horizontal Kerning lookup 10 per glyph data 5" uni00470303 dx=0 dy=0 dh=-10 dv=0 dx=0 dy=0 dh=0 dv=0
PairPos2: "'kern' Horizontal Kerning lookup 10 per glyph data 5" uni1E20 dx=0 dy=0 dh=-10 dv=0 dx=0 dy=0 dh=0 dv=0
PairPos2: "'kern' Horizontal Kerning lookup 10 per glyph data 5" Gcaron dx=0 dy=0 dh=-10 dv=0 dx=0 dy=0 dh=0 dv=0
PairPos2: "'kern' Horizontal Kerning lookup 10 per glyph data 5" uni0122 dx=0 dy=0 dh=-10 dv=0 dx=0 dy=0 dh=0 dv=0
PairPos2: "'kern' Horizontal Kerning lookup 10 per glyph data 5" Gdotaccent dx=0 dy=0 dh=-10 dv=0 dx=0 dy=0 dh=0 dv=0
PairPos2: "'kern' Horizontal Kerning lookup 10 per glyph data 5" Gbreve dx=0 dy=0 dh=-10 dv=0 dx=0 dy=0 dh=0 dv=0
PairPos2: "'kern' Horizontal Kerning lookup 10 per glyph data 5" Gcircumflex dx=0 dy=0 dh=-10 dv=0 dx=0 dy=0 dh=0 dv=0
PairPos2: "'kern' Horizontal Kerning lookup 10 per glyph data 5" uni01F4 dx=0 dy=0 dh=-10 dv=0 dx=0 dy=0 dh=0 dv=0
PairPos2: "'kern' Horizontal Kerning lookup 10 per glyph data 5" Cdotaccent dx=0 dy=0 dh=-10 dv=0 dx=0 dy=0 dh=0 dv=0
PairPos2: "'kern' Horizontal Kerning lookup 10 per glyph data 5" Ccaron dx=0 dy=0 dh=-10 dv=0 dx=0 dy=0 dh=0 dv=0
PairPos2: "'kern' Horizontal Kerning lookup 10 per glyph data 5" Ccircumflex dx=0 dy=0 dh=-10 dv=0 dx=0 dy=0 dh=0 dv=0
PairPos2: "'kern' Horizontal Kerning lookup 10 per glyph data 5" Cacute dx=0 dy=0 dh=-10 dv=0 dx=0 dy=0 dh=0 dv=0
PairPos2: "'kern' Horizontal Kerning lookup 10 per glyph data 5" Ccedilla dx=0 dy=0 dh=-10 dv=0 dx=0 dy=0 dh=0 dv=0
PairPos2: "'kern' Horizontal Kerning lookup 10 per glyph data 5" Q dx=0 dy=0 dh=-10 dv=0 dx=0 dy=0 dh=0 dv=0
PairPos2: "'kern' Horizontal Kerning lookup 10 per glyph data 5" O dx=0 dy=0 dh=-10 dv=0 dx=0 dy=0 dh=0 dv=0
PairPos2: "'kern' Horizontal Kerning lookup 10 per glyph data 5" G dx=0 dy=0 dh=-10 dv=0 dx=0 dy=0 dh=0 dv=0
PairPos2: "'kern' Horizontal Kerning lookup 10 per glyph data 5" C dx=0 dy=0 dh=-10 dv=0 dx=0 dy=0 dh=0 dv=0
PairPos2: "'kern' Horizontal Kerning lookup 10 per glyph data 5" uni1E52.sc dx=0 dy=0 dh=10 dv=0 dx=0 dy=0 dh=0 dv=0
PairPos2: "'kern' Horizontal Kerning lookup 10 per glyph data 5" uni014E.sc dx=0 dy=0 dh=10 dv=0 dx=0 dy=0 dh=0 dv=0
PairPos2: "'kern' Horizontal Kerning lookup 10 per glyph data 5" uni01EA.sc dx=0 dy=0 dh=10 dv=0 dx=0 dy=0 dh=0 dv=0
PairPos2: "'kern' Horizontal Kerning lookup 10 per glyph data 5" uni1EE2.sc dx=0 dy=0 dh=10 dv=0 dx=0 dy=0 dh=0 dv=0
PairPos2: "'kern' Horizontal Kerning lookup 10 per glyph data 5" uni1EE0.sc dx=0 dy=0 dh=10 dv=0 dx=0 dy=0 dh=0 dv=0
PairPos2: "'kern' Horizontal Kerning lookup 10 per glyph data 5" uni1EDE.sc dx=0 dy=0 dh=10 dv=0 dx=0 dy=0 dh=0 dv=0
PairPos2: "'kern' Horizontal Kerning lookup 10 per glyph data 5" uni1EDC.sc dx=0 dy=0 dh=10 dv=0 dx=0 dy=0 dh=0 dv=0
PairPos2: "'kern' Horizontal Kerning lookup 10 per glyph data 5" uni1EDA.sc dx=0 dy=0 dh=10 dv=0 dx=0 dy=0 dh=0 dv=0
PairPos2: "'kern' Horizontal Kerning lookup 10 per glyph data 5" Ohorn.sc dx=0 dy=0 dh=10 dv=0 dx=0 dy=0 dh=0 dv=0
PairPos2: "'kern' Horizontal Kerning lookup 10 per glyph data 5" OE.sc dx=0 dy=0 dh=10 dv=0 dx=0 dy=0 dh=0 dv=0
PairPos2: "'kern' Horizontal Kerning lookup 10 per glyph data 5" Oslash.sc dx=0 dy=0 dh=10 dv=0 dx=0 dy=0 dh=0 dv=0
PairPos2: "'kern' Horizontal Kerning lookup 10 per glyph data 5" uni1ED8.sc dx=0 dy=0 dh=10 dv=0 dx=0 dy=0 dh=0 dv=0
PairPos2: "'kern' Horizontal Kerning lookup 10 per glyph data 5" uni1ED6.sc dx=0 dy=0 dh=10 dv=0 dx=0 dy=0 dh=0 dv=0
PairPos2: "'kern' Horizontal Kerning lookup 10 per glyph data 5" uni1ED4.sc dx=0 dy=0 dh=10 dv=0 dx=0 dy=0 dh=0 dv=0
PairPos2: "'kern' Horizontal Kerning lookup 10 per glyph data 5" uni1ED2.sc dx=0 dy=0 dh=10 dv=0 dx=0 dy=0 dh=0 dv=0
PairPos2: "'kern' Horizontal Kerning lookup 10 per glyph data 5" uni1ED0.sc dx=0 dy=0 dh=10 dv=0 dx=0 dy=0 dh=0 dv=0
PairPos2: "'kern' Horizontal Kerning lookup 10 per glyph data 5" uni1ECE.sc dx=0 dy=0 dh=10 dv=0 dx=0 dy=0 dh=0 dv=0
PairPos2: "'kern' Horizontal Kerning lookup 10 per glyph data 5" uni1ECC.sc dx=0 dy=0 dh=10 dv=0 dx=0 dy=0 dh=0 dv=0
PairPos2: "'kern' Horizontal Kerning lookup 10 per glyph data 5" uni01D1.sc dx=0 dy=0 dh=10 dv=0 dx=0 dy=0 dh=0 dv=0
PairPos2: "'kern' Horizontal Kerning lookup 10 per glyph data 5" Ohungarumlaut.sc dx=0 dy=0 dh=10 dv=0 dx=0 dy=0 dh=0 dv=0
PairPos2: "'kern' Horizontal Kerning lookup 10 per glyph data 5" Omacron.sc dx=0 dy=0 dh=10 dv=0 dx=0 dy=0 dh=0 dv=0
PairPos2: "'kern' Horizontal Kerning lookup 10 per glyph data 5" Odieresis.sc dx=0 dy=0 dh=10 dv=0 dx=0 dy=0 dh=0 dv=0
PairPos2: "'kern' Horizontal Kerning lookup 10 per glyph data 5" Otilde.sc dx=0 dy=0 dh=10 dv=0 dx=0 dy=0 dh=0 dv=0
PairPos2: "'kern' Horizontal Kerning lookup 10 per glyph data 5" Ocircumflex.sc dx=0 dy=0 dh=10 dv=0 dx=0 dy=0 dh=0 dv=0
PairPos2: "'kern' Horizontal Kerning lookup 10 per glyph data 5" Oacute.sc dx=0 dy=0 dh=10 dv=0 dx=0 dy=0 dh=0 dv=0
PairPos2: "'kern' Horizontal Kerning lookup 10 per glyph data 5" Ograve.sc dx=0 dy=0 dh=10 dv=0 dx=0 dy=0 dh=0 dv=0
PairPos2: "'kern' Horizontal Kerning lookup 10 per glyph data 5" uni0193.sc dx=0 dy=0 dh=10 dv=0 dx=0 dy=0 dh=0 dv=0
PairPos2: "'kern' Horizontal Kerning lookup 10 per glyph data 5" uni00470303.sc dx=0 dy=0 dh=10 dv=0 dx=0 dy=0 dh=0 dv=0
PairPos2: "'kern' Horizontal Kerning lookup 10 per glyph data 5" uni1E20.sc dx=0 dy=0 dh=10 dv=0 dx=0 dy=0 dh=0 dv=0
PairPos2: "'kern' Horizontal Kerning lookup 10 per glyph data 5" Gcaron.sc dx=0 dy=0 dh=10 dv=0 dx=0 dy=0 dh=0 dv=0
PairPos2: "'kern' Horizontal Kerning lookup 10 per glyph data 5" uni0122.sc dx=0 dy=0 dh=10 dv=0 dx=0 dy=0 dh=0 dv=0
PairPos2: "'kern' Horizontal Kerning lookup 10 per glyph data 5" Gdotaccent.sc dx=0 dy=0 dh=10 dv=0 dx=0 dy=0 dh=0 dv=0
PairPos2: "'kern' Horizontal Kerning lookup 10 per glyph data 5" Gbreve.sc dx=0 dy=0 dh=10 dv=0 dx=0 dy=0 dh=0 dv=0
PairPos2: "'kern' Horizontal Kerning lookup 10 per glyph data 5" Gcircumflex.sc dx=0 dy=0 dh=10 dv=0 dx=0 dy=0 dh=0 dv=0
PairPos2: "'kern' Horizontal Kerning lookup 10 per glyph data 5" uni01F4.sc dx=0 dy=0 dh=10 dv=0 dx=0 dy=0 dh=0 dv=0
PairPos2: "'kern' Horizontal Kerning lookup 10 per glyph data 5" Cdotaccent.sc dx=0 dy=0 dh=10 dv=0 dx=0 dy=0 dh=0 dv=0
PairPos2: "'kern' Horizontal Kerning lookup 10 per glyph data 5" Ccaron.sc dx=0 dy=0 dh=10 dv=0 dx=0 dy=0 dh=0 dv=0
PairPos2: "'kern' Horizontal Kerning lookup 10 per glyph data 5" Ccircumflex.sc dx=0 dy=0 dh=10 dv=0 dx=0 dy=0 dh=0 dv=0
PairPos2: "'kern' Horizontal Kerning lookup 10 per glyph data 5" Cacute.sc dx=0 dy=0 dh=10 dv=0 dx=0 dy=0 dh=0 dv=0
PairPos2: "'kern' Horizontal Kerning lookup 10 per glyph data 5" Ccedilla.sc dx=0 dy=0 dh=10 dv=0 dx=0 dy=0 dh=0 dv=0
PairPos2: "'kern' Horizontal Kerning lookup 10 per glyph data 5" Q.sc dx=0 dy=0 dh=10 dv=0 dx=0 dy=0 dh=0 dv=0
PairPos2: "'kern' Horizontal Kerning lookup 10 per glyph data 5" O.sc dx=0 dy=0 dh=10 dv=0 dx=0 dy=0 dh=0 dv=0
PairPos2: "'kern' Horizontal Kerning lookup 10 per glyph data 5" G.sc dx=0 dy=0 dh=10 dv=0 dx=0 dy=0 dh=0 dv=0
PairPos2: "'kern' Horizontal Kerning lookup 10 per glyph data 5" C.sc dx=0 dy=0 dh=10 dv=0 dx=0 dy=0 dh=0 dv=0
PairPos2: "'kern' Horizontal Kerning lookup 10 per glyph data 5" fl dx=0 dy=0 dh=-8 dv=0 dx=0 dy=0 dh=0 dv=0
PairPos2: "'kern' Horizontal Kerning lookup 10 per glyph data 5" fi dx=0 dy=0 dh=-8 dv=0 dx=0 dy=0 dh=0 dv=0
PairPos2: "'kern' Horizontal Kerning lookup 10 per glyph data 5" fl.a dx=0 dy=0 dh=-8 dv=0 dx=0 dy=0 dh=0 dv=0
PairPos2: "'kern' Horizontal Kerning lookup 10 per glyph data 5" f_f_t dx=0 dy=0 dh=-8 dv=0 dx=0 dy=0 dh=0 dv=0
PairPos2: "'kern' Horizontal Kerning lookup 10 per glyph data 5" f_t dx=0 dy=0 dh=-8 dv=0 dx=0 dy=0 dh=0 dv=0
PairPos2: "'kern' Horizontal Kerning lookup 10 per glyph data 5" f_f dx=0 dy=0 dh=-8 dv=0 dx=0 dy=0 dh=0 dv=0
PairPos2: "'kern' Horizontal Kerning lookup 10 per glyph data 5" f dx=0 dy=0 dh=-8 dv=0 dx=0 dy=0 dh=0 dv=0
PairPos2: "'kern' Horizontal Kerning lookup 10 per glyph data 5" Aogonek dx=0 dy=0 dh=10 dv=0 dx=0 dy=0 dh=0 dv=0
PairPos2: "'kern' Horizontal Kerning lookup 10 per glyph data 5" uni1EB6 dx=0 dy=0 dh=10 dv=0 dx=0 dy=0 dh=0 dv=0
PairPos2: "'kern' Horizontal Kerning lookup 10 per glyph data 5" uni1EB4 dx=0 dy=0 dh=10 dv=0 dx=0 dy=0 dh=0 dv=0
PairPos2: "'kern' Horizontal Kerning lookup 10 per glyph data 5" uni1EB2 dx=0 dy=0 dh=10 dv=0 dx=0 dy=0 dh=0 dv=0
PairPos2: "'kern' Horizontal Kerning lookup 10 per glyph data 5" uni1EB0 dx=0 dy=0 dh=10 dv=0 dx=0 dy=0 dh=0 dv=0
PairPos2: "'kern' Horizontal Kerning lookup 10 per glyph data 5" uni1EAE dx=0 dy=0 dh=10 dv=0 dx=0 dy=0 dh=0 dv=0
PairPos2: "'kern' Horizontal Kerning lookup 10 per glyph data 5" uni1EAC dx=0 dy=0 dh=10 dv=0 dx=0 dy=0 dh=0 dv=0
PairPos2: "'kern' Horizontal Kerning lookup 10 per glyph data 5" uni1EAA dx=0 dy=0 dh=10 dv=0 dx=0 dy=0 dh=0 dv=0
PairPos2: "'kern' Horizontal Kerning lookup 10 per glyph data 5" uni1EA8 dx=0 dy=0 dh=10 dv=0 dx=0 dy=0 dh=0 dv=0
PairPos2: "'kern' Horizontal Kerning lookup 10 per glyph data 5" uni1EA6 dx=0 dy=0 dh=10 dv=0 dx=0 dy=0 dh=0 dv=0
PairPos2: "'kern' Horizontal Kerning lookup 10 per glyph data 5" uni1EA4 dx=0 dy=0 dh=10 dv=0 dx=0 dy=0 dh=0 dv=0
PairPos2: "'kern' Horizontal Kerning lookup 10 per glyph data 5" uni1EA2 dx=0 dy=0 dh=10 dv=0 dx=0 dy=0 dh=0 dv=0
PairPos2: "'kern' Horizontal Kerning lookup 10 per glyph data 5" uni1EA0 dx=0 dy=0 dh=10 dv=0 dx=0 dy=0 dh=0 dv=0
PairPos2: "'kern' Horizontal Kerning lookup 10 per glyph data 5" uni01CD dx=0 dy=0 dh=10 dv=0 dx=0 dy=0 dh=0 dv=0
PairPos2: "'kern' Horizontal Kerning lookup 10 per glyph data 5" Aring dx=0 dy=0 dh=10 dv=0 dx=0 dy=0 dh=0 dv=0
PairPos2: "'kern' Horizontal Kerning lookup 10 per glyph data 5" Abreve dx=0 dy=0 dh=10 dv=0 dx=0 dy=0 dh=0 dv=0
PairPos2: "'kern' Horizontal Kerning lookup 10 per glyph data 5" Amacron dx=0 dy=0 dh=10 dv=0 dx=0 dy=0 dh=0 dv=0
PairPos2: "'kern' Horizontal Kerning lookup 10 per glyph data 5" Adieresis dx=0 dy=0 dh=10 dv=0 dx=0 dy=0 dh=0 dv=0
PairPos2: "'kern' Horizontal Kerning lookup 10 per glyph data 5" Atilde dx=0 dy=0 dh=10 dv=0 dx=0 dy=0 dh=0 dv=0
PairPos2: "'kern' Horizontal Kerning lookup 10 per glyph data 5" Acircumflex dx=0 dy=0 dh=10 dv=0 dx=0 dy=0 dh=0 dv=0
PairPos2: "'kern' Horizontal Kerning lookup 10 per glyph data 5" Aacute dx=0 dy=0 dh=10 dv=0 dx=0 dy=0 dh=0 dv=0
PairPos2: "'kern' Horizontal Kerning lookup 10 per glyph data 5" Agrave dx=0 dy=0 dh=10 dv=0 dx=0 dy=0 dh=0 dv=0
PairPos2: "'kern' Horizontal Kerning lookup 10 per glyph data 5" A dx=0 dy=0 dh=10 dv=0 dx=0 dy=0 dh=0 dv=0
PairPos2: "'kern' Horizontal Kerning lookup 10 per glyph data 5" uni01E3 dx=0 dy=0 dh=-10 dv=0 dx=0 dy=0 dh=0 dv=0
PairPos2: "'kern' Horizontal Kerning lookup 10 per glyph data 5" uni01FD dx=0 dy=0 dh=-10 dv=0 dx=0 dy=0 dh=0 dv=0
PairPos2: "'kern' Horizontal Kerning lookup 10 per glyph data 5" ae dx=0 dy=0 dh=-10 dv=0 dx=0 dy=0 dh=0 dv=0
PairPos2: "'kern' Horizontal Kerning lookup 10 per glyph data 5" aogonek dx=0 dy=0 dh=-10 dv=0 dx=0 dy=0 dh=0 dv=0
PairPos2: "'kern' Horizontal Kerning lookup 10 per glyph data 5" uni1EB7 dx=0 dy=0 dh=-10 dv=0 dx=0 dy=0 dh=0 dv=0
PairPos2: "'kern' Horizontal Kerning lookup 10 per glyph data 5" uni1EB5 dx=0 dy=0 dh=-10 dv=0 dx=0 dy=0 dh=0 dv=0
PairPos2: "'kern' Horizontal Kerning lookup 10 per glyph data 5" uni1EB3 dx=0 dy=0 dh=-10 dv=0 dx=0 dy=0 dh=0 dv=0
PairPos2: "'kern' Horizontal Kerning lookup 10 per glyph data 5" uni1EB1 dx=0 dy=0 dh=-10 dv=0 dx=0 dy=0 dh=0 dv=0
PairPos2: "'kern' Horizontal Kerning lookup 10 per glyph data 5" uni1EAF dx=0 dy=0 dh=-10 dv=0 dx=0 dy=0 dh=0 dv=0
PairPos2: "'kern' Horizontal Kerning lookup 10 per glyph data 5" uni1EAD dx=0 dy=0 dh=-10 dv=0 dx=0 dy=0 dh=0 dv=0
PairPos2: "'kern' Horizontal Kerning lookup 10 per glyph data 5" uni1EAB dx=0 dy=0 dh=-10 dv=0 dx=0 dy=0 dh=0 dv=0
PairPos2: "'kern' Horizontal Kerning lookup 10 per glyph data 5" uni1EA9 dx=0 dy=0 dh=-10 dv=0 dx=0 dy=0 dh=0 dv=0
PairPos2: "'kern' Horizontal Kerning lookup 10 per glyph data 5" uni1EA7 dx=0 dy=0 dh=-10 dv=0 dx=0 dy=0 dh=0 dv=0
PairPos2: "'kern' Horizontal Kerning lookup 10 per glyph data 5" uni1EA5 dx=0 dy=0 dh=-10 dv=0 dx=0 dy=0 dh=0 dv=0
PairPos2: "'kern' Horizontal Kerning lookup 10 per glyph data 5" uni1EA3 dx=0 dy=0 dh=-10 dv=0 dx=0 dy=0 dh=0 dv=0
PairPos2: "'kern' Horizontal Kerning lookup 10 per glyph data 5" uni1EA1 dx=0 dy=0 dh=-10 dv=0 dx=0 dy=0 dh=0 dv=0
PairPos2: "'kern' Horizontal Kerning lookup 10 per glyph data 5" uni01CE dx=0 dy=0 dh=-10 dv=0 dx=0 dy=0 dh=0 dv=0
PairPos2: "'kern' Horizontal Kerning lookup 10 per glyph data 5" aring dx=0 dy=0 dh=-10 dv=0 dx=0 dy=0 dh=0 dv=0
PairPos2: "'kern' Horizontal Kerning lookup 10 per glyph data 5" abreve dx=0 dy=0 dh=-10 dv=0 dx=0 dy=0 dh=0 dv=0
PairPos2: "'kern' Horizontal Kerning lookup 10 per glyph data 5" amacron dx=0 dy=0 dh=-10 dv=0 dx=0 dy=0 dh=0 dv=0
PairPos2: "'kern' Horizontal Kerning lookup 10 per glyph data 5" adieresis dx=0 dy=0 dh=-10 dv=0 dx=0 dy=0 dh=0 dv=0
PairPos2: "'kern' Horizontal Kerning lookup 10 per glyph data 5" atilde dx=0 dy=0 dh=-10 dv=0 dx=0 dy=0 dh=0 dv=0
PairPos2: "'kern' Horizontal Kerning lookup 10 per glyph data 5" acircumflex dx=0 dy=0 dh=-10 dv=0 dx=0 dy=0 dh=0 dv=0
PairPos2: "'kern' Horizontal Kerning lookup 10 per glyph data 5" aacute dx=0 dy=0 dh=-10 dv=0 dx=0 dy=0 dh=0 dv=0
PairPos2: "'kern' Horizontal Kerning lookup 10 per glyph data 5" agrave dx=0 dy=0 dh=-10 dv=0 dx=0 dy=0 dh=0 dv=0
PairPos2: "'kern' Horizontal Kerning lookup 10 per glyph data 5" a dx=0 dy=0 dh=-10 dv=0 dx=0 dy=0 dh=0 dv=0
PairPos2: "'kern' Horizontal Kerning lookup 10 per glyph data 5" periodcentered dx=0 dy=0 dh=-40 dv=0 dx=0 dy=0 dh=0 dv=0
PairPos2: "'kern' Horizontal Kerning lookup 10 per glyph data 5" uni1E94.sc dx=0 dy=0 dh=10 dv=0 dx=0 dy=0 dh=0 dv=0
PairPos2: "'kern' Horizontal Kerning lookup 10 per glyph data 5" uni1E92.sc dx=0 dy=0 dh=10 dv=0 dx=0 dy=0 dh=0 dv=0
PairPos2: "'kern' Horizontal Kerning lookup 10 per glyph data 5" Zdotaccent.sc dx=0 dy=0 dh=10 dv=0 dx=0 dy=0 dh=0 dv=0
PairPos2: "'kern' Horizontal Kerning lookup 10 per glyph data 5" Zcaron.sc dx=0 dy=0 dh=10 dv=0 dx=0 dy=0 dh=0 dv=0
PairPos2: "'kern' Horizontal Kerning lookup 10 per glyph data 5" Zacute.sc dx=0 dy=0 dh=10 dv=0 dx=0 dy=0 dh=0 dv=0
PairPos2: "'kern' Horizontal Kerning lookup 10 per glyph data 5" Z.sc dx=0 dy=0 dh=10 dv=0 dx=0 dy=0 dh=0 dv=0
PairPos2: "'kern' Horizontal Kerning lookup 10 per glyph data 5" uni1EF8.sc dx=0 dy=0 dh=20 dv=0 dx=0 dy=0 dh=0 dv=0
PairPos2: "'kern' Horizontal Kerning lookup 10 per glyph data 5" uni1EF6.sc dx=0 dy=0 dh=20 dv=0 dx=0 dy=0 dh=0 dv=0
PairPos2: "'kern' Horizontal Kerning lookup 10 per glyph data 5" uni1EF4.sc dx=0 dy=0 dh=20 dv=0 dx=0 dy=0 dh=0 dv=0
PairPos2: "'kern' Horizontal Kerning lookup 10 per glyph data 5" uni1E8E.sc dx=0 dy=0 dh=20 dv=0 dx=0 dy=0 dh=0 dv=0
PairPos2: "'kern' Horizontal Kerning lookup 10 per glyph data 5" Ydieresis.sc dx=0 dy=0 dh=20 dv=0 dx=0 dy=0 dh=0 dv=0
PairPos2: "'kern' Horizontal Kerning lookup 10 per glyph data 5" Ycircumflex.sc dx=0 dy=0 dh=20 dv=0 dx=0 dy=0 dh=0 dv=0
PairPos2: "'kern' Horizontal Kerning lookup 10 per glyph data 5" Yacute.sc dx=0 dy=0 dh=20 dv=0 dx=0 dy=0 dh=0 dv=0
PairPos2: "'kern' Horizontal Kerning lookup 10 per glyph data 5" Ygrave.sc dx=0 dy=0 dh=20 dv=0 dx=0 dy=0 dh=0 dv=0
PairPos2: "'kern' Horizontal Kerning lookup 10 per glyph data 5" Y.sc dx=0 dy=0 dh=20 dv=0 dx=0 dy=0 dh=0 dv=0
PairPos2: "'kern' Horizontal Kerning lookup 10 per glyph data 5" X.sc dx=0 dy=0 dh=10 dv=0 dx=0 dy=0 dh=0 dv=0
PairPos2: "'kern' Horizontal Kerning lookup 10 per glyph data 5" Wdieresis.sc dx=0 dy=0 dh=10 dv=0 dx=0 dy=0 dh=0 dv=0
PairPos2: "'kern' Horizontal Kerning lookup 10 per glyph data 5" Wcircumflex.sc dx=0 dy=0 dh=10 dv=0 dx=0 dy=0 dh=0 dv=0
PairPos2: "'kern' Horizontal Kerning lookup 10 per glyph data 5" Wacute.sc dx=0 dy=0 dh=10 dv=0 dx=0 dy=0 dh=0 dv=0
PairPos2: "'kern' Horizontal Kerning lookup 10 per glyph data 5" Wgrave.sc dx=0 dy=0 dh=10 dv=0 dx=0 dy=0 dh=0 dv=0
PairPos2: "'kern' Horizontal Kerning lookup 10 per glyph data 5" W.sc dx=0 dy=0 dh=10 dv=0 dx=0 dy=0 dh=0 dv=0
PairPos2: "'kern' Horizontal Kerning lookup 10 per glyph data 5" V.sc dx=0 dy=0 dh=10 dv=0 dx=0 dy=0 dh=0 dv=0
PairPos2: "'kern' Horizontal Kerning lookup 10 per glyph data 5" uni1EF0.sc dx=0 dy=0 dh=10 dv=0 dx=0 dy=0 dh=0 dv=0
PairPos2: "'kern' Horizontal Kerning lookup 10 per glyph data 5" uni1EEE.sc dx=0 dy=0 dh=10 dv=0 dx=0 dy=0 dh=0 dv=0
PairPos2: "'kern' Horizontal Kerning lookup 10 per glyph data 5" uni1EEC.sc dx=0 dy=0 dh=10 dv=0 dx=0 dy=0 dh=0 dv=0
PairPos2: "'kern' Horizontal Kerning lookup 10 per glyph data 5" uni1EEA.sc dx=0 dy=0 dh=10 dv=0 dx=0 dy=0 dh=0 dv=0
PairPos2: "'kern' Horizontal Kerning lookup 10 per glyph data 5" uni1EE8.sc dx=0 dy=0 dh=10 dv=0 dx=0 dy=0 dh=0 dv=0
PairPos2: "'kern' Horizontal Kerning lookup 10 per glyph data 5" Uhorn.sc dx=0 dy=0 dh=10 dv=0 dx=0 dy=0 dh=0 dv=0
PairPos2: "'kern' Horizontal Kerning lookup 10 per glyph data 5" Uogonek.sc dx=0 dy=0 dh=10 dv=0 dx=0 dy=0 dh=0 dv=0
PairPos2: "'kern' Horizontal Kerning lookup 10 per glyph data 5" uni1EE6.sc dx=0 dy=0 dh=10 dv=0 dx=0 dy=0 dh=0 dv=0
PairPos2: "'kern' Horizontal Kerning lookup 10 per glyph data 5" uni1EE4.sc dx=0 dy=0 dh=10 dv=0 dx=0 dy=0 dh=0 dv=0
PairPos2: "'kern' Horizontal Kerning lookup 10 per glyph data 5" uni01DB.sc dx=0 dy=0 dh=10 dv=0 dx=0 dy=0 dh=0 dv=0
PairPos2: "'kern' Horizontal Kerning lookup 10 per glyph data 5" uni01D9.sc dx=0 dy=0 dh=10 dv=0 dx=0 dy=0 dh=0 dv=0
PairPos2: "'kern' Horizontal Kerning lookup 10 per glyph data 5" uni01D7.sc dx=0 dy=0 dh=10 dv=0 dx=0 dy=0 dh=0 dv=0
PairPos2: "'kern' Horizontal Kerning lookup 10 per glyph data 5" uni01D5.sc dx=0 dy=0 dh=10 dv=0 dx=0 dy=0 dh=0 dv=0
PairPos2: "'kern' Horizontal Kerning lookup 10 per glyph data 5" uni01D3.sc dx=0 dy=0 dh=10 dv=0 dx=0 dy=0 dh=0 dv=0
PairPos2: "'kern' Horizontal Kerning lookup 10 per glyph data 5" Uhungarumlaut.sc dx=0 dy=0 dh=10 dv=0 dx=0 dy=0 dh=0 dv=0
PairPos2: "'kern' Horizontal Kerning lookup 10 per glyph data 5" Uring.sc dx=0 dy=0 dh=10 dv=0 dx=0 dy=0 dh=0 dv=0
PairPos2: "'kern' Horizontal Kerning lookup 10 per glyph data 5" Ubreve.sc dx=0 dy=0 dh=10 dv=0 dx=0 dy=0 dh=0 dv=0
PairPos2: "'kern' Horizontal Kerning lookup 10 per glyph data 5" Umacron.sc dx=0 dy=0 dh=10 dv=0 dx=0 dy=0 dh=0 dv=0
PairPos2: "'kern' Horizontal Kerning lookup 10 per glyph data 5" Udieresis.sc dx=0 dy=0 dh=10 dv=0 dx=0 dy=0 dh=0 dv=0
PairPos2: "'kern' Horizontal Kerning lookup 10 per glyph data 5" Utilde.sc dx=0 dy=0 dh=10 dv=0 dx=0 dy=0 dh=0 dv=0
PairPos2: "'kern' Horizontal Kerning lookup 10 per glyph data 5" Ucircumflex.sc dx=0 dy=0 dh=10 dv=0 dx=0 dy=0 dh=0 dv=0
PairPos2: "'kern' Horizontal Kerning lookup 10 per glyph data 5" Uacute.sc dx=0 dy=0 dh=10 dv=0 dx=0 dy=0 dh=0 dv=0
PairPos2: "'kern' Horizontal Kerning lookup 10 per glyph data 5" Ugrave.sc dx=0 dy=0 dh=10 dv=0 dx=0 dy=0 dh=0 dv=0
PairPos2: "'kern' Horizontal Kerning lookup 10 per glyph data 5" U.sc dx=0 dy=0 dh=10 dv=0 dx=0 dy=0 dh=0 dv=0
PairPos2: "'kern' Horizontal Kerning lookup 10 per glyph data 5" uni0166.sc dx=0 dy=0 dh=-20 dv=0 dx=0 dy=0 dh=0 dv=0
PairPos2: "'kern' Horizontal Kerning lookup 10 per glyph data 5" uni1E6E.sc dx=0 dy=0 dh=-20 dv=0 dx=0 dy=0 dh=0 dv=0
PairPos2: "'kern' Horizontal Kerning lookup 10 per glyph data 5" uni1E6C.sc dx=0 dy=0 dh=-20 dv=0 dx=0 dy=0 dh=0 dv=0
PairPos2: "'kern' Horizontal Kerning lookup 10 per glyph data 5" uni021A.sc dx=0 dy=0 dh=-20 dv=0 dx=0 dy=0 dh=0 dv=0
PairPos2: "'kern' Horizontal Kerning lookup 10 per glyph data 5" uni0162.sc dx=0 dy=0 dh=-20 dv=0 dx=0 dy=0 dh=0 dv=0
PairPos2: "'kern' Horizontal Kerning lookup 10 per glyph data 5" Tcaron.sc dx=0 dy=0 dh=-20 dv=0 dx=0 dy=0 dh=0 dv=0
PairPos2: "'kern' Horizontal Kerning lookup 10 per glyph data 5" T.sc dx=0 dy=0 dh=-20 dv=0 dx=0 dy=0 dh=0 dv=0
PairPos2: "'kern' Horizontal Kerning lookup 10 per glyph data 5" germandbls.sc dx=0 dy=0 dh=10 dv=0 dx=0 dy=0 dh=0 dv=0
PairPos2: "'kern' Horizontal Kerning lookup 10 per glyph data 5" uni1E62.sc dx=0 dy=0 dh=10 dv=0 dx=0 dy=0 dh=0 dv=0
PairPos2: "'kern' Horizontal Kerning lookup 10 per glyph data 5" uni1E60.sc dx=0 dy=0 dh=10 dv=0 dx=0 dy=0 dh=0 dv=0
PairPos2: "'kern' Horizontal Kerning lookup 10 per glyph data 5" uni0218.sc dx=0 dy=0 dh=10 dv=0 dx=0 dy=0 dh=0 dv=0
PairPos2: "'kern' Horizontal Kerning lookup 10 per glyph data 5" uni015E.sc dx=0 dy=0 dh=10 dv=0 dx=0 dy=0 dh=0 dv=0
PairPos2: "'kern' Horizontal Kerning lookup 10 per glyph data 5" Scaron.sc dx=0 dy=0 dh=10 dv=0 dx=0 dy=0 dh=0 dv=0
PairPos2: "'kern' Horizontal Kerning lookup 10 per glyph data 5" Scircumflex.sc dx=0 dy=0 dh=10 dv=0 dx=0 dy=0 dh=0 dv=0
PairPos2: "'kern' Horizontal Kerning lookup 10 per glyph data 5" Sacute.sc dx=0 dy=0 dh=10 dv=0 dx=0 dy=0 dh=0 dv=0
PairPos2: "'kern' Horizontal Kerning lookup 10 per glyph data 5" S.sc dx=0 dy=0 dh=10 dv=0 dx=0 dy=0 dh=0 dv=0
PairPos2: "'kern' Horizontal Kerning lookup 10 per glyph data 5" Aogonek.sc dx=0 dy=0 dh=20 dv=0 dx=0 dy=0 dh=0 dv=0
PairPos2: "'kern' Horizontal Kerning lookup 10 per glyph data 5" uni1EB6.sc dx=0 dy=0 dh=20 dv=0 dx=0 dy=0 dh=0 dv=0
PairPos2: "'kern' Horizontal Kerning lookup 10 per glyph data 5" uni1EB4.sc dx=0 dy=0 dh=20 dv=0 dx=0 dy=0 dh=0 dv=0
PairPos2: "'kern' Horizontal Kerning lookup 10 per glyph data 5" uni1EB2.sc dx=0 dy=0 dh=20 dv=0 dx=0 dy=0 dh=0 dv=0
PairPos2: "'kern' Horizontal Kerning lookup 10 per glyph data 5" uni1EB0.sc dx=0 dy=0 dh=20 dv=0 dx=0 dy=0 dh=0 dv=0
PairPos2: "'kern' Horizontal Kerning lookup 10 per glyph data 5" uni1EAE.sc dx=0 dy=0 dh=20 dv=0 dx=0 dy=0 dh=0 dv=0
PairPos2: "'kern' Horizontal Kerning lookup 10 per glyph data 5" uni1EAC.sc dx=0 dy=0 dh=20 dv=0 dx=0 dy=0 dh=0 dv=0
PairPos2: "'kern' Horizontal Kerning lookup 10 per glyph data 5" uni1EAA.sc dx=0 dy=0 dh=20 dv=0 dx=0 dy=0 dh=0 dv=0
PairPos2: "'kern' Horizontal Kerning lookup 10 per glyph data 5" uni1EA8.sc dx=0 dy=0 dh=20 dv=0 dx=0 dy=0 dh=0 dv=0
PairPos2: "'kern' Horizontal Kerning lookup 10 per glyph data 5" uni1EA6.sc dx=0 dy=0 dh=20 dv=0 dx=0 dy=0 dh=0 dv=0
PairPos2: "'kern' Horizontal Kerning lookup 10 per glyph data 5" uni1EA4.sc dx=0 dy=0 dh=20 dv=0 dx=0 dy=0 dh=0 dv=0
PairPos2: "'kern' Horizontal Kerning lookup 10 per glyph data 5" uni1EA2.sc dx=0 dy=0 dh=20 dv=0 dx=0 dy=0 dh=0 dv=0
PairPos2: "'kern' Horizontal Kerning lookup 10 per glyph data 5" uni1EA0.sc dx=0 dy=0 dh=20 dv=0 dx=0 dy=0 dh=0 dv=0
PairPos2: "'kern' Horizontal Kerning lookup 10 per glyph data 5" uni01CD.sc dx=0 dy=0 dh=20 dv=0 dx=0 dy=0 dh=0 dv=0
PairPos2: "'kern' Horizontal Kerning lookup 10 per glyph data 5" Aring.sc dx=0 dy=0 dh=20 dv=0 dx=0 dy=0 dh=0 dv=0
PairPos2: "'kern' Horizontal Kerning lookup 10 per glyph data 5" Abreve.sc dx=0 dy=0 dh=20 dv=0 dx=0 dy=0 dh=0 dv=0
PairPos2: "'kern' Horizontal Kerning lookup 10 per glyph data 5" Amacron.sc dx=0 dy=0 dh=20 dv=0 dx=0 dy=0 dh=0 dv=0
PairPos2: "'kern' Horizontal Kerning lookup 10 per glyph data 5" Adieresis.sc dx=0 dy=0 dh=20 dv=0 dx=0 dy=0 dh=0 dv=0
PairPos2: "'kern' Horizontal Kerning lookup 10 per glyph data 5" Atilde.sc dx=0 dy=0 dh=20 dv=0 dx=0 dy=0 dh=0 dv=0
PairPos2: "'kern' Horizontal Kerning lookup 10 per glyph data 5" Acircumflex.sc dx=0 dy=0 dh=20 dv=0 dx=0 dy=0 dh=0 dv=0
PairPos2: "'kern' Horizontal Kerning lookup 10 per glyph data 5" Aacute.sc dx=0 dy=0 dh=20 dv=0 dx=0 dy=0 dh=0 dv=0
PairPos2: "'kern' Horizontal Kerning lookup 10 per glyph data 5" Agrave.sc dx=0 dy=0 dh=20 dv=0 dx=0 dy=0 dh=0 dv=0
PairPos2: "'kern' Horizontal Kerning lookup 10 per glyph data 5" A.sc dx=0 dy=0 dh=20 dv=0 dx=0 dy=0 dh=0 dv=0
PairPos2: "'kern' Horizontal Kerning lookup 10 per glyph data 5" asterisk dx=0 dy=0 dh=-10 dv=0 dx=0 dy=0 dh=0 dv=0
PairPos2: "'kern' Horizontal Kerning lookup 10 per glyph data 5" uni0166 dx=0 dy=0 dh=-20 dv=0 dx=0 dy=0 dh=0 dv=0
PairPos2: "'kern' Horizontal Kerning lookup 10 per glyph data 5" uni1E6E dx=0 dy=0 dh=-20 dv=0 dx=0 dy=0 dh=0 dv=0
PairPos2: "'kern' Horizontal Kerning lookup 10 per glyph data 5" uni1E6C dx=0 dy=0 dh=-20 dv=0 dx=0 dy=0 dh=0 dv=0
PairPos2: "'kern' Horizontal Kerning lookup 10 per glyph data 5" uni021A dx=0 dy=0 dh=-20 dv=0 dx=0 dy=0 dh=0 dv=0
PairPos2: "'kern' Horizontal Kerning lookup 10 per glyph data 5" uni0162 dx=0 dy=0 dh=-20 dv=0 dx=0 dy=0 dh=0 dv=0
PairPos2: "'kern' Horizontal Kerning lookup 10 per glyph data 5" Tcaron dx=0 dy=0 dh=-20 dv=0 dx=0 dy=0 dh=0 dv=0
PairPos2: "'kern' Horizontal Kerning lookup 10 per glyph data 5" T dx=0 dy=0 dh=-20 dv=0 dx=0 dy=0 dh=0 dv=0
PairPos2: "'kern' Horizontal Kerning lookup 10 per glyph data 5" uni0288 dx=0 dy=0 dh=-8 dv=0 dx=0 dy=0 dh=0 dv=0
PairPos2: "'kern' Horizontal Kerning lookup 10 per glyph data 5" uni0167 dx=0 dy=0 dh=-8 dv=0 dx=0 dy=0 dh=0 dv=0
PairPos2: "'kern' Horizontal Kerning lookup 10 per glyph data 5" uni1E97 dx=0 dy=0 dh=-8 dv=0 dx=0 dy=0 dh=0 dv=0
PairPos2: "'kern' Horizontal Kerning lookup 10 per glyph data 5" uni1E6F dx=0 dy=0 dh=-8 dv=0 dx=0 dy=0 dh=0 dv=0
PairPos2: "'kern' Horizontal Kerning lookup 10 per glyph data 5" uni1E6D dx=0 dy=0 dh=-8 dv=0 dx=0 dy=0 dh=0 dv=0
PairPos2: "'kern' Horizontal Kerning lookup 10 per glyph data 5" uni021B dx=0 dy=0 dh=-8 dv=0 dx=0 dy=0 dh=0 dv=0
PairPos2: "'kern' Horizontal Kerning lookup 10 per glyph data 5" uni0163 dx=0 dy=0 dh=-8 dv=0 dx=0 dy=0 dh=0 dv=0
PairPos2: "'kern' Horizontal Kerning lookup 10 per glyph data 5" tcaron dx=0 dy=0 dh=-8 dv=0 dx=0 dy=0 dh=0 dv=0
PairPos2: "'kern' Horizontal Kerning lookup 10 per glyph data 5" t dx=0 dy=0 dh=-8 dv=0 dx=0 dy=0 dh=0 dv=0
EndChar
StartChar: bracketright
Encoding: 93 93 1178
Width: 270
Flags: MW
HStem: -152 22<18 146 18 146 18 170> 686 22<18 146 18 170>
VStem: 146 24<-130 686 686 686>
LayerCount: 2
Fore
SplineSet
18 -152 m 1
 18 -130 l 1
 146 -130 l 1
 146 686 l 1
 18 686 l 1
 18 708 l 1
 170 708 l 1
 170 -152 l 1
 18 -152 l 1
EndSplineSet
Substitution2: "'c2sc' Capitals to Small Capitals lookup 19 subtable" bracketright.sc
Substitution2: "'aalt' Access All Alternates lookup 0 subtable" bracketright.sc
EndChar
StartChar: grave
Encoding: 96 96 1804
Width: 532
Flags: MW
HStem: 574 170<186 300>
VStem: 162 156<590 724>
LayerCount: 2
Fore
SplineSet
300 574 m 1
 162 724 l 1
 186 744 l 1
 318 590 l 1
 300 574 l 1
EndSplineSet
EndChar
StartChar: a
Encoding: 97 97 28
Width: 486
GlyphClass: 2
Flags: MW
HStem: -12 28<171 229 171 230> 0 21G<378 404 378 378> 462 28<222 306>
VStem: 60 32<81 159 81 170.5> 374 30<64 64 98 272 272 272>
AnchorPoint: "Anchor-7" 404 0 basechar 0
AnchorPoint: "Anchor-4" 242 -22 basechar 0
AnchorPoint: "Anchor-0" 260 502 basechar 0
LayerCount: 2
Fore
SplineSet
198 -12 m 0xb8
 124 -12 60 26 60 117 c 0
 60 224 158 274 374 298 c 1
 376 376 356 462 256 462 c 0
 188 462 130 428 100 404 c 1
 84 428 l 1
 114 450 180 490 258 490 c 0
 370 490 404 406 404 310 c 2
 404 0 l 1
 378 0 l 1x78
 374 64 l 1
 372 64 l 1
 322 24 262 -12 198 -12 c 0xb8
200 16 m 0
 258 16 310 44 374 98 c 1
 374 272 l 1
 164 248 92 200 92 118 c 0
 92 44 142 16 200 16 c 0
EndSplineSet
Substitution2: "'ss02' Style Set 2 lookup 39 subtable" a.a
Substitution2: "'sups' Superscript lookup 26 subtable" a.sups
Substitution2: "'smcp' Lowercase to Small Capitals lookup 20 subtable" A.sc
AlternateSubs2: "'aalt' Access All Alternates lookup 1 subtable" A.sc a.sups a.a
PairPos2: "'kern' Horizontal Kerning lookup 10 per glyph data 5" asterisk dx=0 dy=0 dh=-62 dv=0 dx=0 dy=0 dh=0 dv=0
PairPos2: "'kern' Horizontal Kerning lookup 10 per glyph data 5" uni02BE dx=0 dy=0 dh=-8 dv=0 dx=0 dy=0 dh=0 dv=0
PairPos2: "'kern' Horizontal Kerning lookup 10 per glyph data 5" uni02BC dx=0 dy=0 dh=-8 dv=0 dx=0 dy=0 dh=0 dv=0
PairPos2: "'kern' Horizontal Kerning lookup 10 per glyph data 5" quotedblright dx=0 dy=0 dh=-8 dv=0 dx=0 dy=0 dh=0 dv=0
PairPos2: "'kern' Horizontal Kerning lookup 10 per glyph data 5" quoteright dx=0 dy=0 dh=-8 dv=0 dx=0 dy=0 dh=0 dv=0
PairPos2: "'kern' Horizontal Kerning lookup 10 per glyph data 5" uni203D dx=0 dy=0 dh=4 dv=0 dx=0 dy=0 dh=0 dv=0
PairPos2: "'kern' Horizontal Kerning lookup 10 per glyph data 5" uni2048 dx=0 dy=0 dh=4 dv=0 dx=0 dy=0 dh=0 dv=0
PairPos2: "'kern' Horizontal Kerning lookup 10 per glyph data 5" uni2047 dx=0 dy=0 dh=4 dv=0 dx=0 dy=0 dh=0 dv=0
PairPos2: "'kern' Horizontal Kerning lookup 10 per glyph data 5" question dx=0 dy=0 dh=4 dv=0 dx=0 dy=0 dh=0 dv=0
PairPos2: "'kern' Horizontal Kerning lookup 10 per glyph data 5" uni1EF8 dx=0 dy=0 dh=-20 dv=0 dx=0 dy=0 dh=0 dv=0
PairPos2: "'kern' Horizontal Kerning lookup 10 per glyph data 5" uni1EF6 dx=0 dy=0 dh=-20 dv=0 dx=0 dy=0 dh=0 dv=0
PairPos2: "'kern' Horizontal Kerning lookup 10 per glyph data 5" uni1EF4 dx=0 dy=0 dh=-20 dv=0 dx=0 dy=0 dh=0 dv=0
PairPos2: "'kern' Horizontal Kerning lookup 10 per glyph data 5" uni1E8E dx=0 dy=0 dh=-20 dv=0 dx=0 dy=0 dh=0 dv=0
PairPos2: "'kern' Horizontal Kerning lookup 10 per glyph data 5" Ydieresis dx=0 dy=0 dh=-20 dv=0 dx=0 dy=0 dh=0 dv=0
PairPos2: "'kern' Horizontal Kerning lookup 10 per glyph data 5" Ycircumflex dx=0 dy=0 dh=-20 dv=0 dx=0 dy=0 dh=0 dv=0
PairPos2: "'kern' Horizontal Kerning lookup 10 per glyph data 5" Yacute dx=0 dy=0 dh=-20 dv=0 dx=0 dy=0 dh=0 dv=0
PairPos2: "'kern' Horizontal Kerning lookup 10 per glyph data 5" Ygrave dx=0 dy=0 dh=-20 dv=0 dx=0 dy=0 dh=0 dv=0
PairPos2: "'kern' Horizontal Kerning lookup 10 per glyph data 5" Y dx=0 dy=0 dh=-20 dv=0 dx=0 dy=0 dh=0 dv=0
PairPos2: "'kern' Horizontal Kerning lookup 10 per glyph data 5" V dx=0 dy=0 dh=-8 dv=0 dx=0 dy=0 dh=0 dv=0
PairPos2: "'kern' Horizontal Kerning lookup 10 per glyph data 5" uni0166 dx=0 dy=0 dh=-20 dv=0 dx=0 dy=0 dh=0 dv=0
PairPos2: "'kern' Horizontal Kerning lookup 10 per glyph data 5" uni1E6E dx=0 dy=0 dh=-20 dv=0 dx=0 dy=0 dh=0 dv=0
PairPos2: "'kern' Horizontal Kerning lookup 10 per glyph data 5" uni1E6C dx=0 dy=0 dh=-20 dv=0 dx=0 dy=0 dh=0 dv=0
PairPos2: "'kern' Horizontal Kerning lookup 10 per glyph data 5" uni021A dx=0 dy=0 dh=-20 dv=0 dx=0 dy=0 dh=0 dv=0
PairPos2: "'kern' Horizontal Kerning lookup 10 per glyph data 5" uni0162 dx=0 dy=0 dh=-20 dv=0 dx=0 dy=0 dh=0 dv=0
PairPos2: "'kern' Horizontal Kerning lookup 10 per glyph data 5" Tcaron dx=0 dy=0 dh=-20 dv=0 dx=0 dy=0 dh=0 dv=0
PairPos2: "'kern' Horizontal Kerning lookup 10 per glyph data 5" T dx=0 dy=0 dh=-20 dv=0 dx=0 dy=0 dh=0 dv=0
PairPos2: "'kern' Horizontal Kerning lookup 10 per glyph data 5" uni0288 dx=0 dy=0 dh=-10 dv=0 dx=0 dy=0 dh=0 dv=0
PairPos2: "'kern' Horizontal Kerning lookup 10 per glyph data 5" uni0167 dx=0 dy=0 dh=-10 dv=0 dx=0 dy=0 dh=0 dv=0
PairPos2: "'kern' Horizontal Kerning lookup 10 per glyph data 5" uni1E97 dx=0 dy=0 dh=-10 dv=0 dx=0 dy=0 dh=0 dv=0
PairPos2: "'kern' Horizontal Kerning lookup 10 per glyph data 5" uni1E6F dx=0 dy=0 dh=-10 dv=0 dx=0 dy=0 dh=0 dv=0
PairPos2: "'kern' Horizontal Kerning lookup 10 per glyph data 5" uni1E6D dx=0 dy=0 dh=-10 dv=0 dx=0 dy=0 dh=0 dv=0
PairPos2: "'kern' Horizontal Kerning lookup 10 per glyph data 5" uni021B dx=0 dy=0 dh=-10 dv=0 dx=0 dy=0 dh=0 dv=0
PairPos2: "'kern' Horizontal Kerning lookup 10 per glyph data 5" uni0163 dx=0 dy=0 dh=-10 dv=0 dx=0 dy=0 dh=0 dv=0
PairPos2: "'kern' Horizontal Kerning lookup 10 per glyph data 5" tcaron dx=0 dy=0 dh=-10 dv=0 dx=0 dy=0 dh=0 dv=0
PairPos2: "'kern' Horizontal Kerning lookup 10 per glyph data 5" t dx=0 dy=0 dh=-10 dv=0 dx=0 dy=0 dh=0 dv=0
EndChar
StartChar: d
Encoding: 100 100 31
Width: 540
GlyphClass: 2
Flags: MW
HStem: -12 28<200 282 200 285> 0 21G<418 444 418 418> 462 28<215 291> 702 20G<414 444 444 444>
VStem: 54 32<172 300 172 315> 414 30<64 64 100 396 396 396 520 722 0 722>
AnchorPoint: "Anchor-4" 292 -22 basechar 0
AnchorPoint: "Anchor-0" 380 730 basechar 0
LayerCount: 2
Fore
SplineSet
252 -12 m 0xbc
 132 -12 54 76 54 238 c 0
 54 392 152 490 268 490 c 0
 326 490 366 468 416 430 c 1
 414 520 l 1
 414 722 l 1
 444 722 l 1
 444 0 l 1
 418 0 l 1x7c
 414 64 l 1
 412 64 l 1
 372 24 318 -12 252 -12 c 0xbc
254 16 m 0
 310 16 360 46 414 100 c 1
 414 396 l 1
 360 444 316 462 266 462 c 0
 164 462 86 362 86 238 c 0
 86 106 146 16 254 16 c 0
EndSplineSet
Substitution2: "'sups' Superscript lookup 26 subtable" d.sups
Substitution2: "'smcp' Lowercase to Small Capitals lookup 20 subtable" D.sc
AlternateSubs2: "'aalt' Access All Alternates lookup 1 subtable" D.sc d.sups
EndChar
StartChar: i
Encoding: 105 105 36
Width: 222
GlyphClass: 2
Flags: MW
HStem: 0 21G<96 96 96 126> 458 20G<96 126 126 126> 600 68<103 121>
VStem: 78 68<624 645> 96 30<0 478 0 478>
AnchorPoint: "Anchor-7" 130 0 basechar 0
AnchorPoint: "Anchor-4" 110 -22 basechar 0
AnchorPoint: "Anchor-0" 110 672 basechar 0
LayerCount: 2
Fore
SplineSet
96 0 m 1xe8
 96 478 l 1
 126 478 l 1
 126 0 l 1
 96 0 l 1xe8
112 600 m 0xf0
 94 600 78 614 78 634 c 0
 78 656 94 668 112 668 c 0
 130 668 146 656 146 634 c 0
 146 614 130 600 112 600 c 0xf0
EndSplineSet
Substitution2: "'sups' Superscript lookup 26 subtable" i.sups
Substitution2: "'smcp' Lowercase to Small Capitals lookup 20 subtable" I.sc
Substitution2: "'locl' Localized Forms in Latin lookup 2 subtable" i.trk
AlternateSubs2: "'aalt' Access All Alternates lookup 1 subtable" i.trk I.sc i.sups
EndChar
StartChar: j
Encoding: 106 106 37
Width: 222
GlyphClass: 2
Flags: MW
HStem: -234 28<20 58 20 61> -222 21G<-30 -30> 458 20G<96 126 126 126> 600 68<103 121>
VStem: 78 68<624 645> 96 30<-98 478>
AnchorPoint: "Anchor-4" 44 -228 basechar 0
AnchorPoint: "Anchor-0" 112 672 basechar 0
LayerCount: 2
Fore
SplineSet
28 -234 m 0xb4
 8 -234 -16 -228 -30 -222 c 1x74
 -22 -196 l 1
 -10 -200 10 -206 30 -206 c 0
 86 -206 96 -160 96 -98 c 2
 96 478 l 1
 126 478 l 1
 126 -102 l 2
 126 -194 94 -234 28 -234 c 0xb4
112 600 m 0xb8
 94 600 78 614 78 634 c 0
 78 656 94 668 112 668 c 0
 130 668 146 656 146 634 c 0
 146 614 130 600 112 600 c 0xb8
EndSplineSet
Substitution2: "'sups' Superscript lookup 26 subtable" j.sups
Substitution2: "'smcp' Lowercase to Small Capitals lookup 20 subtable" J.sc
AlternateSubs2: "'aalt' Access All Alternates lookup 1 subtable" J.sc j.sups
EndChar
StartChar: u
Encoding: 117 117 48
Width: 524
GlyphClass: 2
Flags: MW
HStem: -12 28<193 264 193 265> 0 21G<402 428 402 402> 458 20G<88 118 118 118 398 428 428 428>
VStem: 88 30<170 174 174 478> 398 30<82 82 120 478 0 478>
AnchorPoint: "Anchor-7" 406 0 basechar 0
AnchorPoint: "Anchor-6" 396 488 basechar 0
AnchorPoint: "Anchor-4" 280 -22 basechar 0
AnchorPoint: "Anchor-0" 262 502 basechar 0
LayerCount: 2
Fore
SplineSet
232 -12 m 0xb8
 134 -12 88 46 88 170 c 2
 88 478 l 1
 118 478 l 1
 118 174 l 2
 118 68 152 16 234 16 c 0xb8
 294 16 338 48 398 120 c 1
 398 478 l 1
 428 478 l 1
 428 0 l 1
 402 0 l 1x78
 398 82 l 1
 396 82 l 1
 348 26 298 -12 232 -12 c 0xb8
EndSplineSet
Substitution2: "'sups' Superscript lookup 26 subtable" u.sups
Substitution2: "'smcp' Lowercase to Small Capitals lookup 20 subtable" U.sc
AlternateSubs2: "'aalt' Access All Alternates lookup 1 subtable" U.sc u.sups
PairPos2: "'kern' Horizontal Kerning lookup 10 per glyph data 5" hbar dx=0 dy=0 dh=-10 dv=0 dx=0 dy=0 dh=0 dv=0
PairPos2: "'kern' Horizontal Kerning lookup 10 per glyph data 5" uni0180 dx=0 dy=0 dh=-10 dv=0 dx=0 dy=0 dh=0 dv=0
PairPos2: "'kern' Horizontal Kerning lookup 10 per glyph data 5" asterisk dx=0 dy=0 dh=-32 dv=0 dx=0 dy=0 dh=0 dv=0
PairPos2: "'kern' Horizontal Kerning lookup 10 per glyph data 5" uni1EF8 dx=0 dy=0 dh=-30 dv=0 dx=0 dy=0 dh=0 dv=0
PairPos2: "'kern' Horizontal Kerning lookup 10 per glyph data 5" uni1EF6 dx=0 dy=0 dh=-30 dv=0 dx=0 dy=0 dh=0 dv=0
PairPos2: "'kern' Horizontal Kerning lookup 10 per glyph data 5" uni1EF4 dx=0 dy=0 dh=-30 dv=0 dx=0 dy=0 dh=0 dv=0
PairPos2: "'kern' Horizontal Kerning lookup 10 per glyph data 5" uni1E8E dx=0 dy=0 dh=-30 dv=0 dx=0 dy=0 dh=0 dv=0
PairPos2: "'kern' Horizontal Kerning lookup 10 per glyph data 5" Ydieresis dx=0 dy=0 dh=-30 dv=0 dx=0 dy=0 dh=0 dv=0
PairPos2: "'kern' Horizontal Kerning lookup 10 per glyph data 5" Ycircumflex dx=0 dy=0 dh=-30 dv=0 dx=0 dy=0 dh=0 dv=0
PairPos2: "'kern' Horizontal Kerning lookup 10 per glyph data 5" Yacute dx=0 dy=0 dh=-30 dv=0 dx=0 dy=0 dh=0 dv=0
PairPos2: "'kern' Horizontal Kerning lookup 10 per glyph data 5" Ygrave dx=0 dy=0 dh=-30 dv=0 dx=0 dy=0 dh=0 dv=0
PairPos2: "'kern' Horizontal Kerning lookup 10 per glyph data 5" Y dx=0 dy=0 dh=-30 dv=0 dx=0 dy=0 dh=0 dv=0
PairPos2: "'kern' Horizontal Kerning lookup 10 per glyph data 5" V dx=0 dy=0 dh=-10 dv=0 dx=0 dy=0 dh=0 dv=0
PairPos2: "'kern' Horizontal Kerning lookup 10 per glyph data 5" uni0166 dx=0 dy=0 dh=-20 dv=0 dx=0 dy=0 dh=0 dv=0
PairPos2: "'kern' Horizontal Kerning lookup 10 per glyph data 5" uni1E6E dx=0 dy=0 dh=-20 dv=0 dx=0 dy=0 dh=0 dv=0
PairPos2: "'kern' Horizontal Kerning lookup 10 per glyph data 5" uni1E6C dx=0 dy=0 dh=-20 dv=0 dx=0 dy=0 dh=0 dv=0
PairPos2: "'kern' Horizontal Kerning lookup 10 per glyph data 5" uni021A dx=0 dy=0 dh=-20 dv=0 dx=0 dy=0 dh=0 dv=0
PairPos2: "'kern' Horizontal Kerning lookup 10 per glyph data 5" uni0162 dx=0 dy=0 dh=-20 dv=0 dx=0 dy=0 dh=0 dv=0
PairPos2: "'kern' Horizontal Kerning lookup 10 per glyph data 5" Tcaron dx=0 dy=0 dh=-20 dv=0 dx=0 dy=0 dh=0 dv=0
PairPos2: "'kern' Horizontal Kerning lookup 10 per glyph data 5" T dx=0 dy=0 dh=-20 dv=0 dx=0 dy=0 dh=0 dv=0
EndChar
StartChar: asciitilde
Encoding: 126 126 1761
Width: 472
Flags: MW
HStem: 270 28<299 343> 362 28<129 173>
VStem: 42 388<310 348>
LayerCount: 2
Fore
SplineSet
326 270 m 0
 250 270 202 362 144 362 c 0
 114 362 88 346 64 298 c 1
 42 310 l 1
 68 364 108 390 146 390 c 0
 222 390 270 298 328 298 c 0
 358 298 384 314 408 362 c 1
 430 348 l 1
 404 296 364 270 326 270 c 0
EndSplineSet
EndChar
StartChar: exclamdown
Encoding: 161 161 1147
Width: 248
Flags: MW
HStem: 412 78<115 133> 470 20G<115 133>
VStem: 88 72<439 464> 108 32<-192 -130 -192 -130>
LayerCount: 2
Fore
SplineSet
108 -192 m 1x50
 108 -130 l 1
 112 306 l 1
 136 306 l 1
 140 -130 l 1
 140 -192 l 1
 108 -192 l 1x50
124 412 m 0xa0
 106 412 88 426 88 452 c 0
 88 476 106 490 124 490 c 0
 142 490 160 476 160 452 c 0
 160 426 142 412 124 412 c 0xa0
EndSplineSet
Substitution2: "'c2sc' Capitals to Small Capitals lookup 19 subtable" exclamdown.sc
Substitution2: "'aalt' Access All Alternates lookup 0 subtable" exclamdown.sc
PairPos2: "'kern' Horizontal Kerning lookup 10 per glyph data 4" uni1EF8 dx=0 dy=0 dh=-24 dv=0 dx=0 dy=0 dh=0 dv=0
PairPos2: "'kern' Horizontal Kerning lookup 10 per glyph data 4" uni1EF6 dx=0 dy=0 dh=-24 dv=0 dx=0 dy=0 dh=0 dv=0
PairPos2: "'kern' Horizontal Kerning lookup 10 per glyph data 4" uni1EF4 dx=0 dy=0 dh=-24 dv=0 dx=0 dy=0 dh=0 dv=0
PairPos2: "'kern' Horizontal Kerning lookup 10 per glyph data 4" uni1E8E dx=0 dy=0 dh=-24 dv=0 dx=0 dy=0 dh=0 dv=0
PairPos2: "'kern' Horizontal Kerning lookup 10 per glyph data 4" Ydieresis dx=0 dy=0 dh=-24 dv=0 dx=0 dy=0 dh=0 dv=0
PairPos2: "'kern' Horizontal Kerning lookup 10 per glyph data 4" Ycircumflex dx=0 dy=0 dh=-24 dv=0 dx=0 dy=0 dh=0 dv=0
PairPos2: "'kern' Horizontal Kerning lookup 10 per glyph data 4" Yacute dx=0 dy=0 dh=-24 dv=0 dx=0 dy=0 dh=0 dv=0
PairPos2: "'kern' Horizontal Kerning lookup 10 per glyph data 4" Ygrave dx=0 dy=0 dh=-24 dv=0 dx=0 dy=0 dh=0 dv=0
PairPos2: "'kern' Horizontal Kerning lookup 10 per glyph data 4" Y dx=0 dy=0 dh=-24 dv=0 dx=0 dy=0 dh=0 dv=0
PairPos2: "'kern' Horizontal Kerning lookup 10 per glyph data 4" Wdieresis dx=0 dy=0 dh=-8 dv=0 dx=0 dy=0 dh=0 dv=0
PairPos2: "'kern' Horizontal Kerning lookup 10 per glyph data 4" Wcircumflex dx=0 dy=0 dh=-8 dv=0 dx=0 dy=0 dh=0 dv=0
PairPos2: "'kern' Horizontal Kerning lookup 10 per glyph data 4" Wacute dx=0 dy=0 dh=-8 dv=0 dx=0 dy=0 dh=0 dv=0
PairPos2: "'kern' Horizontal Kerning lookup 10 per glyph data 4" Wgrave dx=0 dy=0 dh=-8 dv=0 dx=0 dy=0 dh=0 dv=0
PairPos2: "'kern' Horizontal Kerning lookup 10 per glyph data 4" W dx=0 dy=0 dh=-8 dv=0 dx=0 dy=0 dh=0 dv=0
PairPos2: "'kern' Horizontal Kerning lookup 10 per glyph data 4" V dx=0 dy=0 dh=-16 dv=0 dx=0 dy=0 dh=0 dv=0
PairPos2: "'kern' Horizontal Kerning lookup 10 per glyph data 4" uni0284 dx=0 dy=0 dh=40 dv=0 dx=0 dy=0 dh=0 dv=0
PairPos2: "'kern' Horizontal Kerning lookup 10 per glyph data 4" uni0283 dx=0 dy=0 dh=40 dv=0 dx=0 dy=0 dh=0 dv=0
PairPos2: "'kern' Horizontal Kerning lookup 10 per glyph data 4" uni0272 dx=0 dy=0 dh=40 dv=0 dx=0 dy=0 dh=0 dv=0
PairPos2: "'kern' Horizontal Kerning lookup 10 per glyph data 4" uni025F dx=0 dy=0 dh=40 dv=0 dx=0 dy=0 dh=0 dv=0
PairPos2: "'kern' Horizontal Kerning lookup 10 per glyph data 4" uni0237 dx=0 dy=0 dh=40 dv=0 dx=0 dy=0 dh=0 dv=0
PairPos2: "'kern' Horizontal Kerning lookup 10 per glyph data 4" jcircumflex dx=0 dy=0 dh=40 dv=0 dx=0 dy=0 dh=0 dv=0
PairPos2: "'kern' Horizontal Kerning lookup 10 per glyph data 4" j dx=0 dy=0 dh=40 dv=0 dx=0 dy=0 dh=0 dv=0
PairPos2: "'kern' Horizontal Kerning lookup 10 per glyph data 4" uni1FE9 dx=0 dy=0 dh=-24 dv=0 dx=0 dy=0 dh=0 dv=0
PairPos2: "'kern' Horizontal Kerning lookup 10 per glyph data 4" uni1FE8 dx=0 dy=0 dh=-24 dv=0 dx=0 dy=0 dh=0 dv=0
PairPos2: "'kern' Horizontal Kerning lookup 10 per glyph data 4" Upsilondieresis dx=0 dy=0 dh=-24 dv=0 dx=0 dy=0 dh=0 dv=0
PairPos2: "'kern' Horizontal Kerning lookup 10 per glyph data 4" Upsilon dx=0 dy=0 dh=-24 dv=0 dx=0 dy=0 dh=0 dv=0
PairPos2: "'kern' Horizontal Kerning lookup 10 per glyph data 4" uni0458 dx=0 dy=0 dh=40 dv=0 dx=0 dy=0 dh=0 dv=0
PairPos2: "'kern' Horizontal Kerning lookup 10 per glyph data 4" uni0474 dx=0 dy=0 dh=-16 dv=0 dx=0 dy=0 dh=0 dv=0
EndChar
StartChar: cent
Encoding: 162 162 1707
Width: 472
Flags: MW
HStem: 84 28<280 309> 512 28<280 303> 632 20G<252 280 280 280>
VStem: 62 32<256.5 367 256.5 381> 252 28<-26 84 -26 85 -26 85 113 510 510 510 540 652>
LayerCount: 2
Fore
SplineSet
94 312 m 0
 94 201 156 124 252 113 c 1
 252 510 l 1
 162 499 94 422 94 312 c 0
252 -26 m 1
 252 85 l 1
 142 95 62 176 62 312 c 0
 62 450 148 528 252 539 c 1
 252 652 l 1
 280 652 l 1
 280 540 l 1
 344 539 385 509 416 480 c 1
 398 460 l 1
 366 490 326 512 280 512 c 1
 280 112 l 1
 332 113 377 138 410 168 c 1
 428 148 l 1
 388 112 338 84 280 84 c 1
 280 -26 l 1
 252 -26 l 1
EndSplineSet
EndChar
StartChar: yen
Encoding: 165 165 1704
Width: 472
Flags: MW
HStem: 0 21G<220 220 220 250> 168 28<52 220 52 220 250 420> 270 28<52 208 52 220 52 208 262 420> 620 20G<32 66 66 66 408 440 440 440>
VStem: 220 30<0 168 0 168 196 270>
LayerCount: 2
Fore
SplineSet
220 0 m 1
 220 168 l 1
 52 168 l 1
 52 196 l 1
 220 196 l 1
 220 270 l 1
 52 270 l 1
 52 298 l 1
 208 298 l 1
 32 640 l 1
 66 640 l 1
 166 438 l 2
 188 394 210 350 234 300 c 1
 238 300 l 1
 264 350 284 394 308 438 c 1
 408 640 l 1
 440 640 l 1
 262 298 l 1
 420 298 l 1
 420 270 l 1
 250 270 l 1
 250 196 l 1
 420 196 l 1
 420 168 l 1
 250 168 l 1
 250 0 l 1
 220 0 l 1
EndSplineSet
PairPos2: "'kern' Horizontal Kerning lookup 10 per glyph data 0" seven.onum dx=0 dy=0 dh=-22 dv=0 dx=0 dy=0 dh=0 dv=0
PairPos2: "'kern' Horizontal Kerning lookup 10 per glyph data 0" five.onum dx=0 dy=0 dh=-10 dv=0 dx=0 dy=0 dh=0 dv=0
PairPos2: "'kern' Horizontal Kerning lookup 10 per glyph data 0" three.onum dx=0 dy=0 dh=-22 dv=0 dx=0 dy=0 dh=0 dv=0
PairPos2: "'kern' Horizontal Kerning lookup 10 per glyph data 0" two.onum dx=0 dy=0 dh=-10 dv=0 dx=0 dy=0 dh=0 dv=0
PairPos2: "'kern' Horizontal Kerning lookup 10 per glyph data 0" three.pnum dx=0 dy=0 dh=-10 dv=0 dx=0 dy=0 dh=0 dv=0
PairPos2: "'kern' Horizontal Kerning lookup 10 per glyph data 0" two.pnum dx=0 dy=0 dh=-10 dv=0 dx=0 dy=0 dh=0 dv=0
EndChar
StartChar: dieresis
Encoding: 168 168 1814
Width: 532
Flags: MW
HStem: 602 64<171 189 343 361>
VStem: 148 64<625 643> 320 64<625 643>
LayerCount: 2
Fore
SplineSet
180 602 m 0
 162 602 148 616 148 634 c 0
 148 652 162 666 180 666 c 0
 198 666 212 652 212 634 c 0
 212 616 198 602 180 602 c 0
352 602 m 0
 334 602 320 616 320 634 c 0
 320 652 334 666 352 666 c 0
 370 666 384 652 384 634 c 0
 384 616 370 602 352 602 c 0
EndSplineSet
EndChar
StartChar: copyright
Encoding: 169 169 1206
Width: 740
Flags: MW
HStem: -12 26<293 447 293 456> 124 30<334 401 334 407> 478 30<337 399> 626 26<293 447>
VStem: 52 30<230 413 230 422> 202 34<270 369 270 380> 658 30<230 413>
LayerCount: 2
Fore
SplineSet
370 -12 m 0
 198 -12 52 120 52 322 c 0
 52 522 198 652 370 652 c 0
 542 652 688 522 688 322 c 0
 688 120 542 -12 370 -12 c 0
370 14 m 0
 524 14 658 138 658 322 c 0
 658 504 524 626 370 626 c 0
 216 626 82 504 82 322 c 0
 82 138 216 14 370 14 c 0
374 124 m 0
 282 124 202 196 202 322 c 0
 202 438 286 508 380 508 c 0
 432 508 466 486 498 454 c 1
 480 432 l 1
 448 462 420 478 378 478 c 0
 296 478 236 416 236 322 c 0
 236 218 292 154 376 154 c 0
 426 154 464 177 496 206 c 1
 512 184 l 1
 476 151 440 124 374 124 c 0
EndSplineSet
EndChar
StartChar: logicalnot
Encoding: 172 172 1763
Width: 472
Flags: MW
HStem: 316 28<34 406 34 438>
VStem: 406 32<112 316 316 316>
LayerCount: 2
Fore
SplineSet
406 112 m 1
 406 316 l 1
 34 316 l 1
 34 344 l 1
 438 344 l 1
 438 112 l 1
 406 112 l 1
EndSplineSet
EndChar
StartChar: registered
Encoding: 174 174 1208
Width: 392
Flags: MW
HStem: 326 26<154 238 154 245> 496 26<158 188 188 204 158 208 158 188> 600 26<158 192 158 158> 686 26<154 238>
VStem: 16 28<470 566 470 576> 130 28<418 496 522 600> 242 30<549 572> 348 28<470 566>
LayerCount: 2
Fore
SplineSet
196 326 m 0
 98 326 16 402 16 518 c 0
 16 634 98 712 196 712 c 0
 294 712 376 634 376 518 c 0
 376 402 294 326 196 326 c 0
196 352 m 0
 280 352 348 422 348 518 c 0
 348 614 280 686 196 686 c 0
 112 686 44 614 44 518 c 0
 44 422 112 352 196 352 c 0
130 418 m 1
 130 626 l 1
 196 626 l 2
 234 626 272 612 272 562 c 0
 272 536 254 512 232 506 c 1
 282 418 l 1
 248 418 l 1
 208 496 l 1
 158 496 l 1
 158 418 l 1
 130 418 l 1
158 522 m 1
 188 522 l 2
 220 522 242 532 242 560 c 0
 242 584 230 600 192 600 c 2
 158 600 l 1
 158 522 l 1
EndSplineSet
EndChar
StartChar: macron
Encoding: 175 175 1815
Width: 532
Flags: MW
HStem: 608 28<146 386 146 386>
VStem: 146 240<608 636 608 636>
LayerCount: 2
Fore
SplineSet
146 608 m 1
 146 636 l 1
 386 636 l 1
 386 608 l 1
 146 608 l 1
EndSplineSet
EndChar
StartChar: degree
Encoding: 176 176 1700
Width: 304
Flags: MW
HStem: 454 26<128 176 128 180> 658 26<128 176>
VStem: 42 28<543 594 543 605> 234 28<543 594>
LayerCount: 2
Fore
SplineSet
152 454 m 0
 96 454 42 496 42 568 c 0
 42 642 96 684 152 684 c 0
 208 684 262 642 262 568 c 0
 262 496 208 454 152 454 c 0
152 480 m 0
 200 480 234 518 234 568 c 0
 234 620 200 658 152 658 c 0
 104 658 70 620 70 568 c 0
 70 518 104 480 152 480 c 0
EndSplineSet
EndChar
StartChar: plusminus
Encoding: 177 177 1758
Width: 472
Flags: MW
HStem: 0 28<34 438 34 438> 312 28<34 220 34 220 252 438>
VStem: 220 32<102 312 102 312 340 548>
LayerCount: 2
Fore
SplineSet
220 102 m 1
 220 312 l 1
 34 312 l 1
 34 340 l 1
 220 340 l 1
 220 548 l 1
 252 548 l 1
 252 340 l 1
 438 340 l 1
 438 312 l 1
 252 312 l 1
 252 102 l 1
 220 102 l 1
34 0 m 1
 34 28 l 1
 438 28 l 1
 438 0 l 1
 34 0 l 1
EndSplineSet
EndChar
StartChar: acute
Encoding: 180 180 1805
Width: 532
Flags: MW
HStem: 574 170<232 346>
VStem: 214 156<590 724>
LayerCount: 2
Fore
SplineSet
232 574 m 1
 214 590 l 1
 346 744 l 1
 370 724 l 1
 232 574 l 1
EndSplineSet
EndChar
StartChar: paragraph
Encoding: 182 182 1189
Width: 498
Flags: MW
HStem: 640 20G<272 316 316 316 370 402 402 402>
VStem: 42 274<380 528> 370 32<-80 660 -80 660>
LayerCount: 2
Fore
SplineSet
370 -80 m 1
 370 660 l 1
 402 660 l 1
 402 -80 l 1
 370 -80 l 1
290 250 m 2
 142 250 42 306 42 454 c 0
 42 602 136 660 272 660 c 2
 316 660 l 1
 316 250 l 1
 290 250 l 2
EndSplineSet
EndChar
StartChar: cedilla
Encoding: 184 184 1820
Width: 532
Flags: MW
HStem: -216 26<196 202>
VStem: 310 30<-151 -121>
LayerCount: 2
Fore
SplineSet
202 -216 m 1
 196 -190 l 1
 284 -184 310 -166 310 -136 c 0
 310 -106 286 -92 232 -84 c 1
 272 2 l 1
 300 2 l 1
 270 -66 l 1
 312 -76 340 -94 340 -134 c 0
 340 -184 292 -210 202 -216 c 1
EndSplineSet
EndChar
StartChar: ordmasculine
Encoding: 186 186 1632
Width: 358
Flags: MW
HStem: 402 26<144 212 144 218> 708 26<144 212>
VStem: 34 30<527 610 527 621> 292 30<527 610>
LayerCount: 2
Fore
SplineSet
178 402 m 0
 98 402 34 464 34 568 c 0
 34 674 98 734 178 734 c 0
 258 734 322 674 322 568 c 0
 322 464 258 402 178 402 c 0
178 428 m 0
 246 428 292 486 292 568 c 0
 292 652 246 708 178 708 c 0
 110 708 64 652 64 568 c 0
 64 486 110 428 178 428 c 0
EndSplineSet
EndChar
StartChar: multiply
Encoding: 215 215 1750
Width: 472
Flags: MW
HStem: 138 384<72 72 72 400>
VStem: 52 368<160 160 160 500>
LayerCount: 2
Fore
SplineSet
72 138 m 1
 52 160 l 1
 216 330 l 1
 52 500 l 1
 72 522 l 1
 236 350 l 1
 400 522 l 1
 420 500 l 1
 256 330 l 1
 420 160 l 1
 400 138 l 1
 236 310 l 1
 72 138 l 1
EndSplineSet
EndChar
StartChar: Oslash
Encoding: 216 216 173
Width: 648
GlyphClass: 2
Flags: MW
HStem: -12 30<295 398 295 406> -4 21G<58 58> 642 30<258 359.5> 644 20G<586 586>
VStem: 60 34<288.5 427 288.5 436> 562 34<237 377.5>
AnchorPoint: "Anchor-1" 322 682 basechar 0
LayerCount: 2
Fore
SplineSet
328 -12 m 0xac
 256 -12 193 17 146 69 c 1
 80 -20 l 1xac
 58 -4 l 1
 128 91 l 1
 85 151 60 233 60 332 c 0
 60 540 172 672 328 672 c 0
 397 672 458 646 504 599 c 1
 564 680 l 1x6c
 586 664 l 1
 522 578 l 1x9c
 569 519 596 435 596 332 c 0
 596 124 484 -12 328 -12 c 0xac
94 332 m 0
 94 245 114 172 148 118 c 1
 485 573 l 1
 445 618 391 642 328 642 c 0
 188 642 94 522 94 332 c 0
328 18 m 0
 468 18 562 142 562 332 c 0
 562 423 540 498 503 551 c 1
 165 95 l 1
 206 46 262 18 328 18 c 0
EndSplineSet
Substitution2: "'c2sc' Capitals to Small Capitals lookup 17 subtable" Oslash.sc
Substitution2: "'aalt' Access All Alternates lookup 0 subtable" Oslash.sc
PairPos2: "'kern' Horizontal Kerning lookup 10 per glyph data 5" uni012C.a dx=0 dy=0 dh=-10 dv=0 dx=0 dy=0 dh=0 dv=0
PairPos2: "'kern' Horizontal Kerning lookup 10 per glyph data 5" Iogonek.a dx=0 dy=0 dh=-10 dv=0 dx=0 dy=0 dh=0 dv=0
PairPos2: "'kern' Horizontal Kerning lookup 10 per glyph data 5" uni1ECA.a dx=0 dy=0 dh=-10 dv=0 dx=0 dy=0 dh=0 dv=0
PairPos2: "'kern' Horizontal Kerning lookup 10 per glyph data 5" uni1EC8.a dx=0 dy=0 dh=-10 dv=0 dx=0 dy=0 dh=0 dv=0
PairPos2: "'kern' Horizontal Kerning lookup 10 per glyph data 5" uni01CF.a dx=0 dy=0 dh=-10 dv=0 dx=0 dy=0 dh=0 dv=0
PairPos2: "'kern' Horizontal Kerning lookup 10 per glyph data 5" Idotaccent.a dx=0 dy=0 dh=-10 dv=0 dx=0 dy=0 dh=0 dv=0
PairPos2: "'kern' Horizontal Kerning lookup 10 per glyph data 5" Imacron.a dx=0 dy=0 dh=-10 dv=0 dx=0 dy=0 dh=0 dv=0
PairPos2: "'kern' Horizontal Kerning lookup 10 per glyph data 5" Idieresis.a dx=0 dy=0 dh=-10 dv=0 dx=0 dy=0 dh=0 dv=0
PairPos2: "'kern' Horizontal Kerning lookup 10 per glyph data 5" Itilde.a dx=0 dy=0 dh=-10 dv=0 dx=0 dy=0 dh=0 dv=0
PairPos2: "'kern' Horizontal Kerning lookup 10 per glyph data 5" Icircumflex.a dx=0 dy=0 dh=-10 dv=0 dx=0 dy=0 dh=0 dv=0
PairPos2: "'kern' Horizontal Kerning lookup 10 per glyph data 5" Iacute.a dx=0 dy=0 dh=-10 dv=0 dx=0 dy=0 dh=0 dv=0
PairPos2: "'kern' Horizontal Kerning lookup 10 per glyph data 5" Igrave.a dx=0 dy=0 dh=-10 dv=0 dx=0 dy=0 dh=0 dv=0
PairPos2: "'kern' Horizontal Kerning lookup 10 per glyph data 5" I.a dx=0 dy=0 dh=-10 dv=0 dx=0 dy=0 dh=0 dv=0
PairPos2: "'kern' Horizontal Kerning lookup 10 per glyph data 5" slash dx=0 dy=0 dh=-22 dv=0 dx=0 dy=0 dh=0 dv=0
PairPos2: "'kern' Horizontal Kerning lookup 10 per glyph data 5" Wdieresis dx=0 dy=0 dh=-10 dv=0 dx=0 dy=0 dh=0 dv=0
PairPos2: "'kern' Horizontal Kerning lookup 10 per glyph data 5" Wcircumflex dx=0 dy=0 dh=-10 dv=0 dx=0 dy=0 dh=0 dv=0
PairPos2: "'kern' Horizontal Kerning lookup 10 per glyph data 5" Wacute dx=0 dy=0 dh=-10 dv=0 dx=0 dy=0 dh=0 dv=0
PairPos2: "'kern' Horizontal Kerning lookup 10 per glyph data 5" Wgrave dx=0 dy=0 dh=-10 dv=0 dx=0 dy=0 dh=0 dv=0
PairPos2: "'kern' Horizontal Kerning lookup 10 per glyph data 5" W dx=0 dy=0 dh=-10 dv=0 dx=0 dy=0 dh=0 dv=0
PairPos2: "'kern' Horizontal Kerning lookup 10 per glyph data 5" x dx=0 dy=0 dh=-10 dv=0 dx=0 dy=0 dh=0 dv=0
PairPos2: "'kern' Horizontal Kerning lookup 10 per glyph data 5" Jcircumflex dx=0 dy=0 dh=-28 dv=0 dx=0 dy=0 dh=0 dv=0
PairPos2: "'kern' Horizontal Kerning lookup 10 per glyph data 5" J dx=0 dy=0 dh=-28 dv=0 dx=0 dy=0 dh=0 dv=0
PairPos2: "'kern' Horizontal Kerning lookup 10 per glyph data 5" Jcircumflex.sc dx=0 dy=0 dh=-20 dv=0 dx=0 dy=0 dh=0 dv=0
PairPos2: "'kern' Horizontal Kerning lookup 10 per glyph data 5" J.sc dx=0 dy=0 dh=-20 dv=0 dx=0 dy=0 dh=0 dv=0
PairPos2: "'kern' Horizontal Kerning lookup 10 per glyph data 5" trademark dx=0 dy=0 dh=-18 dv=0 dx=0 dy=0 dh=0 dv=0
PairPos2: "'kern' Horizontal Kerning lookup 10 per glyph data 5" registered dx=0 dy=0 dh=10 dv=0 dx=0 dy=0 dh=0 dv=0
PairPos2: "'kern' Horizontal Kerning lookup 10 per glyph data 5" uni1E94 dx=0 dy=0 dh=-20 dv=0 dx=0 dy=0 dh=0 dv=0
PairPos2: "'kern' Horizontal Kerning lookup 10 per glyph data 5" uni1E92 dx=0 dy=0 dh=-20 dv=0 dx=0 dy=0 dh=0 dv=0
PairPos2: "'kern' Horizontal Kerning lookup 10 per glyph data 5" Zdotaccent dx=0 dy=0 dh=-20 dv=0 dx=0 dy=0 dh=0 dv=0
PairPos2: "'kern' Horizontal Kerning lookup 10 per glyph data 5" Zcaron dx=0 dy=0 dh=-20 dv=0 dx=0 dy=0 dh=0 dv=0
PairPos2: "'kern' Horizontal Kerning lookup 10 per glyph data 5" Zacute dx=0 dy=0 dh=-20 dv=0 dx=0 dy=0 dh=0 dv=0
PairPos2: "'kern' Horizontal Kerning lookup 10 per glyph data 5" Z dx=0 dy=0 dh=-20 dv=0 dx=0 dy=0 dh=0 dv=0
PairPos2: "'kern' Horizontal Kerning lookup 10 per glyph data 5" X dx=0 dy=0 dh=-10 dv=0 dx=0 dy=0 dh=0 dv=0
PairPos2: "'kern' Horizontal Kerning lookup 10 per glyph data 5" uni1E52.sc dx=0 dy=0 dh=24 dv=0 dx=0 dy=0 dh=0 dv=0
PairPos2: "'kern' Horizontal Kerning lookup 10 per glyph data 5" uni014E.sc dx=0 dy=0 dh=24 dv=0 dx=0 dy=0 dh=0 dv=0
PairPos2: "'kern' Horizontal Kerning lookup 10 per glyph data 5" uni01EA.sc dx=0 dy=0 dh=24 dv=0 dx=0 dy=0 dh=0 dv=0
PairPos2: "'kern' Horizontal Kerning lookup 10 per glyph data 5" uni1EE2.sc dx=0 dy=0 dh=24 dv=0 dx=0 dy=0 dh=0 dv=0
PairPos2: "'kern' Horizontal Kerning lookup 10 per glyph data 5" uni1EE0.sc dx=0 dy=0 dh=24 dv=0 dx=0 dy=0 dh=0 dv=0
PairPos2: "'kern' Horizontal Kerning lookup 10 per glyph data 5" uni1EDE.sc dx=0 dy=0 dh=24 dv=0 dx=0 dy=0 dh=0 dv=0
PairPos2: "'kern' Horizontal Kerning lookup 10 per glyph data 5" uni1EDC.sc dx=0 dy=0 dh=24 dv=0 dx=0 dy=0 dh=0 dv=0
PairPos2: "'kern' Horizontal Kerning lookup 10 per glyph data 5" uni1EDA.sc dx=0 dy=0 dh=24 dv=0 dx=0 dy=0 dh=0 dv=0
PairPos2: "'kern' Horizontal Kerning lookup 10 per glyph data 5" Ohorn.sc dx=0 dy=0 dh=24 dv=0 dx=0 dy=0 dh=0 dv=0
PairPos2: "'kern' Horizontal Kerning lookup 10 per glyph data 5" OE.sc dx=0 dy=0 dh=24 dv=0 dx=0 dy=0 dh=0 dv=0
PairPos2: "'kern' Horizontal Kerning lookup 10 per glyph data 5" Oslash.sc dx=0 dy=0 dh=24 dv=0 dx=0 dy=0 dh=0 dv=0
PairPos2: "'kern' Horizontal Kerning lookup 10 per glyph data 5" uni1ED8.sc dx=0 dy=0 dh=24 dv=0 dx=0 dy=0 dh=0 dv=0
PairPos2: "'kern' Horizontal Kerning lookup 10 per glyph data 5" uni1ED6.sc dx=0 dy=0 dh=24 dv=0 dx=0 dy=0 dh=0 dv=0
PairPos2: "'kern' Horizontal Kerning lookup 10 per glyph data 5" uni1ED4.sc dx=0 dy=0 dh=24 dv=0 dx=0 dy=0 dh=0 dv=0
PairPos2: "'kern' Horizontal Kerning lookup 10 per glyph data 5" uni1ED2.sc dx=0 dy=0 dh=24 dv=0 dx=0 dy=0 dh=0 dv=0
PairPos2: "'kern' Horizontal Kerning lookup 10 per glyph data 5" uni1ED0.sc dx=0 dy=0 dh=24 dv=0 dx=0 dy=0 dh=0 dv=0
PairPos2: "'kern' Horizontal Kerning lookup 10 per glyph data 5" uni1ECE.sc dx=0 dy=0 dh=24 dv=0 dx=0 dy=0 dh=0 dv=0
PairPos2: "'kern' Horizontal Kerning lookup 10 per glyph data 5" uni1ECC.sc dx=0 dy=0 dh=24 dv=0 dx=0 dy=0 dh=0 dv=0
PairPos2: "'kern' Horizontal Kerning lookup 10 per glyph data 5" uni01D1.sc dx=0 dy=0 dh=24 dv=0 dx=0 dy=0 dh=0 dv=0
PairPos2: "'kern' Horizontal Kerning lookup 10 per glyph data 5" Ohungarumlaut.sc dx=0 dy=0 dh=24 dv=0 dx=0 dy=0 dh=0 dv=0
PairPos2: "'kern' Horizontal Kerning lookup 10 per glyph data 5" Omacron.sc dx=0 dy=0 dh=24 dv=0 dx=0 dy=0 dh=0 dv=0
PairPos2: "'kern' Horizontal Kerning lookup 10 per glyph data 5" Odieresis.sc dx=0 dy=0 dh=24 dv=0 dx=0 dy=0 dh=0 dv=0
PairPos2: "'kern' Horizontal Kerning lookup 10 per glyph data 5" Otilde.sc dx=0 dy=0 dh=24 dv=0 dx=0 dy=0 dh=0 dv=0
PairPos2: "'kern' Horizontal Kerning lookup 10 per glyph data 5" Ocircumflex.sc dx=0 dy=0 dh=24 dv=0 dx=0 dy=0 dh=0 dv=0
PairPos2: "'kern' Horizontal Kerning lookup 10 per glyph data 5" Oacute.sc dx=0 dy=0 dh=24 dv=0 dx=0 dy=0 dh=0 dv=0
PairPos2: "'kern' Horizontal Kerning lookup 10 per glyph data 5" Ograve.sc dx=0 dy=0 dh=24 dv=0 dx=0 dy=0 dh=0 dv=0
PairPos2: "'kern' Horizontal Kerning lookup 10 per glyph data 5" uni0193.sc dx=0 dy=0 dh=24 dv=0 dx=0 dy=0 dh=0 dv=0
PairPos2: "'kern' Horizontal Kerning lookup 10 per glyph data 5" uni00470303.sc dx=0 dy=0 dh=24 dv=0 dx=0 dy=0 dh=0 dv=0
PairPos2: "'kern' Horizontal Kerning lookup 10 per glyph data 5" uni1E20.sc dx=0 dy=0 dh=24 dv=0 dx=0 dy=0 dh=0 dv=0
PairPos2: "'kern' Horizontal Kerning lookup 10 per glyph data 5" Gcaron.sc dx=0 dy=0 dh=24 dv=0 dx=0 dy=0 dh=0 dv=0
PairPos2: "'kern' Horizontal Kerning lookup 10 per glyph data 5" uni0122.sc dx=0 dy=0 dh=24 dv=0 dx=0 dy=0 dh=0 dv=0
PairPos2: "'kern' Horizontal Kerning lookup 10 per glyph data 5" Gdotaccent.sc dx=0 dy=0 dh=24 dv=0 dx=0 dy=0 dh=0 dv=0
PairPos2: "'kern' Horizontal Kerning lookup 10 per glyph data 5" Gbreve.sc dx=0 dy=0 dh=24 dv=0 dx=0 dy=0 dh=0 dv=0
PairPos2: "'kern' Horizontal Kerning lookup 10 per glyph data 5" Gcircumflex.sc dx=0 dy=0 dh=24 dv=0 dx=0 dy=0 dh=0 dv=0
PairPos2: "'kern' Horizontal Kerning lookup 10 per glyph data 5" uni01F4.sc dx=0 dy=0 dh=24 dv=0 dx=0 dy=0 dh=0 dv=0
PairPos2: "'kern' Horizontal Kerning lookup 10 per glyph data 5" Cdotaccent.sc dx=0 dy=0 dh=24 dv=0 dx=0 dy=0 dh=0 dv=0
PairPos2: "'kern' Horizontal Kerning lookup 10 per glyph data 5" Ccaron.sc dx=0 dy=0 dh=24 dv=0 dx=0 dy=0 dh=0 dv=0
PairPos2: "'kern' Horizontal Kerning lookup 10 per glyph data 5" Ccircumflex.sc dx=0 dy=0 dh=24 dv=0 dx=0 dy=0 dh=0 dv=0
PairPos2: "'kern' Horizontal Kerning lookup 10 per glyph data 5" Cacute.sc dx=0 dy=0 dh=24 dv=0 dx=0 dy=0 dh=0 dv=0
PairPos2: "'kern' Horizontal Kerning lookup 10 per glyph data 5" Ccedilla.sc dx=0 dy=0 dh=24 dv=0 dx=0 dy=0 dh=0 dv=0
PairPos2: "'kern' Horizontal Kerning lookup 10 per glyph data 5" Q.sc dx=0 dy=0 dh=24 dv=0 dx=0 dy=0 dh=0 dv=0
PairPos2: "'kern' Horizontal Kerning lookup 10 per glyph data 5" O.sc dx=0 dy=0 dh=24 dv=0 dx=0 dy=0 dh=0 dv=0
PairPos2: "'kern' Horizontal Kerning lookup 10 per glyph data 5" G.sc dx=0 dy=0 dh=24 dv=0 dx=0 dy=0 dh=0 dv=0
PairPos2: "'kern' Horizontal Kerning lookup 10 per glyph data 5" C.sc dx=0 dy=0 dh=24 dv=0 dx=0 dy=0 dh=0 dv=0
PairPos2: "'kern' Horizontal Kerning lookup 10 per glyph data 5" Aogonek dx=0 dy=0 dh=-10 dv=0 dx=0 dy=0 dh=0 dv=0
PairPos2: "'kern' Horizontal Kerning lookup 10 per glyph data 5" uni1EB6 dx=0 dy=0 dh=-10 dv=0 dx=0 dy=0 dh=0 dv=0
PairPos2: "'kern' Horizontal Kerning lookup 10 per glyph data 5" uni1EB4 dx=0 dy=0 dh=-10 dv=0 dx=0 dy=0 dh=0 dv=0
PairPos2: "'kern' Horizontal Kerning lookup 10 per glyph data 5" uni1EB2 dx=0 dy=0 dh=-10 dv=0 dx=0 dy=0 dh=0 dv=0
PairPos2: "'kern' Horizontal Kerning lookup 10 per glyph data 5" uni1EB0 dx=0 dy=0 dh=-10 dv=0 dx=0 dy=0 dh=0 dv=0
PairPos2: "'kern' Horizontal Kerning lookup 10 per glyph data 5" uni1EAE dx=0 dy=0 dh=-10 dv=0 dx=0 dy=0 dh=0 dv=0
PairPos2: "'kern' Horizontal Kerning lookup 10 per glyph data 5" uni1EAC dx=0 dy=0 dh=-10 dv=0 dx=0 dy=0 dh=0 dv=0
PairPos2: "'kern' Horizontal Kerning lookup 10 per glyph data 5" uni1EAA dx=0 dy=0 dh=-10 dv=0 dx=0 dy=0 dh=0 dv=0
PairPos2: "'kern' Horizontal Kerning lookup 10 per glyph data 5" uni1EA8 dx=0 dy=0 dh=-10 dv=0 dx=0 dy=0 dh=0 dv=0
PairPos2: "'kern' Horizontal Kerning lookup 10 per glyph data 5" uni1EA6 dx=0 dy=0 dh=-10 dv=0 dx=0 dy=0 dh=0 dv=0
PairPos2: "'kern' Horizontal Kerning lookup 10 per glyph data 5" uni1EA4 dx=0 dy=0 dh=-10 dv=0 dx=0 dy=0 dh=0 dv=0
PairPos2: "'kern' Horizontal Kerning lookup 10 per glyph data 5" uni1EA2 dx=0 dy=0 dh=-10 dv=0 dx=0 dy=0 dh=0 dv=0
PairPos2: "'kern' Horizontal Kerning lookup 10 per glyph data 5" uni1EA0 dx=0 dy=0 dh=-10 dv=0 dx=0 dy=0 dh=0 dv=0
PairPos2: "'kern' Horizontal Kerning lookup 10 per glyph data 5" uni01CD dx=0 dy=0 dh=-10 dv=0 dx=0 dy=0 dh=0 dv=0
PairPos2: "'kern' Horizontal Kerning lookup 10 per glyph data 5" Aring dx=0 dy=0 dh=-10 dv=0 dx=0 dy=0 dh=0 dv=0
PairPos2: "'kern' Horizontal Kerning lookup 10 per glyph data 5" Abreve dx=0 dy=0 dh=-10 dv=0 dx=0 dy=0 dh=0 dv=0
PairPos2: "'kern' Horizontal Kerning lookup 10 per glyph data 5" Amacron dx=0 dy=0 dh=-10 dv=0 dx=0 dy=0 dh=0 dv=0
PairPos2: "'kern' Horizontal Kerning lookup 10 per glyph data 5" Adieresis dx=0 dy=0 dh=-10 dv=0 dx=0 dy=0 dh=0 dv=0
PairPos2: "'kern' Horizontal Kerning lookup 10 per glyph data 5" Atilde dx=0 dy=0 dh=-10 dv=0 dx=0 dy=0 dh=0 dv=0
PairPos2: "'kern' Horizontal Kerning lookup 10 per glyph data 5" Acircumflex dx=0 dy=0 dh=-10 dv=0 dx=0 dy=0 dh=0 dv=0
PairPos2: "'kern' Horizontal Kerning lookup 10 per glyph data 5" Aacute dx=0 dy=0 dh=-10 dv=0 dx=0 dy=0 dh=0 dv=0
PairPos2: "'kern' Horizontal Kerning lookup 10 per glyph data 5" Agrave dx=0 dy=0 dh=-10 dv=0 dx=0 dy=0 dh=0 dv=0
PairPos2: "'kern' Horizontal Kerning lookup 10 per glyph data 5" A dx=0 dy=0 dh=-10 dv=0 dx=0 dy=0 dh=0 dv=0
PairPos2: "'kern' Horizontal Kerning lookup 10 per glyph data 5" uni1EF8.sc dx=0 dy=0 dh=20 dv=0 dx=0 dy=0 dh=0 dv=0
PairPos2: "'kern' Horizontal Kerning lookup 10 per glyph data 5" uni1EF6.sc dx=0 dy=0 dh=20 dv=0 dx=0 dy=0 dh=0 dv=0
PairPos2: "'kern' Horizontal Kerning lookup 10 per glyph data 5" uni1EF4.sc dx=0 dy=0 dh=20 dv=0 dx=0 dy=0 dh=0 dv=0
PairPos2: "'kern' Horizontal Kerning lookup 10 per glyph data 5" uni1E8E.sc dx=0 dy=0 dh=20 dv=0 dx=0 dy=0 dh=0 dv=0
PairPos2: "'kern' Horizontal Kerning lookup 10 per glyph data 5" Ydieresis.sc dx=0 dy=0 dh=20 dv=0 dx=0 dy=0 dh=0 dv=0
PairPos2: "'kern' Horizontal Kerning lookup 10 per glyph data 5" Ycircumflex.sc dx=0 dy=0 dh=20 dv=0 dx=0 dy=0 dh=0 dv=0
PairPos2: "'kern' Horizontal Kerning lookup 10 per glyph data 5" Yacute.sc dx=0 dy=0 dh=20 dv=0 dx=0 dy=0 dh=0 dv=0
PairPos2: "'kern' Horizontal Kerning lookup 10 per glyph data 5" Ygrave.sc dx=0 dy=0 dh=20 dv=0 dx=0 dy=0 dh=0 dv=0
PairPos2: "'kern' Horizontal Kerning lookup 10 per glyph data 5" Y.sc dx=0 dy=0 dh=20 dv=0 dx=0 dy=0 dh=0 dv=0
PairPos2: "'kern' Horizontal Kerning lookup 10 per glyph data 5" X.sc dx=0 dy=0 dh=10 dv=0 dx=0 dy=0 dh=0 dv=0
PairPos2: "'kern' Horizontal Kerning lookup 10 per glyph data 5" Wdieresis.sc dx=0 dy=0 dh=24 dv=0 dx=0 dy=0 dh=0 dv=0
PairPos2: "'kern' Horizontal Kerning lookup 10 per glyph data 5" Wcircumflex.sc dx=0 dy=0 dh=24 dv=0 dx=0 dy=0 dh=0 dv=0
PairPos2: "'kern' Horizontal Kerning lookup 10 per glyph data 5" Wacute.sc dx=0 dy=0 dh=24 dv=0 dx=0 dy=0 dh=0 dv=0
PairPos2: "'kern' Horizontal Kerning lookup 10 per glyph data 5" Wgrave.sc dx=0 dy=0 dh=24 dv=0 dx=0 dy=0 dh=0 dv=0
PairPos2: "'kern' Horizontal Kerning lookup 10 per glyph data 5" W.sc dx=0 dy=0 dh=24 dv=0 dx=0 dy=0 dh=0 dv=0
PairPos2: "'kern' Horizontal Kerning lookup 10 per glyph data 5" V.sc dx=0 dy=0 dh=18 dv=0 dx=0 dy=0 dh=0 dv=0
PairPos2: "'kern' Horizontal Kerning lookup 10 per glyph data 5" uni1EF0.sc dx=0 dy=0 dh=20 dv=0 dx=0 dy=0 dh=0 dv=0
PairPos2: "'kern' Horizontal Kerning lookup 10 per glyph data 5" uni1EEE.sc dx=0 dy=0 dh=20 dv=0 dx=0 dy=0 dh=0 dv=0
PairPos2: "'kern' Horizontal Kerning lookup 10 per glyph data 5" uni1EEC.sc dx=0 dy=0 dh=20 dv=0 dx=0 dy=0 dh=0 dv=0
PairPos2: "'kern' Horizontal Kerning lookup 10 per glyph data 5" uni1EEA.sc dx=0 dy=0 dh=20 dv=0 dx=0 dy=0 dh=0 dv=0
PairPos2: "'kern' Horizontal Kerning lookup 10 per glyph data 5" uni1EE8.sc dx=0 dy=0 dh=20 dv=0 dx=0 dy=0 dh=0 dv=0
PairPos2: "'kern' Horizontal Kerning lookup 10 per glyph data 5" Uhorn.sc dx=0 dy=0 dh=20 dv=0 dx=0 dy=0 dh=0 dv=0
PairPos2: "'kern' Horizontal Kerning lookup 10 per glyph data 5" Uogonek.sc dx=0 dy=0 dh=20 dv=0 dx=0 dy=0 dh=0 dv=0
PairPos2: "'kern' Horizontal Kerning lookup 10 per glyph data 5" uni1EE6.sc dx=0 dy=0 dh=20 dv=0 dx=0 dy=0 dh=0 dv=0
PairPos2: "'kern' Horizontal Kerning lookup 10 per glyph data 5" uni1EE4.sc dx=0 dy=0 dh=20 dv=0 dx=0 dy=0 dh=0 dv=0
PairPos2: "'kern' Horizontal Kerning lookup 10 per glyph data 5" uni01DB.sc dx=0 dy=0 dh=20 dv=0 dx=0 dy=0 dh=0 dv=0
PairPos2: "'kern' Horizontal Kerning lookup 10 per glyph data 5" uni01D9.sc dx=0 dy=0 dh=20 dv=0 dx=0 dy=0 dh=0 dv=0
PairPos2: "'kern' Horizontal Kerning lookup 10 per glyph data 5" uni01D7.sc dx=0 dy=0 dh=20 dv=0 dx=0 dy=0 dh=0 dv=0
PairPos2: "'kern' Horizontal Kerning lookup 10 per glyph data 5" uni01D5.sc dx=0 dy=0 dh=20 dv=0 dx=0 dy=0 dh=0 dv=0
PairPos2: "'kern' Horizontal Kerning lookup 10 per glyph data 5" uni01D3.sc dx=0 dy=0 dh=20 dv=0 dx=0 dy=0 dh=0 dv=0
PairPos2: "'kern' Horizontal Kerning lookup 10 per glyph data 5" Uhungarumlaut.sc dx=0 dy=0 dh=20 dv=0 dx=0 dy=0 dh=0 dv=0
PairPos2: "'kern' Horizontal Kerning lookup 10 per glyph data 5" Uring.sc dx=0 dy=0 dh=20 dv=0 dx=0 dy=0 dh=0 dv=0
PairPos2: "'kern' Horizontal Kerning lookup 10 per glyph data 5" Ubreve.sc dx=0 dy=0 dh=20 dv=0 dx=0 dy=0 dh=0 dv=0
PairPos2: "'kern' Horizontal Kerning lookup 10 per glyph data 5" Umacron.sc dx=0 dy=0 dh=20 dv=0 dx=0 dy=0 dh=0 dv=0
PairPos2: "'kern' Horizontal Kerning lookup 10 per glyph data 5" Udieresis.sc dx=0 dy=0 dh=20 dv=0 dx=0 dy=0 dh=0 dv=0
PairPos2: "'kern' Horizontal Kerning lookup 10 per glyph data 5" Utilde.sc dx=0 dy=0 dh=20 dv=0 dx=0 dy=0 dh=0 dv=0
PairPos2: "'kern' Horizontal Kerning lookup 10 per glyph data 5" Ucircumflex.sc dx=0 dy=0 dh=20 dv=0 dx=0 dy=0 dh=0 dv=0
PairPos2: "'kern' Horizontal Kerning lookup 10 per glyph data 5" Uacute.sc dx=0 dy=0 dh=20 dv=0 dx=0 dy=0 dh=0 dv=0
PairPos2: "'kern' Horizontal Kerning lookup 10 per glyph data 5" Ugrave.sc dx=0 dy=0 dh=20 dv=0 dx=0 dy=0 dh=0 dv=0
PairPos2: "'kern' Horizontal Kerning lookup 10 per glyph data 5" U.sc dx=0 dy=0 dh=20 dv=0 dx=0 dy=0 dh=0 dv=0
PairPos2: "'kern' Horizontal Kerning lookup 10 per glyph data 5" uni0166.sc dx=0 dy=0 dh=10 dv=0 dx=0 dy=0 dh=0 dv=0
PairPos2: "'kern' Horizontal Kerning lookup 10 per glyph data 5" uni1E6E.sc dx=0 dy=0 dh=10 dv=0 dx=0 dy=0 dh=0 dv=0
PairPos2: "'kern' Horizontal Kerning lookup 10 per glyph data 5" uni1E6C.sc dx=0 dy=0 dh=10 dv=0 dx=0 dy=0 dh=0 dv=0
PairPos2: "'kern' Horizontal Kerning lookup 10 per glyph data 5" uni021A.sc dx=0 dy=0 dh=10 dv=0 dx=0 dy=0 dh=0 dv=0
PairPos2: "'kern' Horizontal Kerning lookup 10 per glyph data 5" uni0162.sc dx=0 dy=0 dh=10 dv=0 dx=0 dy=0 dh=0 dv=0
PairPos2: "'kern' Horizontal Kerning lookup 10 per glyph data 5" Tcaron.sc dx=0 dy=0 dh=10 dv=0 dx=0 dy=0 dh=0 dv=0
PairPos2: "'kern' Horizontal Kerning lookup 10 per glyph data 5" T.sc dx=0 dy=0 dh=10 dv=0 dx=0 dy=0 dh=0 dv=0
PairPos2: "'kern' Horizontal Kerning lookup 10 per glyph data 5" germandbls.sc dx=0 dy=0 dh=10 dv=0 dx=0 dy=0 dh=0 dv=0
PairPos2: "'kern' Horizontal Kerning lookup 10 per glyph data 5" uni1E62.sc dx=0 dy=0 dh=10 dv=0 dx=0 dy=0 dh=0 dv=0
PairPos2: "'kern' Horizontal Kerning lookup 10 per glyph data 5" uni1E60.sc dx=0 dy=0 dh=10 dv=0 dx=0 dy=0 dh=0 dv=0
PairPos2: "'kern' Horizontal Kerning lookup 10 per glyph data 5" uni0218.sc dx=0 dy=0 dh=10 dv=0 dx=0 dy=0 dh=0 dv=0
PairPos2: "'kern' Horizontal Kerning lookup 10 per glyph data 5" uni015E.sc dx=0 dy=0 dh=10 dv=0 dx=0 dy=0 dh=0 dv=0
PairPos2: "'kern' Horizontal Kerning lookup 10 per glyph data 5" Scaron.sc dx=0 dy=0 dh=10 dv=0 dx=0 dy=0 dh=0 dv=0
PairPos2: "'kern' Horizontal Kerning lookup 10 per glyph data 5" Scircumflex.sc dx=0 dy=0 dh=10 dv=0 dx=0 dy=0 dh=0 dv=0
PairPos2: "'kern' Horizontal Kerning lookup 10 per glyph data 5" Sacute.sc dx=0 dy=0 dh=10 dv=0 dx=0 dy=0 dh=0 dv=0
PairPos2: "'kern' Horizontal Kerning lookup 10 per glyph data 5" S.sc dx=0 dy=0 dh=10 dv=0 dx=0 dy=0 dh=0 dv=0
PairPos2: "'kern' Horizontal Kerning lookup 10 per glyph data 5" Aogonek.sc dx=0 dy=0 dh=10 dv=0 dx=0 dy=0 dh=0 dv=0
PairPos2: "'kern' Horizontal Kerning lookup 10 per glyph data 5" uni1EB6.sc dx=0 dy=0 dh=10 dv=0 dx=0 dy=0 dh=0 dv=0
PairPos2: "'kern' Horizontal Kerning lookup 10 per glyph data 5" uni1EB4.sc dx=0 dy=0 dh=10 dv=0 dx=0 dy=0 dh=0 dv=0
PairPos2: "'kern' Horizontal Kerning lookup 10 per glyph data 5" uni1EB2.sc dx=0 dy=0 dh=10 dv=0 dx=0 dy=0 dh=0 dv=0
PairPos2: "'kern' Horizontal Kerning lookup 10 per glyph data 5" uni1EB0.sc dx=0 dy=0 dh=10 dv=0 dx=0 dy=0 dh=0 dv=0
PairPos2: "'kern' Horizontal Kerning lookup 10 per glyph data 5" uni1EAE.sc dx=0 dy=0 dh=10 dv=0 dx=0 dy=0 dh=0 dv=0
PairPos2: "'kern' Horizontal Kerning lookup 10 per glyph data 5" uni1EAC.sc dx=0 dy=0 dh=10 dv=0 dx=0 dy=0 dh=0 dv=0
PairPos2: "'kern' Horizontal Kerning lookup 10 per glyph data 5" uni1EAA.sc dx=0 dy=0 dh=10 dv=0 dx=0 dy=0 dh=0 dv=0
PairPos2: "'kern' Horizontal Kerning lookup 10 per glyph data 5" uni1EA8.sc dx=0 dy=0 dh=10 dv=0 dx=0 dy=0 dh=0 dv=0
PairPos2: "'kern' Horizontal Kerning lookup 10 per glyph data 5" uni1EA6.sc dx=0 dy=0 dh=10 dv=0 dx=0 dy=0 dh=0 dv=0
PairPos2: "'kern' Horizontal Kerning lookup 10 per glyph data 5" uni1EA4.sc dx=0 dy=0 dh=10 dv=0 dx=0 dy=0 dh=0 dv=0
PairPos2: "'kern' Horizontal Kerning lookup 10 per glyph data 5" uni1EA2.sc dx=0 dy=0 dh=10 dv=0 dx=0 dy=0 dh=0 dv=0
PairPos2: "'kern' Horizontal Kerning lookup 10 per glyph data 5" uni1EA0.sc dx=0 dy=0 dh=10 dv=0 dx=0 dy=0 dh=0 dv=0
PairPos2: "'kern' Horizontal Kerning lookup 10 per glyph data 5" uni01CD.sc dx=0 dy=0 dh=10 dv=0 dx=0 dy=0 dh=0 dv=0
PairPos2: "'kern' Horizontal Kerning lookup 10 per glyph data 5" Aring.sc dx=0 dy=0 dh=10 dv=0 dx=0 dy=0 dh=0 dv=0
PairPos2: "'kern' Horizontal Kerning lookup 10 per glyph data 5" Abreve.sc dx=0 dy=0 dh=10 dv=0 dx=0 dy=0 dh=0 dv=0
PairPos2: "'kern' Horizontal Kerning lookup 10 per glyph data 5" Amacron.sc dx=0 dy=0 dh=10 dv=0 dx=0 dy=0 dh=0 dv=0
PairPos2: "'kern' Horizontal Kerning lookup 10 per glyph data 5" Adieresis.sc dx=0 dy=0 dh=10 dv=0 dx=0 dy=0 dh=0 dv=0
PairPos2: "'kern' Horizontal Kerning lookup 10 per glyph data 5" Atilde.sc dx=0 dy=0 dh=10 dv=0 dx=0 dy=0 dh=0 dv=0
PairPos2: "'kern' Horizontal Kerning lookup 10 per glyph data 5" Acircumflex.sc dx=0 dy=0 dh=10 dv=0 dx=0 dy=0 dh=0 dv=0
PairPos2: "'kern' Horizontal Kerning lookup 10 per glyph data 5" Aacute.sc dx=0 dy=0 dh=10 dv=0 dx=0 dy=0 dh=0 dv=0
PairPos2: "'kern' Horizontal Kerning lookup 10 per glyph data 5" Agrave.sc dx=0 dy=0 dh=10 dv=0 dx=0 dy=0 dh=0 dv=0
PairPos2: "'kern' Horizontal Kerning lookup 10 per glyph data 5" A.sc dx=0 dy=0 dh=10 dv=0 dx=0 dy=0 dh=0 dv=0
PairPos2: "'kern' Horizontal Kerning lookup 10 per glyph data 5" asterisk dx=0 dy=0 dh=-42 dv=0 dx=0 dy=0 dh=0 dv=0
PairPos2: "'kern' Horizontal Kerning lookup 10 per glyph data 5" uni1EF8 dx=0 dy=0 dh=-20 dv=0 dx=0 dy=0 dh=0 dv=0
PairPos2: "'kern' Horizontal Kerning lookup 10 per glyph data 5" uni1EF6 dx=0 dy=0 dh=-20 dv=0 dx=0 dy=0 dh=0 dv=0
PairPos2: "'kern' Horizontal Kerning lookup 10 per glyph data 5" uni1EF4 dx=0 dy=0 dh=-20 dv=0 dx=0 dy=0 dh=0 dv=0
PairPos2: "'kern' Horizontal Kerning lookup 10 per glyph data 5" uni1E8E dx=0 dy=0 dh=-20 dv=0 dx=0 dy=0 dh=0 dv=0
PairPos2: "'kern' Horizontal Kerning lookup 10 per glyph data 5" Ydieresis dx=0 dy=0 dh=-20 dv=0 dx=0 dy=0 dh=0 dv=0
PairPos2: "'kern' Horizontal Kerning lookup 10 per glyph data 5" Ycircumflex dx=0 dy=0 dh=-20 dv=0 dx=0 dy=0 dh=0 dv=0
PairPos2: "'kern' Horizontal Kerning lookup 10 per glyph data 5" Yacute dx=0 dy=0 dh=-20 dv=0 dx=0 dy=0 dh=0 dv=0
PairPos2: "'kern' Horizontal Kerning lookup 10 per glyph data 5" Ygrave dx=0 dy=0 dh=-20 dv=0 dx=0 dy=0 dh=0 dv=0
PairPos2: "'kern' Horizontal Kerning lookup 10 per glyph data 5" Y dx=0 dy=0 dh=-20 dv=0 dx=0 dy=0 dh=0 dv=0
PairPos2: "'kern' Horizontal Kerning lookup 10 per glyph data 5" V dx=0 dy=0 dh=-10 dv=0 dx=0 dy=0 dh=0 dv=0
PairPos2: "'kern' Horizontal Kerning lookup 10 per glyph data 5" uni0166 dx=0 dy=0 dh=-20 dv=0 dx=0 dy=0 dh=0 dv=0
PairPos2: "'kern' Horizontal Kerning lookup 10 per glyph data 5" uni1E6E dx=0 dy=0 dh=-20 dv=0 dx=0 dy=0 dh=0 dv=0
PairPos2: "'kern' Horizontal Kerning lookup 10 per glyph data 5" uni1E6C dx=0 dy=0 dh=-20 dv=0 dx=0 dy=0 dh=0 dv=0
PairPos2: "'kern' Horizontal Kerning lookup 10 per glyph data 5" uni021A dx=0 dy=0 dh=-20 dv=0 dx=0 dy=0 dh=0 dv=0
PairPos2: "'kern' Horizontal Kerning lookup 10 per glyph data 5" uni0162 dx=0 dy=0 dh=-20 dv=0 dx=0 dy=0 dh=0 dv=0
PairPos2: "'kern' Horizontal Kerning lookup 10 per glyph data 5" Tcaron dx=0 dy=0 dh=-20 dv=0 dx=0 dy=0 dh=0 dv=0
PairPos2: "'kern' Horizontal Kerning lookup 10 per glyph data 5" T dx=0 dy=0 dh=-20 dv=0 dx=0 dy=0 dh=0 dv=0
EndChar
StartChar: Thorn
Encoding: 222 222 244
Width: 556
Flags: MW
HStem: 0 21G<100 100 100 132> 172 28<132 260 260 272 132 260> 512 28<132 260 132 272> 512 148<100 260 100 132>
VStem: 100 32<0 172 200 512 540 660> 470 34<303 418>
LayerCount: 2
Fore
SplineSet
100 0 m 1xec
 100 660 l 1
 132 660 l 1xdc
 132 540 l 1
 272 540 l 2
 420 540 504 492 504 360 c 0
 504 234 420 172 272 172 c 2
 132 172 l 1
 132 0 l 1
 100 0 l 1xec
132 200 m 1
 260 200 l 2
 402 200 470 246 470 360 c 0
 470 476 402 512 260 512 c 2
 132 512 l 1xec
 132 200 l 1
EndSplineSet
Substitution2: "'c2sc' Capitals to Small Capitals lookup 17 subtable" Thorn.sc
Substitution2: "'aalt' Access All Alternates lookup 0 subtable" Thorn.sc
PairPos2: "'kern' Horizontal Kerning lookup 10 per glyph data 5" uni012C.a dx=0 dy=0 dh=-30 dv=0 dx=0 dy=0 dh=0 dv=0
PairPos2: "'kern' Horizontal Kerning lookup 10 per glyph data 5" Iogonek.a dx=0 dy=0 dh=-30 dv=0 dx=0 dy=0 dh=0 dv=0
PairPos2: "'kern' Horizontal Kerning lookup 10 per glyph data 5" uni1ECA.a dx=0 dy=0 dh=-30 dv=0 dx=0 dy=0 dh=0 dv=0
PairPos2: "'kern' Horizontal Kerning lookup 10 per glyph data 5" uni1EC8.a dx=0 dy=0 dh=-30 dv=0 dx=0 dy=0 dh=0 dv=0
PairPos2: "'kern' Horizontal Kerning lookup 10 per glyph data 5" uni01CF.a dx=0 dy=0 dh=-30 dv=0 dx=0 dy=0 dh=0 dv=0
PairPos2: "'kern' Horizontal Kerning lookup 10 per glyph data 5" Idotaccent.a dx=0 dy=0 dh=-30 dv=0 dx=0 dy=0 dh=0 dv=0
PairPos2: "'kern' Horizontal Kerning lookup 10 per glyph data 5" Imacron.a dx=0 dy=0 dh=-30 dv=0 dx=0 dy=0 dh=0 dv=0
PairPos2: "'kern' Horizontal Kerning lookup 10 per glyph data 5" Idieresis.a dx=0 dy=0 dh=-30 dv=0 dx=0 dy=0 dh=0 dv=0
PairPos2: "'kern' Horizontal Kerning lookup 10 per glyph data 5" Itilde.a dx=0 dy=0 dh=-30 dv=0 dx=0 dy=0 dh=0 dv=0
PairPos2: "'kern' Horizontal Kerning lookup 10 per glyph data 5" Icircumflex.a dx=0 dy=0 dh=-30 dv=0 dx=0 dy=0 dh=0 dv=0
PairPos2: "'kern' Horizontal Kerning lookup 10 per glyph data 5" Iacute.a dx=0 dy=0 dh=-30 dv=0 dx=0 dy=0 dh=0 dv=0
PairPos2: "'kern' Horizontal Kerning lookup 10 per glyph data 5" Igrave.a dx=0 dy=0 dh=-30 dv=0 dx=0 dy=0 dh=0 dv=0
PairPos2: "'kern' Horizontal Kerning lookup 10 per glyph data 5" I.a dx=0 dy=0 dh=-30 dv=0 dx=0 dy=0 dh=0 dv=0
PairPos2: "'kern' Horizontal Kerning lookup 10 per glyph data 5" slash dx=0 dy=0 dh=-80 dv=0 dx=0 dy=0 dh=0 dv=0
PairPos2: "'kern' Horizontal Kerning lookup 10 per glyph data 5" trademark dx=0 dy=0 dh=-20 dv=0 dx=0 dy=0 dh=0 dv=0
PairPos2: "'kern' Horizontal Kerning lookup 10 per glyph data 5" backslash dx=0 dy=0 dh=-40 dv=0 dx=0 dy=0 dh=0 dv=0
PairPos2: "'kern' Horizontal Kerning lookup 10 per glyph data 5" asterisk dx=0 dy=0 dh=-80 dv=0 dx=0 dy=0 dh=0 dv=0
EndChar
StartChar: igrave
Encoding: 236 236 315
Width: 222
Flags: MW
HStem: 0 21G<96 96 96 126> 458 20G<96 126 126 126> 704 20G<7 7>
VStem: 96 30<0 478 0 478>
LayerCount: 2
Fore
SplineSet
96 0 m 1
 96 478 l 1
 126 478 l 1
 126 0 l 1
 96 0 l 1
145 574 m 1
 7 724 l 1
 31 744 l 1
 163 590 l 1
 145 574 l 1
EndSplineSet
Substitution2: "'smcp' Lowercase to Small Capitals lookup 20 subtable" Igrave.sc
Substitution2: "'aalt' Access All Alternates lookup 0 subtable" Igrave.sc
EndChar
StartChar: icircumflex
Encoding: 238 238 317
Width: 222
Flags: MW
HStem: 0 21G<96 96 96 126> 458 20G<96 126 126 126> 704 32<109 113 109 109>
VStem: 96 30<0 478 0 478>
LayerCount: 2
Fore
SplineSet
96 0 m 1
 96 478 l 1
 126 478 l 1
 126 0 l 1
 96 0 l 1
-21 590 m 1
 97 736 l 1
 125 736 l 1
 243 590 l 1
 225 574 l 1
 113 704 l 1
 109 704 l 1
 -3 574 l 1
 -21 590 l 1
EndSplineSet
Substitution2: "'smcp' Lowercase to Small Capitals lookup 20 subtable" Icircumflex.sc
Substitution2: "'aalt' Access All Alternates lookup 0 subtable" Icircumflex.sc
EndChar
StartChar: otilde
Encoding: 245 245 356
Width: 532
Flags: MW
HStem: -12 28<215 317 215 323> 462 28<215 317> 580 26<315.5 363.5 315.5 374.5> 680 26<169 217>
VStem: 54 32<172 304 172 318> 106 26<582 584> 400 26<702 704> 446 32<172 304>
LayerCount: 2
Fore
SplineSet
266 -12 m 0
 152 -12 54 80 54 238 c 0
 54 398 152 490 266 490 c 0
 380 490 478 398 478 238 c 0
 478 80 380 -12 266 -12 c 0
266 16 m 0
 368 16 446 106 446 238 c 0
 446 370 368 462 266 462 c 0
 164 462 86 370 86 238 c 0
 86 106 164 16 266 16 c 0
343 580 m 0xff
 266 580 246 680 188 680 c 0
 150 680 134 636 132 582 c 1
 106 584 l 1
 110 641 126 706 190 706 c 0
 266 706 286 606 345 606 c 0
 382 606 398 652 400 704 c 1
 426 702 l 1
 422 646 406 580 343 580 c 0xff
EndSplineSet
Substitution2: "'smcp' Lowercase to Small Capitals lookup 20 subtable" Otilde.sc
Substitution2: "'aalt' Access All Alternates lookup 0 subtable" Otilde.sc
PairPos2: "'kern' Horizontal Kerning lookup 10 per glyph data 5" uni2015 dx=0 dy=0 dh=10 dv=0 dx=0 dy=0 dh=0 dv=0
PairPos2: "'kern' Horizontal Kerning lookup 10 per glyph data 5" figuredash dx=0 dy=0 dh=10 dv=0 dx=0 dy=0 dh=0 dv=0
PairPos2: "'kern' Horizontal Kerning lookup 10 per glyph data 5" emdash dx=0 dy=0 dh=10 dv=0 dx=0 dy=0 dh=0 dv=0
PairPos2: "'kern' Horizontal Kerning lookup 10 per glyph data 5" endash dx=0 dy=0 dh=10 dv=0 dx=0 dy=0 dh=0 dv=0
PairPos2: "'kern' Horizontal Kerning lookup 10 per glyph data 5" uni00AD dx=0 dy=0 dh=10 dv=0 dx=0 dy=0 dh=0 dv=0
PairPos2: "'kern' Horizontal Kerning lookup 10 per glyph data 5" hyphen dx=0 dy=0 dh=10 dv=0 dx=0 dy=0 dh=0 dv=0
PairPos2: "'kern' Horizontal Kerning lookup 10 per glyph data 5" x dx=0 dy=0 dh=-10 dv=0 dx=0 dy=0 dh=0 dv=0
PairPos2: "'kern' Horizontal Kerning lookup 10 per glyph data 5" backslash dx=0 dy=0 dh=-18 dv=0 dx=0 dy=0 dh=0 dv=0
PairPos2: "'kern' Horizontal Kerning lookup 10 per glyph data 5" quotedbl dx=0 dy=0 dh=-40 dv=0 dx=0 dy=0 dh=0 dv=0
PairPos2: "'kern' Horizontal Kerning lookup 10 per glyph data 5" quotesingle dx=0 dy=0 dh=-40 dv=0 dx=0 dy=0 dh=0 dv=0
PairPos2: "'kern' Horizontal Kerning lookup 10 per glyph data 5" uni02BF dx=0 dy=0 dh=-22 dv=0 dx=0 dy=0 dh=0 dv=0
PairPos2: "'kern' Horizontal Kerning lookup 10 per glyph data 5" uni02BB dx=0 dy=0 dh=-22 dv=0 dx=0 dy=0 dh=0 dv=0
PairPos2: "'kern' Horizontal Kerning lookup 10 per glyph data 5" quotedblleft dx=0 dy=0 dh=-22 dv=0 dx=0 dy=0 dh=0 dv=0
PairPos2: "'kern' Horizontal Kerning lookup 10 per glyph data 5" quoteleft dx=0 dy=0 dh=-22 dv=0 dx=0 dy=0 dh=0 dv=0
PairPos2: "'kern' Horizontal Kerning lookup 10 per glyph data 5" uni01E3 dx=0 dy=0 dh=-16 dv=0 dx=0 dy=0 dh=0 dv=0
PairPos2: "'kern' Horizontal Kerning lookup 10 per glyph data 5" uni01FD dx=0 dy=0 dh=-16 dv=0 dx=0 dy=0 dh=0 dv=0
PairPos2: "'kern' Horizontal Kerning lookup 10 per glyph data 5" ae dx=0 dy=0 dh=-16 dv=0 dx=0 dy=0 dh=0 dv=0
PairPos2: "'kern' Horizontal Kerning lookup 10 per glyph data 5" aogonek dx=0 dy=0 dh=-16 dv=0 dx=0 dy=0 dh=0 dv=0
PairPos2: "'kern' Horizontal Kerning lookup 10 per glyph data 5" uni1EB7 dx=0 dy=0 dh=-16 dv=0 dx=0 dy=0 dh=0 dv=0
PairPos2: "'kern' Horizontal Kerning lookup 10 per glyph data 5" uni1EB5 dx=0 dy=0 dh=-16 dv=0 dx=0 dy=0 dh=0 dv=0
PairPos2: "'kern' Horizontal Kerning lookup 10 per glyph data 5" uni1EB3 dx=0 dy=0 dh=-16 dv=0 dx=0 dy=0 dh=0 dv=0
PairPos2: "'kern' Horizontal Kerning lookup 10 per glyph data 5" uni1EB1 dx=0 dy=0 dh=-16 dv=0 dx=0 dy=0 dh=0 dv=0
PairPos2: "'kern' Horizontal Kerning lookup 10 per glyph data 5" uni1EAF dx=0 dy=0 dh=-16 dv=0 dx=0 dy=0 dh=0 dv=0
PairPos2: "'kern' Horizontal Kerning lookup 10 per glyph data 5" uni1EAD dx=0 dy=0 dh=-16 dv=0 dx=0 dy=0 dh=0 dv=0
PairPos2: "'kern' Horizontal Kerning lookup 10 per glyph data 5" uni1EAB dx=0 dy=0 dh=-16 dv=0 dx=0 dy=0 dh=0 dv=0
PairPos2: "'kern' Horizontal Kerning lookup 10 per glyph data 5" uni1EA9 dx=0 dy=0 dh=-16 dv=0 dx=0 dy=0 dh=0 dv=0
PairPos2: "'kern' Horizontal Kerning lookup 10 per glyph data 5" uni1EA7 dx=0 dy=0 dh=-16 dv=0 dx=0 dy=0 dh=0 dv=0
PairPos2: "'kern' Horizontal Kerning lookup 10 per glyph data 5" uni1EA5 dx=0 dy=0 dh=-16 dv=0 dx=0 dy=0 dh=0 dv=0
PairPos2: "'kern' Horizontal Kerning lookup 10 per glyph data 5" uni1EA3 dx=0 dy=0 dh=-16 dv=0 dx=0 dy=0 dh=0 dv=0
PairPos2: "'kern' Horizontal Kerning lookup 10 per glyph data 5" uni1EA1 dx=0 dy=0 dh=-16 dv=0 dx=0 dy=0 dh=0 dv=0
PairPos2: "'kern' Horizontal Kerning lookup 10 per glyph data 5" uni01CE dx=0 dy=0 dh=-16 dv=0 dx=0 dy=0 dh=0 dv=0
PairPos2: "'kern' Horizontal Kerning lookup 10 per glyph data 5" aring dx=0 dy=0 dh=-16 dv=0 dx=0 dy=0 dh=0 dv=0
PairPos2: "'kern' Horizontal Kerning lookup 10 per glyph data 5" abreve dx=0 dy=0 dh=-16 dv=0 dx=0 dy=0 dh=0 dv=0
PairPos2: "'kern' Horizontal Kerning lookup 10 per glyph data 5" amacron dx=0 dy=0 dh=-16 dv=0 dx=0 dy=0 dh=0 dv=0
PairPos2: "'kern' Horizontal Kerning lookup 10 per glyph data 5" adieresis dx=0 dy=0 dh=-16 dv=0 dx=0 dy=0 dh=0 dv=0
PairPos2: "'kern' Horizontal Kerning lookup 10 per glyph data 5" atilde dx=0 dy=0 dh=-16 dv=0 dx=0 dy=0 dh=0 dv=0
PairPos2: "'kern' Horizontal Kerning lookup 10 per glyph data 5" acircumflex dx=0 dy=0 dh=-16 dv=0 dx=0 dy=0 dh=0 dv=0
PairPos2: "'kern' Horizontal Kerning lookup 10 per glyph data 5" aacute dx=0 dy=0 dh=-16 dv=0 dx=0 dy=0 dh=0 dv=0
PairPos2: "'kern' Horizontal Kerning lookup 10 per glyph data 5" agrave dx=0 dy=0 dh=-16 dv=0 dx=0 dy=0 dh=0 dv=0
PairPos2: "'kern' Horizontal Kerning lookup 10 per glyph data 5" a dx=0 dy=0 dh=-16 dv=0 dx=0 dy=0 dh=0 dv=0
PairPos2: "'kern' Horizontal Kerning lookup 10 per glyph data 5" quotedblbase dx=0 dy=0 dh=-10 dv=0 dx=0 dy=0 dh=0 dv=0
PairPos2: "'kern' Horizontal Kerning lookup 10 per glyph data 5" quotesinglbase dx=0 dy=0 dh=-10 dv=0 dx=0 dy=0 dh=0 dv=0
PairPos2: "'kern' Horizontal Kerning lookup 10 per glyph data 5" ellipsis dx=0 dy=0 dh=-10 dv=0 dx=0 dy=0 dh=0 dv=0
PairPos2: "'kern' Horizontal Kerning lookup 10 per glyph data 5" comma dx=0 dy=0 dh=-10 dv=0 dx=0 dy=0 dh=0 dv=0
PairPos2: "'kern' Horizontal Kerning lookup 10 per glyph data 5" period dx=0 dy=0 dh=-10 dv=0 dx=0 dy=0 dh=0 dv=0
PairPos2: "'kern' Horizontal Kerning lookup 10 per glyph data 5" asterisk dx=0 dy=0 dh=-40 dv=0 dx=0 dy=0 dh=0 dv=0
PairPos2: "'kern' Horizontal Kerning lookup 10 per glyph data 5" uni02BE dx=0 dy=0 dh=-18 dv=0 dx=0 dy=0 dh=0 dv=0
PairPos2: "'kern' Horizontal Kerning lookup 10 per glyph data 5" uni02BC dx=0 dy=0 dh=-18 dv=0 dx=0 dy=0 dh=0 dv=0
PairPos2: "'kern' Horizontal Kerning lookup 10 per glyph data 5" quotedblright dx=0 dy=0 dh=-18 dv=0 dx=0 dy=0 dh=0 dv=0
PairPos2: "'kern' Horizontal Kerning lookup 10 per glyph data 5" quoteright dx=0 dy=0 dh=-18 dv=0 dx=0 dy=0 dh=0 dv=0
PairPos2: "'kern' Horizontal Kerning lookup 10 per glyph data 5" uni203D dx=0 dy=0 dh=4 dv=0 dx=0 dy=0 dh=0 dv=0
PairPos2: "'kern' Horizontal Kerning lookup 10 per glyph data 5" uni2048 dx=0 dy=0 dh=4 dv=0 dx=0 dy=0 dh=0 dv=0
PairPos2: "'kern' Horizontal Kerning lookup 10 per glyph data 5" uni2047 dx=0 dy=0 dh=4 dv=0 dx=0 dy=0 dh=0 dv=0
PairPos2: "'kern' Horizontal Kerning lookup 10 per glyph data 5" question dx=0 dy=0 dh=4 dv=0 dx=0 dy=0 dh=0 dv=0
PairPos2: "'kern' Horizontal Kerning lookup 10 per glyph data 5" uni1EF8 dx=0 dy=0 dh=-38 dv=0 dx=0 dy=0 dh=0 dv=0
PairPos2: "'kern' Horizontal Kerning lookup 10 per glyph data 5" uni1EF6 dx=0 dy=0 dh=-38 dv=0 dx=0 dy=0 dh=0 dv=0
PairPos2: "'kern' Horizontal Kerning lookup 10 per glyph data 5" uni1EF4 dx=0 dy=0 dh=-38 dv=0 dx=0 dy=0 dh=0 dv=0
PairPos2: "'kern' Horizontal Kerning lookup 10 per glyph data 5" uni1E8E dx=0 dy=0 dh=-38 dv=0 dx=0 dy=0 dh=0 dv=0
PairPos2: "'kern' Horizontal Kerning lookup 10 per glyph data 5" Ydieresis dx=0 dy=0 dh=-38 dv=0 dx=0 dy=0 dh=0 dv=0
PairPos2: "'kern' Horizontal Kerning lookup 10 per glyph data 5" Ycircumflex dx=0 dy=0 dh=-38 dv=0 dx=0 dy=0 dh=0 dv=0
PairPos2: "'kern' Horizontal Kerning lookup 10 per glyph data 5" Yacute dx=0 dy=0 dh=-38 dv=0 dx=0 dy=0 dh=0 dv=0
PairPos2: "'kern' Horizontal Kerning lookup 10 per glyph data 5" Ygrave dx=0 dy=0 dh=-38 dv=0 dx=0 dy=0 dh=0 dv=0
PairPos2: "'kern' Horizontal Kerning lookup 10 per glyph data 5" Y dx=0 dy=0 dh=-38 dv=0 dx=0 dy=0 dh=0 dv=0
PairPos2: "'kern' Horizontal Kerning lookup 10 per glyph data 5" V dx=0 dy=0 dh=-18 dv=0 dx=0 dy=0 dh=0 dv=0
PairPos2: "'kern' Horizontal Kerning lookup 10 per glyph data 5" uni0166 dx=0 dy=0 dh=-56 dv=0 dx=0 dy=0 dh=0 dv=0
PairPos2: "'kern' Horizontal Kerning lookup 10 per glyph data 5" uni1E6E dx=0 dy=0 dh=-56 dv=0 dx=0 dy=0 dh=0 dv=0
PairPos2: "'kern' Horizontal Kerning lookup 10 per glyph data 5" uni1E6C dx=0 dy=0 dh=-56 dv=0 dx=0 dy=0 dh=0 dv=0
PairPos2: "'kern' Horizontal Kerning lookup 10 per glyph data 5" uni021A dx=0 dy=0 dh=-56 dv=0 dx=0 dy=0 dh=0 dv=0
PairPos2: "'kern' Horizontal Kerning lookup 10 per glyph data 5" uni0162 dx=0 dy=0 dh=-56 dv=0 dx=0 dy=0 dh=0 dv=0
PairPos2: "'kern' Horizontal Kerning lookup 10 per glyph data 5" Tcaron dx=0 dy=0 dh=-56 dv=0 dx=0 dy=0 dh=0 dv=0
PairPos2: "'kern' Horizontal Kerning lookup 10 per glyph data 5" T dx=0 dy=0 dh=-56 dv=0 dx=0 dy=0 dh=0 dv=0
PairPos2: "'kern' Horizontal Kerning lookup 10 per glyph data 5" uni0288 dx=0 dy=0 dh=-10 dv=0 dx=0 dy=0 dh=0 dv=0
PairPos2: "'kern' Horizontal Kerning lookup 10 per glyph data 5" uni0167 dx=0 dy=0 dh=-10 dv=0 dx=0 dy=0 dh=0 dv=0
PairPos2: "'kern' Horizontal Kerning lookup 10 per glyph data 5" uni1E97 dx=0 dy=0 dh=-10 dv=0 dx=0 dy=0 dh=0 dv=0
PairPos2: "'kern' Horizontal Kerning lookup 10 per glyph data 5" uni1E6F dx=0 dy=0 dh=-10 dv=0 dx=0 dy=0 dh=0 dv=0
PairPos2: "'kern' Horizontal Kerning lookup 10 per glyph data 5" uni1E6D dx=0 dy=0 dh=-10 dv=0 dx=0 dy=0 dh=0 dv=0
PairPos2: "'kern' Horizontal Kerning lookup 10 per glyph data 5" uni021B dx=0 dy=0 dh=-10 dv=0 dx=0 dy=0 dh=0 dv=0
PairPos2: "'kern' Horizontal Kerning lookup 10 per glyph data 5" uni0163 dx=0 dy=0 dh=-10 dv=0 dx=0 dy=0 dh=0 dv=0
PairPos2: "'kern' Horizontal Kerning lookup 10 per glyph data 5" tcaron dx=0 dy=0 dh=-10 dv=0 dx=0 dy=0 dh=0 dv=0
PairPos2: "'kern' Horizontal Kerning lookup 10 per glyph data 5" t dx=0 dy=0 dh=-10 dv=0 dx=0 dy=0 dh=0 dv=0
EndChar
StartChar: oslash
Encoding: 248 248 370
Width: 532
GlyphClass: 2
Flags: MW
HStem: -12 28<242 317 242 323> -4 20 460 20G<486 486> 462 28<215 290>
VStem: 54 32<209 304 209 318> 446 32<172 267>
AnchorPoint: "Anchor-0" 266 502 basechar 0
LayerCount: 2
Fore
SplineSet
266 -12 m 0x9c
 213 -12 163 8 125 46 c 1
 68 -22 l 1x9c
 46 -4 l 1
 106 68 l 1
 74 110 54 167 54 238 c 0
 54 398 152 490 266 490 c 0
 320 490 370 469 408 431 c 1
 464 498 l 1x5c
 486 480 l 1
 427 409 l 1xac
 459 367 478 309 478 238 c 0
 478 80 380 -12 266 -12 c 0x9c
86 238 m 0
 86 180 101 130 126 93 c 1
 388 407 l 1
 356 442 314 462 266 462 c 0
 164 462 86 370 86 238 c 0
266 16 m 0
 368 16 446 106 446 238 c 0
 446 296 431 346 406 384 c 1
 144 70 l 1
 176 36 218 16 266 16 c 0
EndSplineSet
Substitution2: "'smcp' Lowercase to Small Capitals lookup 20 subtable" Oslash.sc
Substitution2: "'aalt' Access All Alternates lookup 0 subtable" Oslash.sc
PairPos2: "'kern' Horizontal Kerning lookup 10 per glyph data 5" uni2015 dx=0 dy=0 dh=10 dv=0 dx=0 dy=0 dh=0 dv=0
PairPos2: "'kern' Horizontal Kerning lookup 10 per glyph data 5" figuredash dx=0 dy=0 dh=10 dv=0 dx=0 dy=0 dh=0 dv=0
PairPos2: "'kern' Horizontal Kerning lookup 10 per glyph data 5" emdash dx=0 dy=0 dh=10 dv=0 dx=0 dy=0 dh=0 dv=0
PairPos2: "'kern' Horizontal Kerning lookup 10 per glyph data 5" endash dx=0 dy=0 dh=10 dv=0 dx=0 dy=0 dh=0 dv=0
PairPos2: "'kern' Horizontal Kerning lookup 10 per glyph data 5" uni00AD dx=0 dy=0 dh=10 dv=0 dx=0 dy=0 dh=0 dv=0
PairPos2: "'kern' Horizontal Kerning lookup 10 per glyph data 5" hyphen dx=0 dy=0 dh=10 dv=0 dx=0 dy=0 dh=0 dv=0
PairPos2: "'kern' Horizontal Kerning lookup 10 per glyph data 5" x dx=0 dy=0 dh=-10 dv=0 dx=0 dy=0 dh=0 dv=0
PairPos2: "'kern' Horizontal Kerning lookup 10 per glyph data 5" backslash dx=0 dy=0 dh=-18 dv=0 dx=0 dy=0 dh=0 dv=0
PairPos2: "'kern' Horizontal Kerning lookup 10 per glyph data 5" quotedbl dx=0 dy=0 dh=-40 dv=0 dx=0 dy=0 dh=0 dv=0
PairPos2: "'kern' Horizontal Kerning lookup 10 per glyph data 5" quotesingle dx=0 dy=0 dh=-40 dv=0 dx=0 dy=0 dh=0 dv=0
PairPos2: "'kern' Horizontal Kerning lookup 10 per glyph data 5" uni02BF dx=0 dy=0 dh=-22 dv=0 dx=0 dy=0 dh=0 dv=0
PairPos2: "'kern' Horizontal Kerning lookup 10 per glyph data 5" uni02BB dx=0 dy=0 dh=-22 dv=0 dx=0 dy=0 dh=0 dv=0
PairPos2: "'kern' Horizontal Kerning lookup 10 per glyph data 5" quotedblleft dx=0 dy=0 dh=-22 dv=0 dx=0 dy=0 dh=0 dv=0
PairPos2: "'kern' Horizontal Kerning lookup 10 per glyph data 5" quoteleft dx=0 dy=0 dh=-22 dv=0 dx=0 dy=0 dh=0 dv=0
PairPos2: "'kern' Horizontal Kerning lookup 10 per glyph data 5" uni01E3 dx=0 dy=0 dh=-16 dv=0 dx=0 dy=0 dh=0 dv=0
PairPos2: "'kern' Horizontal Kerning lookup 10 per glyph data 5" uni01FD dx=0 dy=0 dh=-16 dv=0 dx=0 dy=0 dh=0 dv=0
PairPos2: "'kern' Horizontal Kerning lookup 10 per glyph data 5" ae dx=0 dy=0 dh=-16 dv=0 dx=0 dy=0 dh=0 dv=0
PairPos2: "'kern' Horizontal Kerning lookup 10 per glyph data 5" aogonek dx=0 dy=0 dh=-16 dv=0 dx=0 dy=0 dh=0 dv=0
PairPos2: "'kern' Horizontal Kerning lookup 10 per glyph data 5" uni1EB7 dx=0 dy=0 dh=-16 dv=0 dx=0 dy=0 dh=0 dv=0
PairPos2: "'kern' Horizontal Kerning lookup 10 per glyph data 5" uni1EB5 dx=0 dy=0 dh=-16 dv=0 dx=0 dy=0 dh=0 dv=0
PairPos2: "'kern' Horizontal Kerning lookup 10 per glyph data 5" uni1EB3 dx=0 dy=0 dh=-16 dv=0 dx=0 dy=0 dh=0 dv=0
PairPos2: "'kern' Horizontal Kerning lookup 10 per glyph data 5" uni1EB1 dx=0 dy=0 dh=-16 dv=0 dx=0 dy=0 dh=0 dv=0
PairPos2: "'kern' Horizontal Kerning lookup 10 per glyph data 5" uni1EAF dx=0 dy=0 dh=-16 dv=0 dx=0 dy=0 dh=0 dv=0
PairPos2: "'kern' Horizontal Kerning lookup 10 per glyph data 5" uni1EAD dx=0 dy=0 dh=-16 dv=0 dx=0 dy=0 dh=0 dv=0
PairPos2: "'kern' Horizontal Kerning lookup 10 per glyph data 5" uni1EAB dx=0 dy=0 dh=-16 dv=0 dx=0 dy=0 dh=0 dv=0
PairPos2: "'kern' Horizontal Kerning lookup 10 per glyph data 5" uni1EA9 dx=0 dy=0 dh=-16 dv=0 dx=0 dy=0 dh=0 dv=0
PairPos2: "'kern' Horizontal Kerning lookup 10 per glyph data 5" uni1EA7 dx=0 dy=0 dh=-16 dv=0 dx=0 dy=0 dh=0 dv=0
PairPos2: "'kern' Horizontal Kerning lookup 10 per glyph data 5" uni1EA5 dx=0 dy=0 dh=-16 dv=0 dx=0 dy=0 dh=0 dv=0
PairPos2: "'kern' Horizontal Kerning lookup 10 per glyph data 5" uni1EA3 dx=0 dy=0 dh=-16 dv=0 dx=0 dy=0 dh=0 dv=0
PairPos2: "'kern' Horizontal Kerning lookup 10 per glyph data 5" uni1EA1 dx=0 dy=0 dh=-16 dv=0 dx=0 dy=0 dh=0 dv=0
PairPos2: "'kern' Horizontal Kerning lookup 10 per glyph data 5" uni01CE dx=0 dy=0 dh=-16 dv=0 dx=0 dy=0 dh=0 dv=0
PairPos2: "'kern' Horizontal Kerning lookup 10 per glyph data 5" aring dx=0 dy=0 dh=-16 dv=0 dx=0 dy=0 dh=0 dv=0
PairPos2: "'kern' Horizontal Kerning lookup 10 per glyph data 5" abreve dx=0 dy=0 dh=-16 dv=0 dx=0 dy=0 dh=0 dv=0
PairPos2: "'kern' Horizontal Kerning lookup 10 per glyph data 5" amacron dx=0 dy=0 dh=-16 dv=0 dx=0 dy=0 dh=0 dv=0
PairPos2: "'kern' Horizontal Kerning lookup 10 per glyph data 5" adieresis dx=0 dy=0 dh=-16 dv=0 dx=0 dy=0 dh=0 dv=0
PairPos2: "'kern' Horizontal Kerning lookup 10 per glyph data 5" atilde dx=0 dy=0 dh=-16 dv=0 dx=0 dy=0 dh=0 dv=0
PairPos2: "'kern' Horizontal Kerning lookup 10 per glyph data 5" acircumflex dx=0 dy=0 dh=-16 dv=0 dx=0 dy=0 dh=0 dv=0
PairPos2: "'kern' Horizontal Kerning lookup 10 per glyph data 5" aacute dx=0 dy=0 dh=-16 dv=0 dx=0 dy=0 dh=0 dv=0
PairPos2: "'kern' Horizontal Kerning lookup 10 per glyph data 5" agrave dx=0 dy=0 dh=-16 dv=0 dx=0 dy=0 dh=0 dv=0
PairPos2: "'kern' Horizontal Kerning lookup 10 per glyph data 5" a dx=0 dy=0 dh=-16 dv=0 dx=0 dy=0 dh=0 dv=0
PairPos2: "'kern' Horizontal Kerning lookup 10 per glyph data 5" quotedblbase dx=0 dy=0 dh=-10 dv=0 dx=0 dy=0 dh=0 dv=0
PairPos2: "'kern' Horizontal Kerning lookup 10 per glyph data 5" quotesinglbase dx=0 dy=0 dh=-10 dv=0 dx=0 dy=0 dh=0 dv=0
PairPos2: "'kern' Horizontal Kerning lookup 10 per glyph data 5" ellipsis dx=0 dy=0 dh=-10 dv=0 dx=0 dy=0 dh=0 dv=0
PairPos2: "'kern' Horizontal Kerning lookup 10 per glyph data 5" comma dx=0 dy=0 dh=-10 dv=0 dx=0 dy=0 dh=0 dv=0
PairPos2: "'kern' Horizontal Kerning lookup 10 per glyph data 5" period dx=0 dy=0 dh=-10 dv=0 dx=0 dy=0 dh=0 dv=0
PairPos2: "'kern' Horizontal Kerning lookup 10 per glyph data 5" asterisk dx=0 dy=0 dh=-40 dv=0 dx=0 dy=0 dh=0 dv=0
PairPos2: "'kern' Horizontal Kerning lookup 10 per glyph data 5" uni02BE dx=0 dy=0 dh=-18 dv=0 dx=0 dy=0 dh=0 dv=0
PairPos2: "'kern' Horizontal Kerning lookup 10 per glyph data 5" uni02BC dx=0 dy=0 dh=-18 dv=0 dx=0 dy=0 dh=0 dv=0
PairPos2: "'kern' Horizontal Kerning lookup 10 per glyph data 5" quotedblright dx=0 dy=0 dh=-18 dv=0 dx=0 dy=0 dh=0 dv=0
PairPos2: "'kern' Horizontal Kerning lookup 10 per glyph data 5" quoteright dx=0 dy=0 dh=-18 dv=0 dx=0 dy=0 dh=0 dv=0
PairPos2: "'kern' Horizontal Kerning lookup 10 per glyph data 5" uni203D dx=0 dy=0 dh=4 dv=0 dx=0 dy=0 dh=0 dv=0
PairPos2: "'kern' Horizontal Kerning lookup 10 per glyph data 5" uni2048 dx=0 dy=0 dh=4 dv=0 dx=0 dy=0 dh=0 dv=0
PairPos2: "'kern' Horizontal Kerning lookup 10 per glyph data 5" uni2047 dx=0 dy=0 dh=4 dv=0 dx=0 dy=0 dh=0 dv=0
PairPos2: "'kern' Horizontal Kerning lookup 10 per glyph data 5" question dx=0 dy=0 dh=4 dv=0 dx=0 dy=0 dh=0 dv=0
PairPos2: "'kern' Horizontal Kerning lookup 10 per glyph data 5" uni1EF8 dx=0 dy=0 dh=-38 dv=0 dx=0 dy=0 dh=0 dv=0
PairPos2: "'kern' Horizontal Kerning lookup 10 per glyph data 5" uni1EF6 dx=0 dy=0 dh=-38 dv=0 dx=0 dy=0 dh=0 dv=0
PairPos2: "'kern' Horizontal Kerning lookup 10 per glyph data 5" uni1EF4 dx=0 dy=0 dh=-38 dv=0 dx=0 dy=0 dh=0 dv=0
PairPos2: "'kern' Horizontal Kerning lookup 10 per glyph data 5" uni1E8E dx=0 dy=0 dh=-38 dv=0 dx=0 dy=0 dh=0 dv=0
PairPos2: "'kern' Horizontal Kerning lookup 10 per glyph data 5" Ydieresis dx=0 dy=0 dh=-38 dv=0 dx=0 dy=0 dh=0 dv=0
PairPos2: "'kern' Horizontal Kerning lookup 10 per glyph data 5" Ycircumflex dx=0 dy=0 dh=-38 dv=0 dx=0 dy=0 dh=0 dv=0
PairPos2: "'kern' Horizontal Kerning lookup 10 per glyph data 5" Yacute dx=0 dy=0 dh=-38 dv=0 dx=0 dy=0 dh=0 dv=0
PairPos2: "'kern' Horizontal Kerning lookup 10 per glyph data 5" Ygrave dx=0 dy=0 dh=-38 dv=0 dx=0 dy=0 dh=0 dv=0
PairPos2: "'kern' Horizontal Kerning lookup 10 per glyph data 5" Y dx=0 dy=0 dh=-38 dv=0 dx=0 dy=0 dh=0 dv=0
PairPos2: "'kern' Horizontal Kerning lookup 10 per glyph data 5" V dx=0 dy=0 dh=-18 dv=0 dx=0 dy=0 dh=0 dv=0
PairPos2: "'kern' Horizontal Kerning lookup 10 per glyph data 5" uni0166 dx=0 dy=0 dh=-56 dv=0 dx=0 dy=0 dh=0 dv=0
PairPos2: "'kern' Horizontal Kerning lookup 10 per glyph data 5" uni1E6E dx=0 dy=0 dh=-56 dv=0 dx=0 dy=0 dh=0 dv=0
PairPos2: "'kern' Horizontal Kerning lookup 10 per glyph data 5" uni1E6C dx=0 dy=0 dh=-56 dv=0 dx=0 dy=0 dh=0 dv=0
PairPos2: "'kern' Horizontal Kerning lookup 10 per glyph data 5" uni021A dx=0 dy=0 dh=-56 dv=0 dx=0 dy=0 dh=0 dv=0
PairPos2: "'kern' Horizontal Kerning lookup 10 per glyph data 5" uni0162 dx=0 dy=0 dh=-56 dv=0 dx=0 dy=0 dh=0 dv=0
PairPos2: "'kern' Horizontal Kerning lookup 10 per glyph data 5" Tcaron dx=0 dy=0 dh=-56 dv=0 dx=0 dy=0 dh=0 dv=0
PairPos2: "'kern' Horizontal Kerning lookup 10 per glyph data 5" T dx=0 dy=0 dh=-56 dv=0 dx=0 dy=0 dh=0 dv=0
PairPos2: "'kern' Horizontal Kerning lookup 10 per glyph data 5" uni0288 dx=0 dy=0 dh=-10 dv=0 dx=0 dy=0 dh=0 dv=0
PairPos2: "'kern' Horizontal Kerning lookup 10 per glyph data 5" uni0167 dx=0 dy=0 dh=-10 dv=0 dx=0 dy=0 dh=0 dv=0
PairPos2: "'kern' Horizontal Kerning lookup 10 per glyph data 5" uni1E97 dx=0 dy=0 dh=-10 dv=0 dx=0 dy=0 dh=0 dv=0
PairPos2: "'kern' Horizontal Kerning lookup 10 per glyph data 5" uni1E6F dx=0 dy=0 dh=-10 dv=0 dx=0 dy=0 dh=0 dv=0
PairPos2: "'kern' Horizontal Kerning lookup 10 per glyph data 5" uni1E6D dx=0 dy=0 dh=-10 dv=0 dx=0 dy=0 dh=0 dv=0
PairPos2: "'kern' Horizontal Kerning lookup 10 per glyph data 5" uni021B dx=0 dy=0 dh=-10 dv=0 dx=0 dy=0 dh=0 dv=0
PairPos2: "'kern' Horizontal Kerning lookup 10 per glyph data 5" uni0163 dx=0 dy=0 dh=-10 dv=0 dx=0 dy=0 dh=0 dv=0
PairPos2: "'kern' Horizontal Kerning lookup 10 per glyph data 5" tcaron dx=0 dy=0 dh=-10 dv=0 dx=0 dy=0 dh=0 dv=0
PairPos2: "'kern' Horizontal Kerning lookup 10 per glyph data 5" t dx=0 dy=0 dh=-10 dv=0 dx=0 dy=0 dh=0 dv=0
EndChar
StartChar: ydieresis
Encoding: 255 255 431
Width: 424
Flags: MW
HStem: -222 30<61 98 61 107> 458 20G<12 46 46 46 380 412 412 412> 602 64<129 147 301 319>
VStem: 106 64<625 643> 278 64<625 643>
LayerCount: 2
Fore
SplineSet
66 -222 m 0
 50 -222 32 -218 20 -212 c 1
 28 -184 l 1
 38 -188 54 -192 68 -192 c 0
 128 -192 170 -134 196 -56 c 1
 210 -12 l 1
 12 478 l 1
 46 478 l 1
 168 164 l 2
 184 124 204 72 222 30 c 1
 226 30 l 1
 242 72 258 124 272 164 c 2
 380 478 l 1
 412 478 l 1
 220 -68 l 1
 196 -142 148 -222 66 -222 c 0
138 602 m 0
 120 602 106 616 106 634 c 0
 106 652 120 666 138 666 c 0
 156 666 170 652 170 634 c 0
 170 616 156 602 138 602 c 0
310 602 m 0
 292 602 278 616 278 634 c 0
 278 652 292 666 310 666 c 0
 328 666 342 652 342 634 c 0
 342 616 328 602 310 602 c 0
EndSplineSet
Substitution2: "'smcp' Lowercase to Small Capitals lookup 20 subtable" Ydieresis.sc
Substitution2: "'aalt' Access All Alternates lookup 0 subtable" Ydieresis.sc
PairPos2: "'kern' Horizontal Kerning lookup 10 per glyph data 5" uni026A dx=0 dy=0 dh=10 dv=0 dx=0 dy=0 dh=0 dv=0
PairPos2: "'kern' Horizontal Kerning lookup 10 per glyph data 5" slash dx=0 dy=0 dh=-22 dv=0 dx=0 dy=0 dh=0 dv=0
PairPos2: "'kern' Horizontal Kerning lookup 10 per glyph data 5" uni0284 dx=0 dy=0 dh=-10 dv=0 dx=0 dy=0 dh=0 dv=0
PairPos2: "'kern' Horizontal Kerning lookup 10 per glyph data 5" uni0283 dx=0 dy=0 dh=-10 dv=0 dx=0 dy=0 dh=0 dv=0
PairPos2: "'kern' Horizontal Kerning lookup 10 per glyph data 5" uni0272 dx=0 dy=0 dh=-10 dv=0 dx=0 dy=0 dh=0 dv=0
PairPos2: "'kern' Horizontal Kerning lookup 10 per glyph data 5" uni025F dx=0 dy=0 dh=-10 dv=0 dx=0 dy=0 dh=0 dv=0
PairPos2: "'kern' Horizontal Kerning lookup 10 per glyph data 5" uni0237 dx=0 dy=0 dh=-10 dv=0 dx=0 dy=0 dh=0 dv=0
PairPos2: "'kern' Horizontal Kerning lookup 10 per glyph data 5" jcircumflex dx=0 dy=0 dh=-10 dv=0 dx=0 dy=0 dh=0 dv=0
PairPos2: "'kern' Horizontal Kerning lookup 10 per glyph data 5" j dx=0 dy=0 dh=-10 dv=0 dx=0 dy=0 dh=0 dv=0
PairPos2: "'kern' Horizontal Kerning lookup 10 per glyph data 5" uni0291 dx=0 dy=0 dh=-20 dv=0 dx=0 dy=0 dh=0 dv=0
PairPos2: "'kern' Horizontal Kerning lookup 10 per glyph data 5" uni0290 dx=0 dy=0 dh=-20 dv=0 dx=0 dy=0 dh=0 dv=0
PairPos2: "'kern' Horizontal Kerning lookup 10 per glyph data 5" uni1E95 dx=0 dy=0 dh=-20 dv=0 dx=0 dy=0 dh=0 dv=0
PairPos2: "'kern' Horizontal Kerning lookup 10 per glyph data 5" uni1E93 dx=0 dy=0 dh=-20 dv=0 dx=0 dy=0 dh=0 dv=0
PairPos2: "'kern' Horizontal Kerning lookup 10 per glyph data 5" zdotaccent dx=0 dy=0 dh=-20 dv=0 dx=0 dy=0 dh=0 dv=0
PairPos2: "'kern' Horizontal Kerning lookup 10 per glyph data 5" zcaron dx=0 dy=0 dh=-20 dv=0 dx=0 dy=0 dh=0 dv=0
PairPos2: "'kern' Horizontal Kerning lookup 10 per glyph data 5" zacute dx=0 dy=0 dh=-20 dv=0 dx=0 dy=0 dh=0 dv=0
PairPos2: "'kern' Horizontal Kerning lookup 10 per glyph data 5" z dx=0 dy=0 dh=-20 dv=0 dx=0 dy=0 dh=0 dv=0
PairPos2: "'kern' Horizontal Kerning lookup 10 per glyph data 5" x dx=0 dy=0 dh=-10 dv=0 dx=0 dy=0 dh=0 dv=0
PairPos2: "'kern' Horizontal Kerning lookup 10 per glyph data 5" Jcircumflex dx=0 dy=0 dh=-40 dv=0 dx=0 dy=0 dh=0 dv=0
PairPos2: "'kern' Horizontal Kerning lookup 10 per glyph data 5" J dx=0 dy=0 dh=-40 dv=0 dx=0 dy=0 dh=0 dv=0
PairPos2: "'kern' Horizontal Kerning lookup 10 per glyph data 5" trademark dx=0 dy=0 dh=20 dv=0 dx=0 dy=0 dh=0 dv=0
PairPos2: "'kern' Horizontal Kerning lookup 10 per glyph data 5" registered dx=0 dy=0 dh=60 dv=0 dx=0 dy=0 dh=0 dv=0
PairPos2: "'kern' Horizontal Kerning lookup 10 per glyph data 5" uni01E3 dx=0 dy=0 dh=-20 dv=0 dx=0 dy=0 dh=0 dv=0
PairPos2: "'kern' Horizontal Kerning lookup 10 per glyph data 5" uni01FD dx=0 dy=0 dh=-20 dv=0 dx=0 dy=0 dh=0 dv=0
PairPos2: "'kern' Horizontal Kerning lookup 10 per glyph data 5" ae dx=0 dy=0 dh=-20 dv=0 dx=0 dy=0 dh=0 dv=0
PairPos2: "'kern' Horizontal Kerning lookup 10 per glyph data 5" aogonek dx=0 dy=0 dh=-20 dv=0 dx=0 dy=0 dh=0 dv=0
PairPos2: "'kern' Horizontal Kerning lookup 10 per glyph data 5" uni1EB7 dx=0 dy=0 dh=-20 dv=0 dx=0 dy=0 dh=0 dv=0
PairPos2: "'kern' Horizontal Kerning lookup 10 per glyph data 5" uni1EB5 dx=0 dy=0 dh=-20 dv=0 dx=0 dy=0 dh=0 dv=0
PairPos2: "'kern' Horizontal Kerning lookup 10 per glyph data 5" uni1EB3 dx=0 dy=0 dh=-20 dv=0 dx=0 dy=0 dh=0 dv=0
PairPos2: "'kern' Horizontal Kerning lookup 10 per glyph data 5" uni1EB1 dx=0 dy=0 dh=-20 dv=0 dx=0 dy=0 dh=0 dv=0
PairPos2: "'kern' Horizontal Kerning lookup 10 per glyph data 5" uni1EAF dx=0 dy=0 dh=-20 dv=0 dx=0 dy=0 dh=0 dv=0
PairPos2: "'kern' Horizontal Kerning lookup 10 per glyph data 5" uni1EAD dx=0 dy=0 dh=-20 dv=0 dx=0 dy=0 dh=0 dv=0
PairPos2: "'kern' Horizontal Kerning lookup 10 per glyph data 5" uni1EAB dx=0 dy=0 dh=-20 dv=0 dx=0 dy=0 dh=0 dv=0
PairPos2: "'kern' Horizontal Kerning lookup 10 per glyph data 5" uni1EA9 dx=0 dy=0 dh=-20 dv=0 dx=0 dy=0 dh=0 dv=0
PairPos2: "'kern' Horizontal Kerning lookup 10 per glyph data 5" uni1EA7 dx=0 dy=0 dh=-20 dv=0 dx=0 dy=0 dh=0 dv=0
PairPos2: "'kern' Horizontal Kerning lookup 10 per glyph data 5" uni1EA5 dx=0 dy=0 dh=-20 dv=0 dx=0 dy=0 dh=0 dv=0
PairPos2: "'kern' Horizontal Kerning lookup 10 per glyph data 5" uni1EA3 dx=0 dy=0 dh=-20 dv=0 dx=0 dy=0 dh=0 dv=0
PairPos2: "'kern' Horizontal Kerning lookup 10 per glyph data 5" uni1EA1 dx=0 dy=0 dh=-20 dv=0 dx=0 dy=0 dh=0 dv=0
PairPos2: "'kern' Horizontal Kerning lookup 10 per glyph data 5" uni01CE dx=0 dy=0 dh=-20 dv=0 dx=0 dy=0 dh=0 dv=0
PairPos2: "'kern' Horizontal Kerning lookup 10 per glyph data 5" aring dx=0 dy=0 dh=-20 dv=0 dx=0 dy=0 dh=0 dv=0
PairPos2: "'kern' Horizontal Kerning lookup 10 per glyph data 5" abreve dx=0 dy=0 dh=-20 dv=0 dx=0 dy=0 dh=0 dv=0
PairPos2: "'kern' Horizontal Kerning lookup 10 per glyph data 5" amacron dx=0 dy=0 dh=-20 dv=0 dx=0 dy=0 dh=0 dv=0
PairPos2: "'kern' Horizontal Kerning lookup 10 per glyph data 5" adieresis dx=0 dy=0 dh=-20 dv=0 dx=0 dy=0 dh=0 dv=0
PairPos2: "'kern' Horizontal Kerning lookup 10 per glyph data 5" atilde dx=0 dy=0 dh=-20 dv=0 dx=0 dy=0 dh=0 dv=0
PairPos2: "'kern' Horizontal Kerning lookup 10 per glyph data 5" acircumflex dx=0 dy=0 dh=-20 dv=0 dx=0 dy=0 dh=0 dv=0
PairPos2: "'kern' Horizontal Kerning lookup 10 per glyph data 5" aacute dx=0 dy=0 dh=-20 dv=0 dx=0 dy=0 dh=0 dv=0
PairPos2: "'kern' Horizontal Kerning lookup 10 per glyph data 5" agrave dx=0 dy=0 dh=-20 dv=0 dx=0 dy=0 dh=0 dv=0
PairPos2: "'kern' Horizontal Kerning lookup 10 per glyph data 5" a dx=0 dy=0 dh=-20 dv=0 dx=0 dy=0 dh=0 dv=0
PairPos2: "'kern' Horizontal Kerning lookup 10 per glyph data 5" quotedblbase dx=0 dy=0 dh=-14 dv=0 dx=0 dy=0 dh=0 dv=0
PairPos2: "'kern' Horizontal Kerning lookup 10 per glyph data 5" quotesinglbase dx=0 dy=0 dh=-14 dv=0 dx=0 dy=0 dh=0 dv=0
PairPos2: "'kern' Horizontal Kerning lookup 10 per glyph data 5" ellipsis dx=0 dy=0 dh=-14 dv=0 dx=0 dy=0 dh=0 dv=0
PairPos2: "'kern' Horizontal Kerning lookup 10 per glyph data 5" comma dx=0 dy=0 dh=-14 dv=0 dx=0 dy=0 dh=0 dv=0
PairPos2: "'kern' Horizontal Kerning lookup 10 per glyph data 5" period dx=0 dy=0 dh=-14 dv=0 dx=0 dy=0 dh=0 dv=0
PairPos2: "'kern' Horizontal Kerning lookup 10 per glyph data 5" uni0166 dx=0 dy=0 dh=-20 dv=0 dx=0 dy=0 dh=0 dv=0
PairPos2: "'kern' Horizontal Kerning lookup 10 per glyph data 5" uni1E6E dx=0 dy=0 dh=-20 dv=0 dx=0 dy=0 dh=0 dv=0
PairPos2: "'kern' Horizontal Kerning lookup 10 per glyph data 5" uni1E6C dx=0 dy=0 dh=-20 dv=0 dx=0 dy=0 dh=0 dv=0
PairPos2: "'kern' Horizontal Kerning lookup 10 per glyph data 5" uni021A dx=0 dy=0 dh=-20 dv=0 dx=0 dy=0 dh=0 dv=0
PairPos2: "'kern' Horizontal Kerning lookup 10 per glyph data 5" uni0162 dx=0 dy=0 dh=-20 dv=0 dx=0 dy=0 dh=0 dv=0
PairPos2: "'kern' Horizontal Kerning lookup 10 per glyph data 5" Tcaron dx=0 dy=0 dh=-20 dv=0 dx=0 dy=0 dh=0 dv=0
PairPos2: "'kern' Horizontal Kerning lookup 10 per glyph data 5" T dx=0 dy=0 dh=-20 dv=0 dx=0 dy=0 dh=0 dv=0
EndChar
StartChar: aogonek
Encoding: 261 261 269
Width: 486
GlyphClass: 2
Flags: MW
HStem: -202 28<355 376> -12 28<171 229 171 230> 0 21G<404 404> 462 28<222 306>
VStem: 60 32<81 159 81 170> 288 30<-138 -98 -138 -97> 374 30<64 64 98 272 272 272>
AnchorPoint: "Anchor-0" 260 502 basechar 0
LayerCount: 2
Fore
SplineSet
366 -202 m 0xde
 322 -202 288 -176 288 -122 c 0
 288 -72 328 -22 378 8 c 1
 374 64 l 1
 372 64 l 1
 322 24 262 -12 198 -12 c 0xde
 124 -12 60 26 60 116 c 0
 60 224 158 274 374 298 c 1
 376 376 356 462 256 462 c 0
 188 462 130 428 100 404 c 1
 84 428 l 1
 114 450 180 490 258 490 c 0
 370 490 404 406 404 310 c 2
 404 0 l 1xbe
 356 -26 318 -76 318 -120 c 0
 318 -156 342 -174 368 -174 c 0
 386 -174 398 -170 412 -160 c 1
 426 -180 l 1
 412 -192 386 -202 366 -202 c 0xde
200 16 m 0
 258 16 310 44 374 98 c 1
 374 272 l 1
 164 248 92 200 92 118 c 0
 92 44 142 16 200 16 c 0
EndSplineSet
Substitution2: "'ss02' Style Set 2 lookup 39 subtable" aogonek.a
Substitution2: "'smcp' Lowercase to Small Capitals lookup 20 subtable" Aogonek.sc
Ligature2: "'ccmp' Glyph Composition/Decomposition lookup 11 subtable" a uni0328
AlternateSubs2: "'aalt' Access All Alternates lookup 1 subtable" Aogonek.sc aogonek.a
PairPos2: "'kern' Horizontal Kerning lookup 10 per glyph data 5" asterisk dx=0 dy=0 dh=-62 dv=0 dx=0 dy=0 dh=0 dv=0
PairPos2: "'kern' Horizontal Kerning lookup 10 per glyph data 5" uni02BE dx=0 dy=0 dh=-8 dv=0 dx=0 dy=0 dh=0 dv=0
PairPos2: "'kern' Horizontal Kerning lookup 10 per glyph data 5" uni02BC dx=0 dy=0 dh=-8 dv=0 dx=0 dy=0 dh=0 dv=0
PairPos2: "'kern' Horizontal Kerning lookup 10 per glyph data 5" quotedblright dx=0 dy=0 dh=-8 dv=0 dx=0 dy=0 dh=0 dv=0
PairPos2: "'kern' Horizontal Kerning lookup 10 per glyph data 5" quoteright dx=0 dy=0 dh=-8 dv=0 dx=0 dy=0 dh=0 dv=0
PairPos2: "'kern' Horizontal Kerning lookup 10 per glyph data 5" uni203D dx=0 dy=0 dh=4 dv=0 dx=0 dy=0 dh=0 dv=0
PairPos2: "'kern' Horizontal Kerning lookup 10 per glyph data 5" uni2048 dx=0 dy=0 dh=4 dv=0 dx=0 dy=0 dh=0 dv=0
PairPos2: "'kern' Horizontal Kerning lookup 10 per glyph data 5" uni2047 dx=0 dy=0 dh=4 dv=0 dx=0 dy=0 dh=0 dv=0
PairPos2: "'kern' Horizontal Kerning lookup 10 per glyph data 5" question dx=0 dy=0 dh=4 dv=0 dx=0 dy=0 dh=0 dv=0
PairPos2: "'kern' Horizontal Kerning lookup 10 per glyph data 5" uni1EF8 dx=0 dy=0 dh=-20 dv=0 dx=0 dy=0 dh=0 dv=0
PairPos2: "'kern' Horizontal Kerning lookup 10 per glyph data 5" uni1EF6 dx=0 dy=0 dh=-20 dv=0 dx=0 dy=0 dh=0 dv=0
PairPos2: "'kern' Horizontal Kerning lookup 10 per glyph data 5" uni1EF4 dx=0 dy=0 dh=-20 dv=0 dx=0 dy=0 dh=0 dv=0
PairPos2: "'kern' Horizontal Kerning lookup 10 per glyph data 5" uni1E8E dx=0 dy=0 dh=-20 dv=0 dx=0 dy=0 dh=0 dv=0
PairPos2: "'kern' Horizontal Kerning lookup 10 per glyph data 5" Ydieresis dx=0 dy=0 dh=-20 dv=0 dx=0 dy=0 dh=0 dv=0
PairPos2: "'kern' Horizontal Kerning lookup 10 per glyph data 5" Ycircumflex dx=0 dy=0 dh=-20 dv=0 dx=0 dy=0 dh=0 dv=0
PairPos2: "'kern' Horizontal Kerning lookup 10 per glyph data 5" Yacute dx=0 dy=0 dh=-20 dv=0 dx=0 dy=0 dh=0 dv=0
PairPos2: "'kern' Horizontal Kerning lookup 10 per glyph data 5" Ygrave dx=0 dy=0 dh=-20 dv=0 dx=0 dy=0 dh=0 dv=0
PairPos2: "'kern' Horizontal Kerning lookup 10 per glyph data 5" Y dx=0 dy=0 dh=-20 dv=0 dx=0 dy=0 dh=0 dv=0
PairPos2: "'kern' Horizontal Kerning lookup 10 per glyph data 5" V dx=0 dy=0 dh=-8 dv=0 dx=0 dy=0 dh=0 dv=0
PairPos2: "'kern' Horizontal Kerning lookup 10 per glyph data 5" uni0166 dx=0 dy=0 dh=-20 dv=0 dx=0 dy=0 dh=0 dv=0
PairPos2: "'kern' Horizontal Kerning lookup 10 per glyph data 5" uni1E6E dx=0 dy=0 dh=-20 dv=0 dx=0 dy=0 dh=0 dv=0
PairPos2: "'kern' Horizontal Kerning lookup 10 per glyph data 5" uni1E6C dx=0 dy=0 dh=-20 dv=0 dx=0 dy=0 dh=0 dv=0
PairPos2: "'kern' Horizontal Kerning lookup 10 per glyph data 5" uni021A dx=0 dy=0 dh=-20 dv=0 dx=0 dy=0 dh=0 dv=0
PairPos2: "'kern' Horizontal Kerning lookup 10 per glyph data 5" uni0162 dx=0 dy=0 dh=-20 dv=0 dx=0 dy=0 dh=0 dv=0
PairPos2: "'kern' Horizontal Kerning lookup 10 per glyph data 5" Tcaron dx=0 dy=0 dh=-20 dv=0 dx=0 dy=0 dh=0 dv=0
PairPos2: "'kern' Horizontal Kerning lookup 10 per glyph data 5" T dx=0 dy=0 dh=-20 dv=0 dx=0 dy=0 dh=0 dv=0
PairPos2: "'kern' Horizontal Kerning lookup 10 per glyph data 5" uni0288 dx=0 dy=0 dh=-10 dv=0 dx=0 dy=0 dh=0 dv=0
PairPos2: "'kern' Horizontal Kerning lookup 10 per glyph data 5" uni0167 dx=0 dy=0 dh=-10 dv=0 dx=0 dy=0 dh=0 dv=0
PairPos2: "'kern' Horizontal Kerning lookup 10 per glyph data 5" uni1E97 dx=0 dy=0 dh=-10 dv=0 dx=0 dy=0 dh=0 dv=0
PairPos2: "'kern' Horizontal Kerning lookup 10 per glyph data 5" uni1E6F dx=0 dy=0 dh=-10 dv=0 dx=0 dy=0 dh=0 dv=0
PairPos2: "'kern' Horizontal Kerning lookup 10 per glyph data 5" uni1E6D dx=0 dy=0 dh=-10 dv=0 dx=0 dy=0 dh=0 dv=0
PairPos2: "'kern' Horizontal Kerning lookup 10 per glyph data 5" uni021B dx=0 dy=0 dh=-10 dv=0 dx=0 dy=0 dh=0 dv=0
PairPos2: "'kern' Horizontal Kerning lookup 10 per glyph data 5" uni0163 dx=0 dy=0 dh=-10 dv=0 dx=0 dy=0 dh=0 dv=0
PairPos2: "'kern' Horizontal Kerning lookup 10 per glyph data 5" tcaron dx=0 dy=0 dh=-10 dv=0 dx=0 dy=0 dh=0 dv=0
PairPos2: "'kern' Horizontal Kerning lookup 10 per glyph data 5" t dx=0 dy=0 dh=-10 dv=0 dx=0 dy=0 dh=0 dv=0
Colour: ff0000
EndChar
StartChar: dcaron
Encoding: 271 271 280
Width: 540
GlyphClass: 3
Flags: MW
HStem: -12 28<200 282 200 285> 0 21G<418 444 418 418> 462 28<215 291> 702 20G<414 444 444 444>
VStem: 54 32<172 300 172 315> 414 30<64 64 100 396 396 396 520 722 0 722> 511 29
LayerCount: 2
Fore
SplineSet
252 -12 m 0xbe
 132 -12 54 76 54 238 c 0
 54 392 152 490 268 490 c 0
 326 490 366 468 416 430 c 1
 414 520 l 1
 414 722 l 1
 444 722 l 1
 444 0 l 1
 418 0 l 1x7e
 414 64 l 1
 412 64 l 1
 372 24 318 -12 252 -12 c 0xbe
254 16 m 0
 310 16 360 46 414 100 c 1
 414 396 l 1
 360 444 316 462 266 462 c 0
 164 462 86 362 86 238 c 0
 86 106 146 16 254 16 c 0
512 548 m 1
 510 752 l 1
 540 752 l 1
 540 704 l 1
 534 548 l 1
 512 548 l 1
EndSplineSet
Substitution2: "'smcp' Lowercase to Small Capitals lookup 20 subtable" Dcaron.sc
Ligature2: "'ccmp' Glyph Composition/Decomposition lookup 11 subtable" d uni030C
Substitution2: "'aalt' Access All Alternates lookup 0 subtable" Dcaron.sc
PairPos2: "'kern' Horizontal Kerning lookup 10 per glyph data 5" slash dx=0 dy=0 dh=-10 dv=0 dx=0 dy=0 dh=0 dv=0
PairPos2: "'kern' Horizontal Kerning lookup 10 per glyph data 5" uni0291 dx=0 dy=0 dh=-10 dv=0 dx=0 dy=0 dh=0 dv=0
PairPos2: "'kern' Horizontal Kerning lookup 10 per glyph data 5" uni0290 dx=0 dy=0 dh=-10 dv=0 dx=0 dy=0 dh=0 dv=0
PairPos2: "'kern' Horizontal Kerning lookup 10 per glyph data 5" uni1E95 dx=0 dy=0 dh=-10 dv=0 dx=0 dy=0 dh=0 dv=0
PairPos2: "'kern' Horizontal Kerning lookup 10 per glyph data 5" uni1E93 dx=0 dy=0 dh=-10 dv=0 dx=0 dy=0 dh=0 dv=0
PairPos2: "'kern' Horizontal Kerning lookup 10 per glyph data 5" zdotaccent dx=0 dy=0 dh=-10 dv=0 dx=0 dy=0 dh=0 dv=0
PairPos2: "'kern' Horizontal Kerning lookup 10 per glyph data 5" zcaron dx=0 dy=0 dh=-10 dv=0 dx=0 dy=0 dh=0 dv=0
PairPos2: "'kern' Horizontal Kerning lookup 10 per glyph data 5" zacute dx=0 dy=0 dh=-10 dv=0 dx=0 dy=0 dh=0 dv=0
PairPos2: "'kern' Horizontal Kerning lookup 10 per glyph data 5" z dx=0 dy=0 dh=-10 dv=0 dx=0 dy=0 dh=0 dv=0
PairPos2: "'kern' Horizontal Kerning lookup 10 per glyph data 5" backslash dx=0 dy=0 dh=60 dv=0 dx=0 dy=0 dh=0 dv=0
PairPos2: "'kern' Horizontal Kerning lookup 10 per glyph data 5" uni028B dx=0 dy=0 dh=-8 dv=0 dx=0 dy=0 dh=0 dv=0
PairPos2: "'kern' Horizontal Kerning lookup 10 per glyph data 5" uni0270 dx=0 dy=0 dh=-8 dv=0 dx=0 dy=0 dh=0 dv=0
PairPos2: "'kern' Horizontal Kerning lookup 10 per glyph data 5" uni026F dx=0 dy=0 dh=-8 dv=0 dx=0 dy=0 dh=0 dv=0
PairPos2: "'kern' Horizontal Kerning lookup 10 per glyph data 5" uni0265 dx=0 dy=0 dh=-8 dv=0 dx=0 dy=0 dh=0 dv=0
PairPos2: "'kern' Horizontal Kerning lookup 10 per glyph data 5" uni0250 dx=0 dy=0 dh=-8 dv=0 dx=0 dy=0 dh=0 dv=0
PairPos2: "'kern' Horizontal Kerning lookup 10 per glyph data 5" uni1EF1 dx=0 dy=0 dh=-8 dv=0 dx=0 dy=0 dh=0 dv=0
PairPos2: "'kern' Horizontal Kerning lookup 10 per glyph data 5" uni1EEF dx=0 dy=0 dh=-8 dv=0 dx=0 dy=0 dh=0 dv=0
PairPos2: "'kern' Horizontal Kerning lookup 10 per glyph data 5" uni1EED dx=0 dy=0 dh=-8 dv=0 dx=0 dy=0 dh=0 dv=0
PairPos2: "'kern' Horizontal Kerning lookup 10 per glyph data 5" uni1EEB dx=0 dy=0 dh=-8 dv=0 dx=0 dy=0 dh=0 dv=0
PairPos2: "'kern' Horizontal Kerning lookup 10 per glyph data 5" uni1EE9 dx=0 dy=0 dh=-8 dv=0 dx=0 dy=0 dh=0 dv=0
PairPos2: "'kern' Horizontal Kerning lookup 10 per glyph data 5" uhorn dx=0 dy=0 dh=-8 dv=0 dx=0 dy=0 dh=0 dv=0
PairPos2: "'kern' Horizontal Kerning lookup 10 per glyph data 5" uogonek dx=0 dy=0 dh=-8 dv=0 dx=0 dy=0 dh=0 dv=0
PairPos2: "'kern' Horizontal Kerning lookup 10 per glyph data 5" uni1EE7 dx=0 dy=0 dh=-8 dv=0 dx=0 dy=0 dh=0 dv=0
PairPos2: "'kern' Horizontal Kerning lookup 10 per glyph data 5" uni1EE5 dx=0 dy=0 dh=-8 dv=0 dx=0 dy=0 dh=0 dv=0
PairPos2: "'kern' Horizontal Kerning lookup 10 per glyph data 5" uni01DC dx=0 dy=0 dh=-8 dv=0 dx=0 dy=0 dh=0 dv=0
PairPos2: "'kern' Horizontal Kerning lookup 10 per glyph data 5" uni01DA dx=0 dy=0 dh=-8 dv=0 dx=0 dy=0 dh=0 dv=0
PairPos2: "'kern' Horizontal Kerning lookup 10 per glyph data 5" uni01D8 dx=0 dy=0 dh=-8 dv=0 dx=0 dy=0 dh=0 dv=0
PairPos2: "'kern' Horizontal Kerning lookup 10 per glyph data 5" uni01D6 dx=0 dy=0 dh=-8 dv=0 dx=0 dy=0 dh=0 dv=0
PairPos2: "'kern' Horizontal Kerning lookup 10 per glyph data 5" uni01D4 dx=0 dy=0 dh=-8 dv=0 dx=0 dy=0 dh=0 dv=0
PairPos2: "'kern' Horizontal Kerning lookup 10 per glyph data 5" uhungarumlaut dx=0 dy=0 dh=-8 dv=0 dx=0 dy=0 dh=0 dv=0
PairPos2: "'kern' Horizontal Kerning lookup 10 per glyph data 5" uring dx=0 dy=0 dh=-8 dv=0 dx=0 dy=0 dh=0 dv=0
PairPos2: "'kern' Horizontal Kerning lookup 10 per glyph data 5" ubreve dx=0 dy=0 dh=-8 dv=0 dx=0 dy=0 dh=0 dv=0
PairPos2: "'kern' Horizontal Kerning lookup 10 per glyph data 5" umacron dx=0 dy=0 dh=-8 dv=0 dx=0 dy=0 dh=0 dv=0
PairPos2: "'kern' Horizontal Kerning lookup 10 per glyph data 5" udieresis dx=0 dy=0 dh=-8 dv=0 dx=0 dy=0 dh=0 dv=0
PairPos2: "'kern' Horizontal Kerning lookup 10 per glyph data 5" utilde dx=0 dy=0 dh=-8 dv=0 dx=0 dy=0 dh=0 dv=0
PairPos2: "'kern' Horizontal Kerning lookup 10 per glyph data 5" ucircumflex dx=0 dy=0 dh=-8 dv=0 dx=0 dy=0 dh=0 dv=0
PairPos2: "'kern' Horizontal Kerning lookup 10 per glyph data 5" uacute dx=0 dy=0 dh=-8 dv=0 dx=0 dy=0 dh=0 dv=0
PairPos2: "'kern' Horizontal Kerning lookup 10 per glyph data 5" ugrave dx=0 dy=0 dh=-8 dv=0 dx=0 dy=0 dh=0 dv=0
PairPos2: "'kern' Horizontal Kerning lookup 10 per glyph data 5" u dx=0 dy=0 dh=-8 dv=0 dx=0 dy=0 dh=0 dv=0
PairPos2: "'kern' Horizontal Kerning lookup 10 per glyph data 5" uni01E3 dx=0 dy=0 dh=-12 dv=0 dx=0 dy=0 dh=0 dv=0
PairPos2: "'kern' Horizontal Kerning lookup 10 per glyph data 5" uni01FD dx=0 dy=0 dh=-12 dv=0 dx=0 dy=0 dh=0 dv=0
PairPos2: "'kern' Horizontal Kerning lookup 10 per glyph data 5" ae dx=0 dy=0 dh=-12 dv=0 dx=0 dy=0 dh=0 dv=0
PairPos2: "'kern' Horizontal Kerning lookup 10 per glyph data 5" aogonek dx=0 dy=0 dh=-12 dv=0 dx=0 dy=0 dh=0 dv=0
PairPos2: "'kern' Horizontal Kerning lookup 10 per glyph data 5" uni1EB7 dx=0 dy=0 dh=-12 dv=0 dx=0 dy=0 dh=0 dv=0
PairPos2: "'kern' Horizontal Kerning lookup 10 per glyph data 5" uni1EB5 dx=0 dy=0 dh=-12 dv=0 dx=0 dy=0 dh=0 dv=0
PairPos2: "'kern' Horizontal Kerning lookup 10 per glyph data 5" uni1EB3 dx=0 dy=0 dh=-12 dv=0 dx=0 dy=0 dh=0 dv=0
PairPos2: "'kern' Horizontal Kerning lookup 10 per glyph data 5" uni1EB1 dx=0 dy=0 dh=-12 dv=0 dx=0 dy=0 dh=0 dv=0
PairPos2: "'kern' Horizontal Kerning lookup 10 per glyph data 5" uni1EAF dx=0 dy=0 dh=-12 dv=0 dx=0 dy=0 dh=0 dv=0
PairPos2: "'kern' Horizontal Kerning lookup 10 per glyph data 5" uni1EAD dx=0 dy=0 dh=-12 dv=0 dx=0 dy=0 dh=0 dv=0
PairPos2: "'kern' Horizontal Kerning lookup 10 per glyph data 5" uni1EAB dx=0 dy=0 dh=-12 dv=0 dx=0 dy=0 dh=0 dv=0
PairPos2: "'kern' Horizontal Kerning lookup 10 per glyph data 5" uni1EA9 dx=0 dy=0 dh=-12 dv=0 dx=0 dy=0 dh=0 dv=0
PairPos2: "'kern' Horizontal Kerning lookup 10 per glyph data 5" uni1EA7 dx=0 dy=0 dh=-12 dv=0 dx=0 dy=0 dh=0 dv=0
PairPos2: "'kern' Horizontal Kerning lookup 10 per glyph data 5" uni1EA5 dx=0 dy=0 dh=-12 dv=0 dx=0 dy=0 dh=0 dv=0
PairPos2: "'kern' Horizontal Kerning lookup 10 per glyph data 5" uni1EA3 dx=0 dy=0 dh=-12 dv=0 dx=0 dy=0 dh=0 dv=0
PairPos2: "'kern' Horizontal Kerning lookup 10 per glyph data 5" uni1EA1 dx=0 dy=0 dh=-12 dv=0 dx=0 dy=0 dh=0 dv=0
PairPos2: "'kern' Horizontal Kerning lookup 10 per glyph data 5" uni01CE dx=0 dy=0 dh=-12 dv=0 dx=0 dy=0 dh=0 dv=0
PairPos2: "'kern' Horizontal Kerning lookup 10 per glyph data 5" aring dx=0 dy=0 dh=-12 dv=0 dx=0 dy=0 dh=0 dv=0
PairPos2: "'kern' Horizontal Kerning lookup 10 per glyph data 5" abreve dx=0 dy=0 dh=-12 dv=0 dx=0 dy=0 dh=0 dv=0
PairPos2: "'kern' Horizontal Kerning lookup 10 per glyph data 5" amacron dx=0 dy=0 dh=-12 dv=0 dx=0 dy=0 dh=0 dv=0
PairPos2: "'kern' Horizontal Kerning lookup 10 per glyph data 5" adieresis dx=0 dy=0 dh=-12 dv=0 dx=0 dy=0 dh=0 dv=0
PairPos2: "'kern' Horizontal Kerning lookup 10 per glyph data 5" atilde dx=0 dy=0 dh=-12 dv=0 dx=0 dy=0 dh=0 dv=0
PairPos2: "'kern' Horizontal Kerning lookup 10 per glyph data 5" acircumflex dx=0 dy=0 dh=-12 dv=0 dx=0 dy=0 dh=0 dv=0
PairPos2: "'kern' Horizontal Kerning lookup 10 per glyph data 5" aacute dx=0 dy=0 dh=-12 dv=0 dx=0 dy=0 dh=0 dv=0
PairPos2: "'kern' Horizontal Kerning lookup 10 per glyph data 5" agrave dx=0 dy=0 dh=-12 dv=0 dx=0 dy=0 dh=0 dv=0
PairPos2: "'kern' Horizontal Kerning lookup 10 per glyph data 5" a dx=0 dy=0 dh=-12 dv=0 dx=0 dy=0 dh=0 dv=0
PairPos2: "'kern' Horizontal Kerning lookup 10 per glyph data 5" uni0288 dx=0 dy=0 dh=-8 dv=0 dx=0 dy=0 dh=0 dv=0
PairPos2: "'kern' Horizontal Kerning lookup 10 per glyph data 5" uni0167 dx=0 dy=0 dh=-8 dv=0 dx=0 dy=0 dh=0 dv=0
PairPos2: "'kern' Horizontal Kerning lookup 10 per glyph data 5" uni1E97 dx=0 dy=0 dh=-8 dv=0 dx=0 dy=0 dh=0 dv=0
PairPos2: "'kern' Horizontal Kerning lookup 10 per glyph data 5" uni1E6F dx=0 dy=0 dh=-8 dv=0 dx=0 dy=0 dh=0 dv=0
PairPos2: "'kern' Horizontal Kerning lookup 10 per glyph data 5" uni1E6D dx=0 dy=0 dh=-8 dv=0 dx=0 dy=0 dh=0 dv=0
PairPos2: "'kern' Horizontal Kerning lookup 10 per glyph data 5" uni021B dx=0 dy=0 dh=-8 dv=0 dx=0 dy=0 dh=0 dv=0
PairPos2: "'kern' Horizontal Kerning lookup 10 per glyph data 5" uni0163 dx=0 dy=0 dh=-8 dv=0 dx=0 dy=0 dh=0 dv=0
PairPos2: "'kern' Horizontal Kerning lookup 10 per glyph data 5" tcaron dx=0 dy=0 dh=-8 dv=0 dx=0 dy=0 dh=0 dv=0
PairPos2: "'kern' Horizontal Kerning lookup 10 per glyph data 5" t dx=0 dy=0 dh=-8 dv=0 dx=0 dy=0 dh=0 dv=0
Colour: ff0000
EndChar
StartChar: dcroat
Encoding: 273 273 283
Width: 540
Flags: MW
HStem: -12 28<200 282 200 285> 0 21G<418 444 418 418> 430 28<215 291> 584 28<242 414 242 414> 584 138<242 444 414 444>
VStem: 54 32<161 279 161 294> 414 30<64 64 100 364 364 364 488 584 0 584 612 722>
LayerCount: 2
Fore
SplineSet
252 -12 m 0xb6
 132 -12 54 70 54 222 c 0
 54 366 152 458 268 458 c 0
 326 458 366 436 416 398 c 1
 414 488 l 1
 414 584 l 1
 242 584 l 1
 242 612 l 1
 414 612 l 1xb6
 414 722 l 1
 444 722 l 1xae
 444 612 l 1
 520 612 l 1
 520 588 l 1
 444 584 l 1
 444 0 l 1
 418 0 l 1x76
 414 64 l 1
 412 64 l 1
 372 24 318 -12 252 -12 c 0xb6
254 16 m 0
 310 16 360 46 414 100 c 1
 414 364 l 1
 360 412 316 430 266 430 c 0
 164 430 86 336 86 222 c 0
 86 100 146 16 254 16 c 0
EndSplineSet
Substitution2: "'smcp' Lowercase to Small Capitals lookup 20 subtable" Dcroat.sc
Substitution2: "'aalt' Access All Alternates lookup 0 subtable" Dcroat.sc
Colour: ff0000
EndChar
StartChar: Eogonek
Encoding: 280 280 106
Width: 510
GlyphClass: 2
Flags: MW
HStem: -202 28<405 426> 0 28<132 408 462 462 462 464> 338 28<132 402 132 402> 632 28<132 454 132 132>
VStem: 100 32<28 338 366 632> 336 30<-138 -97>
AnchorPoint: "Anchor-1" 282 682 basechar 0
LayerCount: 2
Fore
SplineSet
416 -202 m 0
 372 -202 336 -176 336 -122 c 0
 336 -72 368 -26 408 0 c 1
 100 0 l 1
 100 660 l 1
 454 660 l 1
 454 632 l 1
 132 632 l 1
 132 366 l 1
 402 366 l 1
 402 338 l 1
 132 338 l 1
 132 28 l 1
 464 28 l 1
 464 0 l 1
 462 0 l 1
 417 -10 366 -60 366 -120 c 0
 366 -156 392 -174 418 -174 c 0
 436 -174 448 -170 462 -160 c 1
 476 -180 l 1
 462 -192 436 -202 416 -202 c 0
EndSplineSet
Substitution2: "'c2sc' Capitals to Small Capitals lookup 17 subtable" Eogonek.sc
Ligature2: "'ccmp' Glyph Composition/Decomposition lookup 11 subtable" E uni0328
Substitution2: "'aalt' Access All Alternates lookup 0 subtable" Eogonek.sc
PairPos2: "'kern' Horizontal Kerning lookup 10 per glyph data 5" uni00670303.a dx=0 dy=0 dh=-10 dv=0 dx=0 dy=0 dh=0 dv=0
PairPos2: "'kern' Horizontal Kerning lookup 10 per glyph data 5" uni1E21.a dx=0 dy=0 dh=-10 dv=0 dx=0 dy=0 dh=0 dv=0
PairPos2: "'kern' Horizontal Kerning lookup 10 per glyph data 5" gcaron.a dx=0 dy=0 dh=-10 dv=0 dx=0 dy=0 dh=0 dv=0
PairPos2: "'kern' Horizontal Kerning lookup 10 per glyph data 5" uni0123.a dx=0 dy=0 dh=-10 dv=0 dx=0 dy=0 dh=0 dv=0
PairPos2: "'kern' Horizontal Kerning lookup 10 per glyph data 5" gdotaccent.a dx=0 dy=0 dh=-10 dv=0 dx=0 dy=0 dh=0 dv=0
PairPos2: "'kern' Horizontal Kerning lookup 10 per glyph data 5" gbreve.a dx=0 dy=0 dh=-10 dv=0 dx=0 dy=0 dh=0 dv=0
PairPos2: "'kern' Horizontal Kerning lookup 10 per glyph data 5" gcircumflex.a dx=0 dy=0 dh=-10 dv=0 dx=0 dy=0 dh=0 dv=0
PairPos2: "'kern' Horizontal Kerning lookup 10 per glyph data 5" uni01F5.a dx=0 dy=0 dh=-10 dv=0 dx=0 dy=0 dh=0 dv=0
PairPos2: "'kern' Horizontal Kerning lookup 10 per glyph data 5" g.a dx=0 dy=0 dh=-10 dv=0 dx=0 dy=0 dh=0 dv=0
PairPos2: "'kern' Horizontal Kerning lookup 10 per glyph data 5" aogonek.a dx=0 dy=0 dh=-10 dv=0 dx=0 dy=0 dh=0 dv=0
PairPos2: "'kern' Horizontal Kerning lookup 10 per glyph data 5" uni1EB7.a dx=0 dy=0 dh=-10 dv=0 dx=0 dy=0 dh=0 dv=0
PairPos2: "'kern' Horizontal Kerning lookup 10 per glyph data 5" uni1EB5.a dx=0 dy=0 dh=-10 dv=0 dx=0 dy=0 dh=0 dv=0
PairPos2: "'kern' Horizontal Kerning lookup 10 per glyph data 5" uni1EB3.a dx=0 dy=0 dh=-10 dv=0 dx=0 dy=0 dh=0 dv=0
PairPos2: "'kern' Horizontal Kerning lookup 10 per glyph data 5" uni1EB1.a dx=0 dy=0 dh=-10 dv=0 dx=0 dy=0 dh=0 dv=0
PairPos2: "'kern' Horizontal Kerning lookup 10 per glyph data 5" uni1EAF.a dx=0 dy=0 dh=-10 dv=0 dx=0 dy=0 dh=0 dv=0
PairPos2: "'kern' Horizontal Kerning lookup 10 per glyph data 5" uni1EAD.a dx=0 dy=0 dh=-10 dv=0 dx=0 dy=0 dh=0 dv=0
PairPos2: "'kern' Horizontal Kerning lookup 10 per glyph data 5" uni1EAB.a dx=0 dy=0 dh=-10 dv=0 dx=0 dy=0 dh=0 dv=0
PairPos2: "'kern' Horizontal Kerning lookup 10 per glyph data 5" uni1EA9.a dx=0 dy=0 dh=-10 dv=0 dx=0 dy=0 dh=0 dv=0
PairPos2: "'kern' Horizontal Kerning lookup 10 per glyph data 5" uni1EA7.a dx=0 dy=0 dh=-10 dv=0 dx=0 dy=0 dh=0 dv=0
PairPos2: "'kern' Horizontal Kerning lookup 10 per glyph data 5" uni1EA5.a dx=0 dy=0 dh=-10 dv=0 dx=0 dy=0 dh=0 dv=0
PairPos2: "'kern' Horizontal Kerning lookup 10 per glyph data 5" uni1EA3.a dx=0 dy=0 dh=-10 dv=0 dx=0 dy=0 dh=0 dv=0
PairPos2: "'kern' Horizontal Kerning lookup 10 per glyph data 5" uni1EA1.a dx=0 dy=0 dh=-10 dv=0 dx=0 dy=0 dh=0 dv=0
PairPos2: "'kern' Horizontal Kerning lookup 10 per glyph data 5" uni01CE.a dx=0 dy=0 dh=-10 dv=0 dx=0 dy=0 dh=0 dv=0
PairPos2: "'kern' Horizontal Kerning lookup 10 per glyph data 5" aring.a dx=0 dy=0 dh=-10 dv=0 dx=0 dy=0 dh=0 dv=0
PairPos2: "'kern' Horizontal Kerning lookup 10 per glyph data 5" abreve.a dx=0 dy=0 dh=-10 dv=0 dx=0 dy=0 dh=0 dv=0
PairPos2: "'kern' Horizontal Kerning lookup 10 per glyph data 5" amacron.a dx=0 dy=0 dh=-10 dv=0 dx=0 dy=0 dh=0 dv=0
PairPos2: "'kern' Horizontal Kerning lookup 10 per glyph data 5" adieresis.a dx=0 dy=0 dh=-10 dv=0 dx=0 dy=0 dh=0 dv=0
PairPos2: "'kern' Horizontal Kerning lookup 10 per glyph data 5" atilde.a dx=0 dy=0 dh=-10 dv=0 dx=0 dy=0 dh=0 dv=0
PairPos2: "'kern' Horizontal Kerning lookup 10 per glyph data 5" acircumflex.a dx=0 dy=0 dh=-10 dv=0 dx=0 dy=0 dh=0 dv=0
PairPos2: "'kern' Horizontal Kerning lookup 10 per glyph data 5" aacute.a dx=0 dy=0 dh=-10 dv=0 dx=0 dy=0 dh=0 dv=0
PairPos2: "'kern' Horizontal Kerning lookup 10 per glyph data 5" agrave.a dx=0 dy=0 dh=-10 dv=0 dx=0 dy=0 dh=0 dv=0
PairPos2: "'kern' Horizontal Kerning lookup 10 per glyph data 5" a.a dx=0 dy=0 dh=-10 dv=0 dx=0 dy=0 dh=0 dv=0
PairPos2: "'kern' Horizontal Kerning lookup 10 per glyph data 5" uni0278 dx=0 dy=0 dh=-10 dv=0 dx=0 dy=0 dh=0 dv=0
PairPos2: "'kern' Horizontal Kerning lookup 10 per glyph data 5" uni0276 dx=0 dy=0 dh=-10 dv=0 dx=0 dy=0 dh=0 dv=0
PairPos2: "'kern' Horizontal Kerning lookup 10 per glyph data 5" uni0275 dx=0 dy=0 dh=-10 dv=0 dx=0 dy=0 dh=0 dv=0
PairPos2: "'kern' Horizontal Kerning lookup 10 per glyph data 5" uni0262 dx=0 dy=0 dh=-10 dv=0 dx=0 dy=0 dh=0 dv=0
PairPos2: "'kern' Horizontal Kerning lookup 10 per glyph data 5" uni0261 dx=0 dy=0 dh=-10 dv=0 dx=0 dy=0 dh=0 dv=0
PairPos2: "'kern' Horizontal Kerning lookup 10 per glyph data 5" uni0260 dx=0 dy=0 dh=-10 dv=0 dx=0 dy=0 dh=0 dv=0
PairPos2: "'kern' Horizontal Kerning lookup 10 per glyph data 5" uni0251 dx=0 dy=0 dh=-10 dv=0 dx=0 dy=0 dh=0 dv=0
PairPos2: "'kern' Horizontal Kerning lookup 10 per glyph data 5" uni0257 dx=0 dy=0 dh=-10 dv=0 dx=0 dy=0 dh=0 dv=0
PairPos2: "'kern' Horizontal Kerning lookup 10 per glyph data 5" uni0256 dx=0 dy=0 dh=-10 dv=0 dx=0 dy=0 dh=0 dv=0
PairPos2: "'kern' Horizontal Kerning lookup 10 per glyph data 5" uni0255 dx=0 dy=0 dh=-10 dv=0 dx=0 dy=0 dh=0 dv=0
PairPos2: "'kern' Horizontal Kerning lookup 10 per glyph data 5" uni01EB dx=0 dy=0 dh=-10 dv=0 dx=0 dy=0 dh=0 dv=0
PairPos2: "'kern' Horizontal Kerning lookup 10 per glyph data 5" uni1EE3 dx=0 dy=0 dh=-10 dv=0 dx=0 dy=0 dh=0 dv=0
PairPos2: "'kern' Horizontal Kerning lookup 10 per glyph data 5" uni1EE1 dx=0 dy=0 dh=-10 dv=0 dx=0 dy=0 dh=0 dv=0
PairPos2: "'kern' Horizontal Kerning lookup 10 per glyph data 5" uni1EDF dx=0 dy=0 dh=-10 dv=0 dx=0 dy=0 dh=0 dv=0
PairPos2: "'kern' Horizontal Kerning lookup 10 per glyph data 5" uni1EDD dx=0 dy=0 dh=-10 dv=0 dx=0 dy=0 dh=0 dv=0
PairPos2: "'kern' Horizontal Kerning lookup 10 per glyph data 5" uni1EDB dx=0 dy=0 dh=-10 dv=0 dx=0 dy=0 dh=0 dv=0
PairPos2: "'kern' Horizontal Kerning lookup 10 per glyph data 5" ohorn dx=0 dy=0 dh=-10 dv=0 dx=0 dy=0 dh=0 dv=0
PairPos2: "'kern' Horizontal Kerning lookup 10 per glyph data 5" oe dx=0 dy=0 dh=-10 dv=0 dx=0 dy=0 dh=0 dv=0
PairPos2: "'kern' Horizontal Kerning lookup 10 per glyph data 5" oslash dx=0 dy=0 dh=-10 dv=0 dx=0 dy=0 dh=0 dv=0
PairPos2: "'kern' Horizontal Kerning lookup 10 per glyph data 5" uni1E53 dx=0 dy=0 dh=-10 dv=0 dx=0 dy=0 dh=0 dv=0
PairPos2: "'kern' Horizontal Kerning lookup 10 per glyph data 5" uni014F dx=0 dy=0 dh=-10 dv=0 dx=0 dy=0 dh=0 dv=0
PairPos2: "'kern' Horizontal Kerning lookup 10 per glyph data 5" uni1ED9 dx=0 dy=0 dh=-10 dv=0 dx=0 dy=0 dh=0 dv=0
PairPos2: "'kern' Horizontal Kerning lookup 10 per glyph data 5" uni1ED7 dx=0 dy=0 dh=-10 dv=0 dx=0 dy=0 dh=0 dv=0
PairPos2: "'kern' Horizontal Kerning lookup 10 per glyph data 5" uni1ED5 dx=0 dy=0 dh=-10 dv=0 dx=0 dy=0 dh=0 dv=0
PairPos2: "'kern' Horizontal Kerning lookup 10 per glyph data 5" uni1ED3 dx=0 dy=0 dh=-10 dv=0 dx=0 dy=0 dh=0 dv=0
PairPos2: "'kern' Horizontal Kerning lookup 10 per glyph data 5" uni1ED1 dx=0 dy=0 dh=-10 dv=0 dx=0 dy=0 dh=0 dv=0
PairPos2: "'kern' Horizontal Kerning lookup 10 per glyph data 5" uni1ECF dx=0 dy=0 dh=-10 dv=0 dx=0 dy=0 dh=0 dv=0
PairPos2: "'kern' Horizontal Kerning lookup 10 per glyph data 5" uni1ECD dx=0 dy=0 dh=-10 dv=0 dx=0 dy=0 dh=0 dv=0
PairPos2: "'kern' Horizontal Kerning lookup 10 per glyph data 5" uni01D2 dx=0 dy=0 dh=-10 dv=0 dx=0 dy=0 dh=0 dv=0
PairPos2: "'kern' Horizontal Kerning lookup 10 per glyph data 5" ohungarumlaut dx=0 dy=0 dh=-10 dv=0 dx=0 dy=0 dh=0 dv=0
PairPos2: "'kern' Horizontal Kerning lookup 10 per glyph data 5" omacron dx=0 dy=0 dh=-10 dv=0 dx=0 dy=0 dh=0 dv=0
PairPos2: "'kern' Horizontal Kerning lookup 10 per glyph data 5" odieresis dx=0 dy=0 dh=-10 dv=0 dx=0 dy=0 dh=0 dv=0
PairPos2: "'kern' Horizontal Kerning lookup 10 per glyph data 5" otilde dx=0 dy=0 dh=-10 dv=0 dx=0 dy=0 dh=0 dv=0
PairPos2: "'kern' Horizontal Kerning lookup 10 per glyph data 5" ocircumflex dx=0 dy=0 dh=-10 dv=0 dx=0 dy=0 dh=0 dv=0
PairPos2: "'kern' Horizontal Kerning lookup 10 per glyph data 5" oacute dx=0 dy=0 dh=-10 dv=0 dx=0 dy=0 dh=0 dv=0
PairPos2: "'kern' Horizontal Kerning lookup 10 per glyph data 5" ograve dx=0 dy=0 dh=-10 dv=0 dx=0 dy=0 dh=0 dv=0
PairPos2: "'kern' Horizontal Kerning lookup 10 per glyph data 5" uni1E17 dx=0 dy=0 dh=-10 dv=0 dx=0 dy=0 dh=0 dv=0
PairPos2: "'kern' Horizontal Kerning lookup 10 per glyph data 5" eogonek dx=0 dy=0 dh=-10 dv=0 dx=0 dy=0 dh=0 dv=0
PairPos2: "'kern' Horizontal Kerning lookup 10 per glyph data 5" uni1EC7 dx=0 dy=0 dh=-10 dv=0 dx=0 dy=0 dh=0 dv=0
PairPos2: "'kern' Horizontal Kerning lookup 10 per glyph data 5" uni1EC5 dx=0 dy=0 dh=-10 dv=0 dx=0 dy=0 dh=0 dv=0
PairPos2: "'kern' Horizontal Kerning lookup 10 per glyph data 5" uni1EC3 dx=0 dy=0 dh=-10 dv=0 dx=0 dy=0 dh=0 dv=0
PairPos2: "'kern' Horizontal Kerning lookup 10 per glyph data 5" uni1EC1 dx=0 dy=0 dh=-10 dv=0 dx=0 dy=0 dh=0 dv=0
PairPos2: "'kern' Horizontal Kerning lookup 10 per glyph data 5" uni1EBF dx=0 dy=0 dh=-10 dv=0 dx=0 dy=0 dh=0 dv=0
PairPos2: "'kern' Horizontal Kerning lookup 10 per glyph data 5" uni1EBD dx=0 dy=0 dh=-10 dv=0 dx=0 dy=0 dh=0 dv=0
PairPos2: "'kern' Horizontal Kerning lookup 10 per glyph data 5" uni1EBB dx=0 dy=0 dh=-10 dv=0 dx=0 dy=0 dh=0 dv=0
PairPos2: "'kern' Horizontal Kerning lookup 10 per glyph data 5" uni1EB9 dx=0 dy=0 dh=-10 dv=0 dx=0 dy=0 dh=0 dv=0
PairPos2: "'kern' Horizontal Kerning lookup 10 per glyph data 5" edotaccent dx=0 dy=0 dh=-10 dv=0 dx=0 dy=0 dh=0 dv=0
PairPos2: "'kern' Horizontal Kerning lookup 10 per glyph data 5" ebreve dx=0 dy=0 dh=-10 dv=0 dx=0 dy=0 dh=0 dv=0
PairPos2: "'kern' Horizontal Kerning lookup 10 per glyph data 5" emacron dx=0 dy=0 dh=-10 dv=0 dx=0 dy=0 dh=0 dv=0
PairPos2: "'kern' Horizontal Kerning lookup 10 per glyph data 5" edieresis dx=0 dy=0 dh=-10 dv=0 dx=0 dy=0 dh=0 dv=0
PairPos2: "'kern' Horizontal Kerning lookup 10 per glyph data 5" ecaron dx=0 dy=0 dh=-10 dv=0 dx=0 dy=0 dh=0 dv=0
PairPos2: "'kern' Horizontal Kerning lookup 10 per glyph data 5" ecircumflex dx=0 dy=0 dh=-10 dv=0 dx=0 dy=0 dh=0 dv=0
PairPos2: "'kern' Horizontal Kerning lookup 10 per glyph data 5" eacute dx=0 dy=0 dh=-10 dv=0 dx=0 dy=0 dh=0 dv=0
PairPos2: "'kern' Horizontal Kerning lookup 10 per glyph data 5" egrave dx=0 dy=0 dh=-10 dv=0 dx=0 dy=0 dh=0 dv=0
PairPos2: "'kern' Horizontal Kerning lookup 10 per glyph data 5" dcroat dx=0 dy=0 dh=-10 dv=0 dx=0 dy=0 dh=0 dv=0
PairPos2: "'kern' Horizontal Kerning lookup 10 per glyph data 5" uni1E0F dx=0 dy=0 dh=-10 dv=0 dx=0 dy=0 dh=0 dv=0
PairPos2: "'kern' Horizontal Kerning lookup 10 per glyph data 5" uni1E0D dx=0 dy=0 dh=-10 dv=0 dx=0 dy=0 dh=0 dv=0
PairPos2: "'kern' Horizontal Kerning lookup 10 per glyph data 5" dcaron dx=0 dy=0 dh=-10 dv=0 dx=0 dy=0 dh=0 dv=0
PairPos2: "'kern' Horizontal Kerning lookup 10 per glyph data 5" cdotaccent dx=0 dy=0 dh=-10 dv=0 dx=0 dy=0 dh=0 dv=0
PairPos2: "'kern' Horizontal Kerning lookup 10 per glyph data 5" ccaron dx=0 dy=0 dh=-10 dv=0 dx=0 dy=0 dh=0 dv=0
PairPos2: "'kern' Horizontal Kerning lookup 10 per glyph data 5" ccircumflex dx=0 dy=0 dh=-10 dv=0 dx=0 dy=0 dh=0 dv=0
PairPos2: "'kern' Horizontal Kerning lookup 10 per glyph data 5" cacute dx=0 dy=0 dh=-10 dv=0 dx=0 dy=0 dh=0 dv=0
PairPos2: "'kern' Horizontal Kerning lookup 10 per glyph data 5" ccedilla dx=0 dy=0 dh=-10 dv=0 dx=0 dy=0 dh=0 dv=0
PairPos2: "'kern' Horizontal Kerning lookup 10 per glyph data 5" q dx=0 dy=0 dh=-10 dv=0 dx=0 dy=0 dh=0 dv=0
PairPos2: "'kern' Horizontal Kerning lookup 10 per glyph data 5" o dx=0 dy=0 dh=-10 dv=0 dx=0 dy=0 dh=0 dv=0
PairPos2: "'kern' Horizontal Kerning lookup 10 per glyph data 5" e dx=0 dy=0 dh=-10 dv=0 dx=0 dy=0 dh=0 dv=0
PairPos2: "'kern' Horizontal Kerning lookup 10 per glyph data 5" d dx=0 dy=0 dh=-10 dv=0 dx=0 dy=0 dh=0 dv=0
PairPos2: "'kern' Horizontal Kerning lookup 10 per glyph data 5" c dx=0 dy=0 dh=-10 dv=0 dx=0 dy=0 dh=0 dv=0
PairPos2: "'kern' Horizontal Kerning lookup 10 per glyph data 5" uni0263 dx=0 dy=0 dh=-10 dv=0 dx=0 dy=0 dh=0 dv=0
PairPos2: "'kern' Horizontal Kerning lookup 10 per glyph data 5" uni1EF9 dx=0 dy=0 dh=-10 dv=0 dx=0 dy=0 dh=0 dv=0
PairPos2: "'kern' Horizontal Kerning lookup 10 per glyph data 5" uni1EF7 dx=0 dy=0 dh=-10 dv=0 dx=0 dy=0 dh=0 dv=0
PairPos2: "'kern' Horizontal Kerning lookup 10 per glyph data 5" uni1EF5 dx=0 dy=0 dh=-10 dv=0 dx=0 dy=0 dh=0 dv=0
PairPos2: "'kern' Horizontal Kerning lookup 10 per glyph data 5" uni1E8F dx=0 dy=0 dh=-10 dv=0 dx=0 dy=0 dh=0 dv=0
PairPos2: "'kern' Horizontal Kerning lookup 10 per glyph data 5" ydieresis dx=0 dy=0 dh=-10 dv=0 dx=0 dy=0 dh=0 dv=0
PairPos2: "'kern' Horizontal Kerning lookup 10 per glyph data 5" ycircumflex dx=0 dy=0 dh=-10 dv=0 dx=0 dy=0 dh=0 dv=0
PairPos2: "'kern' Horizontal Kerning lookup 10 per glyph data 5" yacute dx=0 dy=0 dh=-10 dv=0 dx=0 dy=0 dh=0 dv=0
PairPos2: "'kern' Horizontal Kerning lookup 10 per glyph data 5" ygrave dx=0 dy=0 dh=-10 dv=0 dx=0 dy=0 dh=0 dv=0
PairPos2: "'kern' Horizontal Kerning lookup 10 per glyph data 5" y dx=0 dy=0 dh=-10 dv=0 dx=0 dy=0 dh=0 dv=0
PairPos2: "'kern' Horizontal Kerning lookup 10 per glyph data 5" x dx=0 dy=0 dh=-20 dv=0 dx=0 dy=0 dh=0 dv=0
PairPos2: "'kern' Horizontal Kerning lookup 10 per glyph data 5" v dx=0 dy=0 dh=-10 dv=0 dx=0 dy=0 dh=0 dv=0
PairPos2: "'kern' Horizontal Kerning lookup 10 per glyph data 5" Jcircumflex.sc dx=0 dy=0 dh=-10 dv=0 dx=0 dy=0 dh=0 dv=0
PairPos2: "'kern' Horizontal Kerning lookup 10 per glyph data 5" J.sc dx=0 dy=0 dh=-10 dv=0 dx=0 dy=0 dh=0 dv=0
PairPos2: "'kern' Horizontal Kerning lookup 10 per glyph data 5" uni0166.sc dx=0 dy=0 dh=-20 dv=0 dx=0 dy=0 dh=0 dv=0
PairPos2: "'kern' Horizontal Kerning lookup 10 per glyph data 5" uni1E6E.sc dx=0 dy=0 dh=-20 dv=0 dx=0 dy=0 dh=0 dv=0
PairPos2: "'kern' Horizontal Kerning lookup 10 per glyph data 5" uni1E6C.sc dx=0 dy=0 dh=-20 dv=0 dx=0 dy=0 dh=0 dv=0
PairPos2: "'kern' Horizontal Kerning lookup 10 per glyph data 5" uni021A.sc dx=0 dy=0 dh=-20 dv=0 dx=0 dy=0 dh=0 dv=0
PairPos2: "'kern' Horizontal Kerning lookup 10 per glyph data 5" uni0162.sc dx=0 dy=0 dh=-20 dv=0 dx=0 dy=0 dh=0 dv=0
PairPos2: "'kern' Horizontal Kerning lookup 10 per glyph data 5" Tcaron.sc dx=0 dy=0 dh=-20 dv=0 dx=0 dy=0 dh=0 dv=0
PairPos2: "'kern' Horizontal Kerning lookup 10 per glyph data 5" T.sc dx=0 dy=0 dh=-20 dv=0 dx=0 dy=0 dh=0 dv=0
PairPos2: "'kern' Horizontal Kerning lookup 10 per glyph data 5" germandbls.sc dx=0 dy=0 dh=-10 dv=0 dx=0 dy=0 dh=0 dv=0
PairPos2: "'kern' Horizontal Kerning lookup 10 per glyph data 5" uni1E62.sc dx=0 dy=0 dh=-10 dv=0 dx=0 dy=0 dh=0 dv=0
PairPos2: "'kern' Horizontal Kerning lookup 10 per glyph data 5" uni1E60.sc dx=0 dy=0 dh=-10 dv=0 dx=0 dy=0 dh=0 dv=0
PairPos2: "'kern' Horizontal Kerning lookup 10 per glyph data 5" uni0218.sc dx=0 dy=0 dh=-10 dv=0 dx=0 dy=0 dh=0 dv=0
PairPos2: "'kern' Horizontal Kerning lookup 10 per glyph data 5" uni015E.sc dx=0 dy=0 dh=-10 dv=0 dx=0 dy=0 dh=0 dv=0
PairPos2: "'kern' Horizontal Kerning lookup 10 per glyph data 5" Scaron.sc dx=0 dy=0 dh=-10 dv=0 dx=0 dy=0 dh=0 dv=0
PairPos2: "'kern' Horizontal Kerning lookup 10 per glyph data 5" Scircumflex.sc dx=0 dy=0 dh=-10 dv=0 dx=0 dy=0 dh=0 dv=0
PairPos2: "'kern' Horizontal Kerning lookup 10 per glyph data 5" Sacute.sc dx=0 dy=0 dh=-10 dv=0 dx=0 dy=0 dh=0 dv=0
PairPos2: "'kern' Horizontal Kerning lookup 10 per glyph data 5" S.sc dx=0 dy=0 dh=-10 dv=0 dx=0 dy=0 dh=0 dv=0
PairPos2: "'kern' Horizontal Kerning lookup 10 per glyph data 5" Aogonek.sc dx=0 dy=0 dh=10 dv=0 dx=0 dy=0 dh=0 dv=0
PairPos2: "'kern' Horizontal Kerning lookup 10 per glyph data 5" uni1EB6.sc dx=0 dy=0 dh=10 dv=0 dx=0 dy=0 dh=0 dv=0
PairPos2: "'kern' Horizontal Kerning lookup 10 per glyph data 5" uni1EB4.sc dx=0 dy=0 dh=10 dv=0 dx=0 dy=0 dh=0 dv=0
PairPos2: "'kern' Horizontal Kerning lookup 10 per glyph data 5" uni1EB2.sc dx=0 dy=0 dh=10 dv=0 dx=0 dy=0 dh=0 dv=0
PairPos2: "'kern' Horizontal Kerning lookup 10 per glyph data 5" uni1EB0.sc dx=0 dy=0 dh=10 dv=0 dx=0 dy=0 dh=0 dv=0
PairPos2: "'kern' Horizontal Kerning lookup 10 per glyph data 5" uni1EAE.sc dx=0 dy=0 dh=10 dv=0 dx=0 dy=0 dh=0 dv=0
PairPos2: "'kern' Horizontal Kerning lookup 10 per glyph data 5" uni1EAC.sc dx=0 dy=0 dh=10 dv=0 dx=0 dy=0 dh=0 dv=0
PairPos2: "'kern' Horizontal Kerning lookup 10 per glyph data 5" uni1EAA.sc dx=0 dy=0 dh=10 dv=0 dx=0 dy=0 dh=0 dv=0
PairPos2: "'kern' Horizontal Kerning lookup 10 per glyph data 5" uni1EA8.sc dx=0 dy=0 dh=10 dv=0 dx=0 dy=0 dh=0 dv=0
PairPos2: "'kern' Horizontal Kerning lookup 10 per glyph data 5" uni1EA6.sc dx=0 dy=0 dh=10 dv=0 dx=0 dy=0 dh=0 dv=0
PairPos2: "'kern' Horizontal Kerning lookup 10 per glyph data 5" uni1EA4.sc dx=0 dy=0 dh=10 dv=0 dx=0 dy=0 dh=0 dv=0
PairPos2: "'kern' Horizontal Kerning lookup 10 per glyph data 5" uni1EA2.sc dx=0 dy=0 dh=10 dv=0 dx=0 dy=0 dh=0 dv=0
PairPos2: "'kern' Horizontal Kerning lookup 10 per glyph data 5" uni1EA0.sc dx=0 dy=0 dh=10 dv=0 dx=0 dy=0 dh=0 dv=0
PairPos2: "'kern' Horizontal Kerning lookup 10 per glyph data 5" uni01CD.sc dx=0 dy=0 dh=10 dv=0 dx=0 dy=0 dh=0 dv=0
PairPos2: "'kern' Horizontal Kerning lookup 10 per glyph data 5" Aring.sc dx=0 dy=0 dh=10 dv=0 dx=0 dy=0 dh=0 dv=0
PairPos2: "'kern' Horizontal Kerning lookup 10 per glyph data 5" Abreve.sc dx=0 dy=0 dh=10 dv=0 dx=0 dy=0 dh=0 dv=0
PairPos2: "'kern' Horizontal Kerning lookup 10 per glyph data 5" Amacron.sc dx=0 dy=0 dh=10 dv=0 dx=0 dy=0 dh=0 dv=0
PairPos2: "'kern' Horizontal Kerning lookup 10 per glyph data 5" Adieresis.sc dx=0 dy=0 dh=10 dv=0 dx=0 dy=0 dh=0 dv=0
PairPos2: "'kern' Horizontal Kerning lookup 10 per glyph data 5" Atilde.sc dx=0 dy=0 dh=10 dv=0 dx=0 dy=0 dh=0 dv=0
PairPos2: "'kern' Horizontal Kerning lookup 10 per glyph data 5" Acircumflex.sc dx=0 dy=0 dh=10 dv=0 dx=0 dy=0 dh=0 dv=0
PairPos2: "'kern' Horizontal Kerning lookup 10 per glyph data 5" Aacute.sc dx=0 dy=0 dh=10 dv=0 dx=0 dy=0 dh=0 dv=0
PairPos2: "'kern' Horizontal Kerning lookup 10 per glyph data 5" Agrave.sc dx=0 dy=0 dh=10 dv=0 dx=0 dy=0 dh=0 dv=0
PairPos2: "'kern' Horizontal Kerning lookup 10 per glyph data 5" A.sc dx=0 dy=0 dh=10 dv=0 dx=0 dy=0 dh=0 dv=0
PairPos2: "'kern' Horizontal Kerning lookup 10 per glyph data 5" uni0288 dx=0 dy=0 dh=-20 dv=0 dx=0 dy=0 dh=0 dv=0
PairPos2: "'kern' Horizontal Kerning lookup 10 per glyph data 5" uni0167 dx=0 dy=0 dh=-20 dv=0 dx=0 dy=0 dh=0 dv=0
PairPos2: "'kern' Horizontal Kerning lookup 10 per glyph data 5" uni1E97 dx=0 dy=0 dh=-20 dv=0 dx=0 dy=0 dh=0 dv=0
PairPos2: "'kern' Horizontal Kerning lookup 10 per glyph data 5" uni1E6F dx=0 dy=0 dh=-20 dv=0 dx=0 dy=0 dh=0 dv=0
PairPos2: "'kern' Horizontal Kerning lookup 10 per glyph data 5" uni1E6D dx=0 dy=0 dh=-20 dv=0 dx=0 dy=0 dh=0 dv=0
PairPos2: "'kern' Horizontal Kerning lookup 10 per glyph data 5" uni021B dx=0 dy=0 dh=-20 dv=0 dx=0 dy=0 dh=0 dv=0
PairPos2: "'kern' Horizontal Kerning lookup 10 per glyph data 5" uni0163 dx=0 dy=0 dh=-20 dv=0 dx=0 dy=0 dh=0 dv=0
PairPos2: "'kern' Horizontal Kerning lookup 10 per glyph data 5" tcaron dx=0 dy=0 dh=-20 dv=0 dx=0 dy=0 dh=0 dv=0
PairPos2: "'kern' Horizontal Kerning lookup 10 per glyph data 5" t dx=0 dy=0 dh=-20 dv=0 dx=0 dy=0 dh=0 dv=0
Colour: ff0000
EndChar
